<svg xmlns="http://www.w3.org/2000/svg" xmlns:xlink="http://www.w3.org/1999/xlink" width="6912" zoomAndPan="magnify" viewBox="0 0 5184 1799.999925" height="2400" preserveAspectRatio="xMidYMid meet" version="1.0"><defs><g/><clipPath id="3ecbfafbc7"><path d="M 2990.742188 1436.933594 L 3256.570312 1436.933594 L 3256.570312 1690.304688 L 2990.742188 1690.304688 Z M 2990.742188 1436.933594 " clip-rule="nonzero"/></clipPath><clipPath id="3c4b432e2f"><path d="M 3123.65625 1436.933594 L 3155.035156 1533.714844 L 3256.570312 1533.714844 L 3174.425781 1593.523438 L 3205.800781 1690.304688 L 3123.65625 1630.492188 L 3041.511719 1690.304688 L 3072.886719 1593.523438 L 2990.742188 1533.714844 L 3092.28125 1533.714844 L 3123.65625 1436.933594 " clip-rule="nonzero"/></clipPath><clipPath id="20f880e5c7"><path d="M 2724.914062 1436.933594 L 2990.742188 1436.933594 L 2990.742188 1690.304688 L 2724.914062 1690.304688 Z M 2724.914062 1436.933594 " clip-rule="nonzero"/></clipPath><clipPath id="58c28d7ea8"><path d="M 2857.828125 1436.933594 L 2889.207031 1533.714844 L 2990.742188 1533.714844 L 2908.597656 1593.523438 L 2939.972656 1690.304688 L 2857.828125 1630.492188 L 2775.683594 1690.304688 L 2807.058594 1593.523438 L 2724.914062 1533.714844 L 2826.453125 1533.714844 L 2857.828125 1436.933594 " clip-rule="nonzero"/></clipPath><clipPath id="f0d25dead8"><path d="M 2459.085938 1436.933594 L 2724.914062 1436.933594 L 2724.914062 1690.304688 L 2459.085938 1690.304688 Z M 2459.085938 1436.933594 " clip-rule="nonzero"/></clipPath><clipPath id="015262e236"><path d="M 2592 1436.933594 L 2623.375 1533.714844 L 2724.914062 1533.714844 L 2642.769531 1593.523438 L 2674.144531 1690.304688 L 2592 1630.492188 L 2509.855469 1690.304688 L 2541.230469 1593.523438 L 2459.085938 1533.714844 L 2560.621094 1533.714844 L 2592 1436.933594 " clip-rule="nonzero"/></clipPath><clipPath id="ad18592786"><path d="M 2193.257812 1436.933594 L 2459.085938 1436.933594 L 2459.085938 1690.304688 L 2193.257812 1690.304688 Z M 2193.257812 1436.933594 " clip-rule="nonzero"/></clipPath><clipPath id="f171841db2"><path d="M 2326.171875 1436.933594 L 2357.546875 1533.714844 L 2459.085938 1533.714844 L 2376.941406 1593.523438 L 2408.316406 1690.304688 L 2326.171875 1630.492188 L 2244.027344 1690.304688 L 2275.402344 1593.523438 L 2193.257812 1533.714844 L 2294.792969 1533.714844 L 2326.171875 1436.933594 " clip-rule="nonzero"/></clipPath><clipPath id="ff82ef42dc"><path d="M 1927.429688 1436.933594 L 2193.257812 1436.933594 L 2193.257812 1690.304688 L 1927.429688 1690.304688 Z M 1927.429688 1436.933594 " clip-rule="nonzero"/></clipPath><clipPath id="b1aed1270a"><path d="M 2060.34375 1436.933594 L 2091.71875 1533.714844 L 2193.257812 1533.714844 L 2111.113281 1593.523438 L 2142.488281 1690.304688 L 2060.34375 1630.492188 L 1978.199219 1690.304688 L 2009.574219 1593.523438 L 1927.429688 1533.714844 L 2028.964844 1533.714844 L 2060.34375 1436.933594 " clip-rule="nonzero"/></clipPath><clipPath id="6cad78458a"><path d="M 1336.734375 1154.253906 L 1462 1154.253906 L 1462 1260 L 1336.734375 1260 Z M 1336.734375 1154.253906 " clip-rule="nonzero"/></clipPath><clipPath id="d7c3df09a2"><path d="M 1337 1259 L 1528.734375 1259 L 1528.734375 1275 L 1337 1275 Z M 1337 1259 " clip-rule="nonzero"/></clipPath><clipPath id="948704ee03"><path d="M 1461 1231 L 1528.734375 1231 L 1528.734375 1246 L 1461 1246 Z M 1461 1231 " clip-rule="nonzero"/></clipPath><clipPath id="f5a3b1e18e"><path d="M 1461 1245 L 1528.734375 1245 L 1528.734375 1260 L 1461 1260 Z M 1461 1245 " clip-rule="nonzero"/></clipPath><clipPath id="8374b628e5"><path d="M 1382 1331 L 1484 1331 L 1484 1346.253906 L 1382 1346.253906 Z M 1382 1331 " clip-rule="nonzero"/></clipPath><clipPath id="50872d9530"><path d="M 1425 1353 L 1433 1353 L 1433 1353.753906 L 1425 1353.753906 Z M 1425 1353 " clip-rule="nonzero"/></clipPath><clipPath id="5a5e949518"><path d="M 1329.441406 1218 L 1528.941406 1218 L 1528.941406 1290 L 1329.441406 1290 Z M 1329.441406 1218 " clip-rule="nonzero"/></clipPath><clipPath id="d89be68bf6"><path d="M 1336 1154.253906 L 1523 1154.253906 L 1523 1219 L 1336 1219 Z M 1336 1154.253906 " clip-rule="nonzero"/></clipPath><clipPath id="b460e78824"><path d="M 1336 1289 L 1523 1289 L 1523 1353.753906 L 1336 1353.753906 Z M 1336 1289 " clip-rule="nonzero"/></clipPath><clipPath id="3539b77f40"><path d="M 1329.441406 1154.253906 L 1460 1154.253906 L 1460 1264 L 1329.441406 1264 Z M 1329.441406 1154.253906 " clip-rule="nonzero"/></clipPath><clipPath id="d129d95036"><path d="M 1329.441406 1263 L 1528.941406 1263 L 1528.941406 1279 L 1329.441406 1279 Z M 1329.441406 1263 " clip-rule="nonzero"/></clipPath><clipPath id="a145d1e6e8"><path d="M 1459 1234 L 1528.941406 1234 L 1528.941406 1250 L 1459 1250 Z M 1459 1234 " clip-rule="nonzero"/></clipPath><clipPath id="967b811f87"><path d="M 1459 1249 L 1528.941406 1249 L 1528.941406 1264 L 1459 1264 Z M 1459 1249 " clip-rule="nonzero"/></clipPath><clipPath id="778b148e73"><path d="M 1376 1338 L 1482 1338 L 1482 1353.753906 L 1376 1353.753906 Z M 1376 1338 " clip-rule="nonzero"/></clipPath><clipPath id="a2b5b5b5c8"><path d="M 1327.246094 1152.058594 L 1531.246094 1152.058594 L 1531.246094 1356.058594 L 1327.246094 1356.058594 Z M 1327.246094 1152.058594 " clip-rule="nonzero"/></clipPath><clipPath id="2aa75a51bc"><path d="M 1327.246094 1174 L 1366 1174 L 1366 1334 L 1327.246094 1334 Z M 1327.246094 1174 " clip-rule="nonzero"/></clipPath><clipPath id="45722bba85"><path d="M 1492 1174 L 1531.246094 1174 L 1531.246094 1334 L 1492 1334 Z M 1492 1174 " clip-rule="nonzero"/></clipPath></defs><g clip-path="url(#3ecbfafbc7)"><g clip-path="url(#3c4b432e2f)"><path fill="#ffba1f" d="M 2990.742188 1436.933594 L 3256.570312 1436.933594 L 3256.570312 1690.304688 L 2990.742188 1690.304688 Z M 2990.742188 1436.933594 " fill-opacity="1" fill-rule="nonzero"/></g></g><g clip-path="url(#20f880e5c7)"><g clip-path="url(#58c28d7ea8)"><path fill="#ffba1f" d="M 2724.914062 1436.933594 L 2990.742188 1436.933594 L 2990.742188 1690.304688 L 2724.914062 1690.304688 Z M 2724.914062 1436.933594 " fill-opacity="1" fill-rule="nonzero"/></g></g><g clip-path="url(#f0d25dead8)"><g clip-path="url(#015262e236)"><path fill="#ffba1f" d="M 2459.085938 1436.933594 L 2724.914062 1436.933594 L 2724.914062 1690.304688 L 2459.085938 1690.304688 Z M 2459.085938 1436.933594 " fill-opacity="1" fill-rule="nonzero"/></g></g><g clip-path="url(#ad18592786)"><g clip-path="url(#f171841db2)"><path fill="#ffba1f" d="M 2193.257812 1436.933594 L 2459.085938 1436.933594 L 2459.085938 1690.304688 L 2193.257812 1690.304688 Z M 2193.257812 1436.933594 " fill-opacity="1" fill-rule="nonzero"/></g></g><g clip-path="url(#ff82ef42dc)"><g clip-path="url(#b1aed1270a)"><path fill="#ffba1f" d="M 1927.429688 1436.933594 L 2193.257812 1436.933594 L 2193.257812 1690.304688 L 1927.429688 1690.304688 Z M 1927.429688 1436.933594 " fill-opacity="1" fill-rule="nonzero"/></g></g><g clip-path="url(#6cad78458a)"><path fill="#3f51b5" d="M 1461.53125 1159.050781 L 1461.53125 1158.660156 C 1452.441406 1155.804688 1442.769531 1154.253906 1432.734375 1154.253906 C 1379.710938 1154.253906 1336.734375 1197.230469 1336.734375 1250.253906 C 1336.734375 1253.492188 1336.90625 1256.695312 1337.21875 1259.851562 L 1461.53125 1259.851562 Z M 1461.53125 1159.050781 " fill-opacity="1" fill-rule="nonzero"/></g><path fill="#eceff1" d="M 1461.53125 1187.851562 L 1505.597656 1187.851562 C 1501.003906 1182.496094 1495.8125 1177.691406 1490.15625 1173.453125 L 1461.53125 1173.453125 Z M 1461.53125 1187.851562 " fill-opacity="1" fill-rule="nonzero"/><g clip-path="url(#d7c3df09a2)"><path fill="#eceff1" d="M 1528.246094 1259.851562 L 1337.21875 1259.851562 C 1337.707031 1264.785156 1338.671875 1269.566406 1339.882812 1274.253906 L 1525.589844 1274.253906 C 1526.792969 1269.566406 1527.757812 1264.785156 1528.246094 1259.851562 Z M 1528.246094 1259.851562 " fill-opacity="1" fill-rule="nonzero"/></g><path fill="#eceff1" d="M 1501.234375 1317.453125 L 1364.230469 1317.453125 C 1369.640625 1322.96875 1375.742188 1327.769531 1382.34375 1331.851562 L 1483.125 1331.851562 C 1489.722656 1327.769531 1495.824219 1322.96875 1501.234375 1317.453125 Z M 1501.234375 1317.453125 " fill-opacity="1" fill-rule="nonzero"/><path fill="#eceff1" d="M 1520.691406 1288.652344 L 1344.773438 1288.652344 C 1346.976562 1293.691406 1349.597656 1298.507812 1352.597656 1303.050781 L 1512.867188 1303.050781 C 1515.867188 1298.507812 1518.484375 1293.691406 1520.691406 1288.652344 Z M 1520.691406 1288.652344 " fill-opacity="1" fill-rule="nonzero"/><path fill="#eceff1" d="M 1461.53125 1216.652344 L 1522.570312 1216.652344 C 1520.691406 1211.640625 1518.4375 1206.828125 1515.789062 1202.253906 L 1461.53125 1202.253906 Z M 1461.53125 1216.652344 " fill-opacity="1" fill-rule="nonzero"/><g clip-path="url(#948704ee03)"><path fill="#eceff1" d="M 1461.53125 1245.453125 L 1528.492188 1245.453125 C 1528.246094 1240.554688 1527.757812 1235.726562 1526.808594 1231.050781 L 1461.53125 1231.050781 Z M 1461.53125 1245.453125 " fill-opacity="1" fill-rule="nonzero"/></g><path fill="#f44336" d="M 1461.53125 1173.453125 L 1490.160156 1173.453125 C 1481.890625 1167.261719 1472.636719 1162.335938 1462.601562 1159.050781 L 1461.53125 1159.050781 Z M 1461.53125 1173.453125 " fill-opacity="1" fill-rule="nonzero"/><path fill="#f44336" d="M 1461.53125 1202.253906 L 1515.789062 1202.253906 C 1512.824219 1197.136719 1509.421875 1192.316406 1505.601562 1187.851562 L 1461.53125 1187.851562 Z M 1461.53125 1202.253906 " fill-opacity="1" fill-rule="nonzero"/><path fill="#f44336" d="M 1461.53125 1231.050781 L 1526.804688 1231.050781 C 1525.796875 1226.089844 1524.308594 1221.308594 1522.566406 1216.652344 L 1461.53125 1216.652344 Z M 1461.53125 1231.050781 " fill-opacity="1" fill-rule="nonzero"/><g clip-path="url(#f5a3b1e18e)"><path fill="#f44336" d="M 1461.53125 1259.851562 L 1528.246094 1259.851562 C 1528.558594 1256.695312 1528.734375 1253.492188 1528.734375 1250.253906 C 1528.734375 1248.628906 1528.570312 1247.050781 1528.492188 1245.453125 L 1461.53125 1245.453125 Z M 1461.53125 1259.851562 " fill-opacity="1" fill-rule="nonzero"/></g><path fill="#f44336" d="M 1525.585938 1274.253906 L 1339.882812 1274.253906 C 1341.160156 1279.210938 1342.757812 1284.039062 1344.777344 1288.652344 L 1520.691406 1288.652344 C 1522.707031 1284.039062 1524.308594 1279.210938 1525.585938 1274.253906 Z M 1525.585938 1274.253906 " fill-opacity="1" fill-rule="nonzero"/><path fill="#f44336" d="M 1512.867188 1303.050781 L 1352.597656 1303.050781 C 1356.007812 1308.226562 1359.90625 1313.046875 1364.230469 1317.453125 L 1501.238281 1317.453125 C 1505.558594 1313.046875 1509.457031 1308.226562 1512.867188 1303.050781 Z M 1512.867188 1303.050781 " fill-opacity="1" fill-rule="nonzero"/><g clip-path="url(#8374b628e5)"><path fill="#f44336" d="M 1382.34375 1331.851562 C 1397 1340.925781 1414.222656 1346.253906 1432.734375 1346.253906 C 1451.242188 1346.253906 1468.464844 1340.925781 1483.125 1331.851562 Z M 1382.34375 1331.851562 " fill-opacity="1" fill-rule="nonzero"/></g><path fill="#ffffff" d="M 1366.734375 1197.453125 L 1368.964844 1202.195312 L 1373.933594 1202.945312 L 1370.332031 1206.640625 L 1371.195312 1211.851562 L 1366.734375 1209.394531 L 1362.269531 1211.851562 L 1363.132812 1206.640625 L 1359.53125 1202.945312 L 1364.5 1202.195312 Z M 1366.734375 1197.453125 " fill-opacity="1" fill-rule="nonzero"/><path fill="#ffffff" d="M 1385.933594 1197.453125 L 1388.164062 1202.195312 L 1393.132812 1202.945312 L 1389.53125 1206.640625 L 1390.398438 1211.851562 L 1385.933594 1209.394531 L 1381.46875 1211.851562 L 1382.332031 1206.640625 L 1378.734375 1202.945312 L 1383.699219 1202.195312 Z M 1385.933594 1197.453125 " fill-opacity="1" fill-rule="nonzero"/><path fill="#ffffff" d="M 1347.53125 1209.394531 L 1351.996094 1211.851562 L 1351.132812 1206.640625 L 1354.734375 1202.945312 L 1349.765625 1202.195312 L 1349.746094 1202.148438 C 1348.160156 1204.875 1346.707031 1207.679688 1345.390625 1210.570312 Z M 1347.53125 1209.394531 " fill-opacity="1" fill-rule="nonzero"/><path fill="#ffffff" d="M 1405.132812 1197.453125 L 1407.363281 1202.195312 L 1412.332031 1202.945312 L 1408.734375 1206.640625 L 1409.597656 1211.851562 L 1405.132812 1209.394531 L 1400.667969 1211.851562 L 1401.53125 1206.640625 L 1397.933594 1202.945312 L 1402.902344 1202.195312 Z M 1405.132812 1197.453125 " fill-opacity="1" fill-rule="nonzero"/><path fill="#ffffff" d="M 1424.332031 1197.453125 L 1426.566406 1202.195312 L 1431.53125 1202.945312 L 1427.933594 1206.640625 L 1428.796875 1211.851562 L 1424.332031 1209.394531 L 1419.867188 1211.851562 L 1420.734375 1206.640625 L 1417.132812 1202.945312 L 1422.101562 1202.195312 Z M 1424.332031 1197.453125 " fill-opacity="1" fill-rule="nonzero"/><path fill="#ffffff" d="M 1442.332031 1197.453125 L 1444.566406 1202.195312 L 1449.53125 1202.945312 L 1445.933594 1206.640625 L 1446.796875 1211.851562 L 1442.332031 1209.394531 L 1437.867188 1211.851562 L 1438.734375 1206.640625 L 1435.132812 1202.945312 L 1440.101562 1202.195312 Z M 1442.332031 1197.453125 " fill-opacity="1" fill-rule="nonzero"/><path fill="#ffffff" d="M 1366.734375 1235.851562 L 1368.964844 1240.59375 L 1373.933594 1241.34375 L 1370.332031 1245.039062 L 1371.195312 1250.253906 L 1366.734375 1247.796875 L 1362.269531 1250.253906 L 1363.132812 1245.039062 L 1359.53125 1241.34375 L 1364.5 1240.59375 Z M 1366.734375 1235.851562 " fill-opacity="1" fill-rule="nonzero"/><path fill="#ffffff" d="M 1385.933594 1235.851562 L 1388.164062 1240.59375 L 1393.132812 1241.34375 L 1389.53125 1245.039062 L 1390.398438 1250.253906 L 1385.933594 1247.796875 L 1381.46875 1250.253906 L 1382.332031 1245.039062 L 1378.734375 1241.34375 L 1383.699219 1240.59375 Z M 1385.933594 1235.851562 " fill-opacity="1" fill-rule="nonzero"/><path fill="#ffffff" d="M 1405.132812 1235.851562 L 1407.363281 1240.59375 L 1412.332031 1241.34375 L 1408.734375 1245.039062 L 1409.597656 1250.253906 L 1405.132812 1247.796875 L 1400.667969 1250.253906 L 1401.53125 1245.039062 L 1397.933594 1241.34375 L 1402.902344 1240.59375 Z M 1405.132812 1235.851562 " fill-opacity="1" fill-rule="nonzero"/><path fill="#ffffff" d="M 1347.53125 1235.851562 L 1349.765625 1240.59375 L 1354.734375 1241.34375 L 1351.132812 1245.039062 L 1351.996094 1250.253906 L 1347.53125 1247.796875 L 1343.070312 1250.253906 L 1343.933594 1245.039062 L 1340.332031 1241.34375 L 1345.300781 1240.59375 Z M 1347.53125 1235.851562 " fill-opacity="1" fill-rule="nonzero"/><path fill="#ffffff" d="M 1424.332031 1235.851562 L 1426.566406 1240.59375 L 1431.53125 1241.34375 L 1427.933594 1245.039062 L 1428.796875 1250.253906 L 1424.332031 1247.796875 L 1419.867188 1250.253906 L 1420.734375 1245.039062 L 1417.132812 1241.34375 L 1422.101562 1240.59375 Z M 1424.332031 1235.851562 " fill-opacity="1" fill-rule="nonzero"/><path fill="#ffffff" d="M 1442.332031 1235.851562 L 1444.566406 1240.59375 L 1449.53125 1241.34375 L 1445.933594 1245.039062 L 1446.796875 1250.253906 L 1442.332031 1247.796875 L 1437.867188 1250.253906 L 1438.734375 1245.039062 L 1435.132812 1241.34375 L 1440.101562 1240.59375 Z M 1442.332031 1235.851562 " fill-opacity="1" fill-rule="nonzero"/><path fill="#ffffff" d="M 1371.53125 1216.652344 L 1373.765625 1221.394531 L 1378.734375 1222.144531 L 1375.132812 1225.839844 L 1375.996094 1231.050781 L 1371.53125 1228.59375 L 1367.070312 1231.050781 L 1367.933594 1225.839844 L 1364.332031 1222.144531 L 1369.300781 1221.394531 Z M 1371.53125 1216.652344 " fill-opacity="1" fill-rule="nonzero"/><path fill="#ffffff" d="M 1390.734375 1216.652344 L 1392.964844 1221.394531 L 1397.933594 1222.144531 L 1394.332031 1225.839844 L 1395.195312 1231.050781 L 1390.734375 1228.59375 L 1386.269531 1231.050781 L 1387.132812 1225.839844 L 1383.53125 1222.144531 L 1388.5 1221.394531 Z M 1390.734375 1216.652344 " fill-opacity="1" fill-rule="nonzero"/><path fill="#ffffff" d="M 1352.332031 1216.652344 L 1354.566406 1221.394531 L 1359.53125 1222.144531 L 1355.933594 1225.839844 L 1356.796875 1231.050781 L 1352.332031 1228.59375 L 1347.867188 1231.050781 L 1348.734375 1225.839844 L 1345.132812 1222.144531 L 1350.101562 1221.394531 Z M 1352.332031 1216.652344 " fill-opacity="1" fill-rule="nonzero"/><path fill="#ffffff" d="M 1409.933594 1216.652344 L 1412.164062 1221.394531 L 1417.132812 1222.144531 L 1413.53125 1225.839844 L 1414.398438 1231.050781 L 1409.933594 1228.59375 L 1405.46875 1231.050781 L 1406.332031 1225.839844 L 1402.734375 1222.144531 L 1407.699219 1221.394531 Z M 1409.933594 1216.652344 " fill-opacity="1" fill-rule="nonzero"/><path fill="#ffffff" d="M 1429.132812 1216.652344 L 1431.363281 1221.394531 L 1436.332031 1222.144531 L 1432.734375 1225.839844 L 1433.597656 1231.050781 L 1429.132812 1228.59375 L 1424.667969 1231.050781 L 1425.53125 1225.839844 L 1421.933594 1222.144531 L 1426.902344 1221.394531 Z M 1429.132812 1216.652344 " fill-opacity="1" fill-rule="nonzero"/><path fill="#ffffff" d="M 1447.132812 1216.652344 L 1449.363281 1221.394531 L 1454.332031 1222.144531 L 1450.734375 1225.839844 L 1451.597656 1231.050781 L 1447.132812 1228.59375 L 1442.667969 1231.050781 L 1443.53125 1225.839844 L 1439.933594 1222.144531 L 1444.902344 1221.394531 Z M 1447.132812 1216.652344 " fill-opacity="1" fill-rule="nonzero"/><path fill="#ffffff" d="M 1371.53125 1178.253906 L 1373.765625 1182.996094 L 1378.734375 1183.742188 L 1375.132812 1187.441406 L 1375.996094 1192.652344 L 1371.53125 1190.195312 L 1367.070312 1192.652344 L 1367.933594 1187.441406 L 1364.332031 1183.742188 L 1369.300781 1182.996094 Z M 1371.53125 1178.253906 " fill-opacity="1" fill-rule="nonzero"/><path fill="#ffffff" d="M 1390.734375 1178.253906 L 1392.964844 1182.996094 L 1397.933594 1183.742188 L 1394.332031 1187.441406 L 1395.195312 1192.652344 L 1390.734375 1190.195312 L 1386.269531 1192.652344 L 1387.132812 1187.441406 L 1383.53125 1183.742188 L 1388.5 1182.996094 Z M 1390.734375 1178.253906 " fill-opacity="1" fill-rule="nonzero"/><path fill="#ffffff" d="M 1409.933594 1178.253906 L 1412.164062 1182.996094 L 1417.132812 1183.742188 L 1413.53125 1187.441406 L 1414.398438 1192.652344 L 1409.933594 1190.195312 L 1405.46875 1192.652344 L 1406.332031 1187.441406 L 1402.734375 1183.742188 L 1407.699219 1182.996094 Z M 1409.933594 1178.253906 " fill-opacity="1" fill-rule="nonzero"/><path fill="#ffffff" d="M 1429.132812 1178.253906 L 1431.363281 1182.996094 L 1436.332031 1183.742188 L 1432.734375 1187.441406 L 1433.597656 1192.652344 L 1429.132812 1190.195312 L 1424.667969 1192.652344 L 1425.53125 1187.441406 L 1421.933594 1183.742188 L 1426.902344 1182.996094 Z M 1429.132812 1178.253906 " fill-opacity="1" fill-rule="nonzero"/><path fill="#ffffff" d="M 1447.132812 1178.253906 L 1449.363281 1182.996094 L 1454.332031 1183.742188 L 1450.734375 1187.441406 L 1451.597656 1192.652344 L 1447.132812 1190.195312 L 1442.667969 1192.652344 L 1443.53125 1187.441406 L 1439.933594 1183.742188 L 1444.902344 1182.996094 Z M 1447.132812 1178.253906 " fill-opacity="1" fill-rule="nonzero"/><path fill="#ffffff" d="M 1390.398438 1173.453125 L 1389.53125 1168.238281 L 1393.132812 1164.542969 L 1390.488281 1164.144531 C 1387.660156 1165.53125 1384.921875 1167.054688 1382.257812 1168.707031 L 1381.46875 1173.453125 L 1385.933594 1170.996094 Z M 1390.398438 1173.453125 " fill-opacity="1" fill-rule="nonzero"/><path fill="#ffffff" d="M 1405.132812 1159.050781 L 1407.363281 1163.796875 L 1412.332031 1164.542969 L 1408.734375 1168.238281 L 1409.597656 1173.453125 L 1405.132812 1170.996094 L 1400.667969 1173.453125 L 1401.53125 1168.238281 L 1397.933594 1164.542969 L 1402.902344 1163.796875 Z M 1405.132812 1159.050781 " fill-opacity="1" fill-rule="nonzero"/><path fill="#ffffff" d="M 1424.332031 1159.050781 L 1426.566406 1163.796875 L 1431.53125 1164.542969 L 1427.933594 1168.238281 L 1428.796875 1173.453125 L 1424.332031 1170.996094 L 1419.867188 1173.453125 L 1420.734375 1168.238281 L 1417.132812 1164.542969 L 1422.101562 1163.796875 Z M 1424.332031 1159.050781 " fill-opacity="1" fill-rule="nonzero"/><path fill="#ffffff" d="M 1442.332031 1159.050781 L 1444.566406 1163.796875 L 1449.53125 1164.546875 L 1445.933594 1168.246094 L 1446.796875 1173.453125 L 1442.332031 1170.996094 L 1437.867188 1173.453125 L 1438.734375 1168.238281 L 1435.132812 1164.542969 L 1440.101562 1163.796875 Z M 1442.332031 1159.050781 " fill-opacity="1" fill-rule="nonzero"/><g clip-path="url(#50872d9530)"><path fill="#ed1d24" d="M 1429.167969 1353.71875 C 1430.296875 1353.71875 1431.421875 1353.695312 1432.546875 1353.65625 L 1425.785156 1353.65625 C 1426.910156 1353.695312 1428.035156 1353.71875 1429.167969 1353.71875 " fill-opacity="1" fill-rule="nonzero"/></g><g clip-path="url(#5a5e949518)"><path fill="#ed1d24" d="M 1336.09375 1218.050781 C 1331.789062 1229.195312 1329.421875 1241.308594 1329.421875 1253.980469 C 1329.421875 1266.621094 1331.78125 1278.714844 1336.070312 1289.847656 L 1522.253906 1289.847656 C 1526.546875 1278.714844 1528.90625 1266.621094 1528.90625 1253.980469 C 1528.90625 1241.308594 1526.539062 1229.195312 1522.234375 1218.050781 L 1336.09375 1218.050781 " fill-opacity="1" fill-rule="nonzero"/></g><g clip-path="url(#d89be68bf6)"><path fill="#100f0d" d="M 1429.167969 1154.234375 C 1386.746094 1154.234375 1350.515625 1180.714844 1336.09375 1218.050781 L 1522.234375 1218.050781 C 1507.8125 1180.714844 1471.582031 1154.234375 1429.167969 1154.234375 " fill-opacity="1" fill-rule="nonzero"/></g><g clip-path="url(#b460e78824)"><path fill="#f7ed08" d="M 1425.785156 1353.65625 L 1432.546875 1353.65625 C 1473.519531 1352.289062 1508.230469 1326.210938 1522.253906 1289.847656 L 1336.070312 1289.847656 C 1350.097656 1326.210938 1384.808594 1352.289062 1425.785156 1353.65625 " fill-opacity="1" fill-rule="nonzero"/></g><g clip-path="url(#3539b77f40)"><path fill="#3f51b5" d="M 1459.117188 1159.238281 L 1459.117188 1158.832031 C 1449.667969 1155.863281 1439.621094 1154.253906 1429.191406 1154.253906 C 1374.097656 1154.253906 1329.441406 1198.910156 1329.441406 1254.003906 C 1329.441406 1257.367188 1329.621094 1260.695312 1329.945312 1263.976562 L 1459.117188 1263.976562 Z M 1459.117188 1159.238281 " fill-opacity="1" fill-rule="nonzero"/></g><path fill="#eceff1" d="M 1459.117188 1189.164062 L 1504.902344 1189.164062 C 1500.128906 1183.597656 1494.738281 1178.605469 1488.855469 1174.203125 L 1459.117188 1174.203125 Z M 1459.117188 1189.164062 " fill-opacity="1" fill-rule="nonzero"/><g clip-path="url(#d129d95036)"><path fill="#eceff1" d="M 1528.4375 1263.976562 L 1329.945312 1263.976562 C 1330.453125 1269.105469 1331.457031 1274.074219 1332.710938 1278.941406 L 1525.675781 1278.941406 C 1526.925781 1274.074219 1527.929688 1269.105469 1528.4375 1263.976562 Z M 1528.4375 1263.976562 " fill-opacity="1" fill-rule="nonzero"/></g><path fill="#eceff1" d="M 1500.367188 1323.828125 L 1358.015625 1323.828125 C 1363.636719 1329.558594 1369.972656 1334.546875 1376.832031 1338.789062 L 1481.550781 1338.789062 C 1488.40625 1334.546875 1494.746094 1329.558594 1500.367188 1323.828125 Z M 1500.367188 1323.828125 " fill-opacity="1" fill-rule="nonzero"/><path fill="#eceff1" d="M 1520.585938 1293.902344 L 1337.792969 1293.902344 C 1340.085938 1299.140625 1342.808594 1304.140625 1345.925781 1308.863281 L 1512.457031 1308.863281 C 1515.574219 1304.140625 1518.292969 1299.140625 1520.585938 1293.902344 Z M 1520.585938 1293.902344 " fill-opacity="1" fill-rule="nonzero"/><path fill="#eceff1" d="M 1459.117188 1219.089844 L 1522.535156 1219.089844 C 1520.585938 1213.882812 1518.242188 1208.878906 1515.488281 1204.128906 L 1459.117188 1204.128906 Z M 1459.117188 1219.089844 " fill-opacity="1" fill-rule="nonzero"/><g clip-path="url(#a145d1e6e8)"><path fill="#eceff1" d="M 1459.117188 1249.015625 L 1528.691406 1249.015625 C 1528.4375 1243.929688 1527.929688 1238.910156 1526.941406 1234.050781 L 1459.117188 1234.050781 Z M 1459.117188 1249.015625 " fill-opacity="1" fill-rule="nonzero"/></g><path fill="#f44336" d="M 1459.117188 1174.203125 L 1488.859375 1174.203125 C 1480.269531 1167.769531 1470.652344 1162.652344 1460.226562 1159.238281 L 1459.117188 1159.238281 Z M 1459.117188 1174.203125 " fill-opacity="1" fill-rule="nonzero"/><path fill="#f44336" d="M 1459.117188 1204.128906 L 1515.488281 1204.128906 C 1512.414062 1198.8125 1508.875 1193.804688 1504.90625 1189.164062 L 1459.117188 1189.164062 Z M 1459.117188 1204.128906 " fill-opacity="1" fill-rule="nonzero"/><path fill="#f44336" d="M 1459.117188 1234.050781 L 1526.9375 1234.050781 C 1525.886719 1228.894531 1524.34375 1223.929688 1522.53125 1219.089844 L 1459.117188 1219.089844 Z M 1459.117188 1234.050781 " fill-opacity="1" fill-rule="nonzero"/><g clip-path="url(#967b811f87)"><path fill="#f44336" d="M 1459.117188 1263.976562 L 1528.4375 1263.976562 C 1528.761719 1260.695312 1528.941406 1257.367188 1528.941406 1254.003906 C 1528.941406 1252.316406 1528.769531 1250.675781 1528.691406 1249.015625 L 1459.117188 1249.015625 Z M 1459.117188 1263.976562 " fill-opacity="1" fill-rule="nonzero"/></g><path fill="#f44336" d="M 1525.667969 1278.941406 L 1332.710938 1278.941406 C 1334.039062 1284.09375 1335.699219 1289.109375 1337.800781 1293.902344 L 1520.585938 1293.902344 C 1522.679688 1289.109375 1524.34375 1284.09375 1525.667969 1278.941406 Z M 1525.667969 1278.941406 " fill-opacity="1" fill-rule="nonzero"/><path fill="#f44336" d="M 1512.457031 1308.863281 L 1345.925781 1308.863281 C 1349.46875 1314.242188 1353.519531 1319.25 1358.015625 1323.828125 L 1500.371094 1323.828125 C 1504.859375 1319.25 1508.910156 1314.242188 1512.457031 1308.863281 Z M 1512.457031 1308.863281 " fill-opacity="1" fill-rule="nonzero"/><g clip-path="url(#778b148e73)"><path fill="#f44336" d="M 1376.832031 1338.789062 C 1392.0625 1348.214844 1409.957031 1353.753906 1429.191406 1353.753906 C 1448.421875 1353.753906 1466.316406 1348.214844 1481.550781 1338.789062 Z M 1376.832031 1338.789062 " fill-opacity="1" fill-rule="nonzero"/></g><path fill="#ffffff" d="M 1360.613281 1199.140625 L 1362.933594 1204.066406 L 1368.09375 1204.847656 L 1364.351562 1208.6875 L 1365.25 1214.101562 L 1360.613281 1211.550781 L 1355.972656 1214.101562 L 1356.871094 1208.6875 L 1353.132812 1204.847656 L 1358.292969 1204.066406 Z M 1360.613281 1199.140625 " fill-opacity="1" fill-rule="nonzero"/><path fill="#ffffff" d="M 1380.5625 1199.140625 L 1382.882812 1204.066406 L 1388.042969 1204.847656 L 1384.304688 1208.6875 L 1385.199219 1214.101562 L 1380.5625 1211.550781 L 1375.925781 1214.101562 L 1376.820312 1208.6875 L 1373.082031 1204.847656 L 1378.242188 1204.066406 Z M 1380.5625 1199.140625 " fill-opacity="1" fill-rule="nonzero"/><path fill="#ffffff" d="M 1340.664062 1211.550781 L 1345.300781 1214.101562 L 1344.402344 1208.6875 L 1348.144531 1204.847656 L 1342.980469 1204.066406 L 1342.960938 1204.019531 C 1341.316406 1206.851562 1339.804688 1209.769531 1338.4375 1212.769531 Z M 1340.664062 1211.550781 " fill-opacity="1" fill-rule="nonzero"/><path fill="#ffffff" d="M 1400.511719 1199.140625 L 1402.832031 1204.066406 L 1407.992188 1204.847656 L 1404.253906 1208.6875 L 1405.152344 1214.101562 L 1400.511719 1211.550781 L 1395.875 1214.101562 L 1396.773438 1208.6875 L 1393.03125 1204.847656 L 1398.195312 1204.066406 Z M 1400.511719 1199.140625 " fill-opacity="1" fill-rule="nonzero"/><path fill="#ffffff" d="M 1420.460938 1199.140625 L 1422.78125 1204.066406 L 1427.945312 1204.847656 L 1424.203125 1208.6875 L 1425.101562 1214.101562 L 1420.460938 1211.550781 L 1415.824219 1214.101562 L 1416.722656 1208.6875 L 1412.980469 1204.847656 L 1418.144531 1204.066406 Z M 1420.460938 1199.140625 " fill-opacity="1" fill-rule="nonzero"/><path fill="#ffffff" d="M 1439.164062 1199.140625 L 1441.484375 1204.066406 L 1446.648438 1204.847656 L 1442.90625 1208.6875 L 1443.804688 1214.101562 L 1439.164062 1211.550781 L 1434.527344 1214.101562 L 1435.425781 1208.6875 L 1431.683594 1204.847656 L 1436.847656 1204.066406 Z M 1439.164062 1199.140625 " fill-opacity="1" fill-rule="nonzero"/><path fill="#ffffff" d="M 1360.613281 1239.039062 L 1362.933594 1243.96875 L 1368.09375 1244.746094 L 1364.351562 1248.585938 L 1365.25 1254.003906 L 1360.613281 1251.449219 L 1355.972656 1254.003906 L 1356.871094 1248.585938 L 1353.132812 1244.746094 L 1358.292969 1243.96875 Z M 1360.613281 1239.039062 " fill-opacity="1" fill-rule="nonzero"/><path fill="#ffffff" d="M 1380.5625 1239.039062 L 1382.882812 1243.96875 L 1388.042969 1244.746094 L 1384.304688 1248.585938 L 1385.199219 1254.003906 L 1380.5625 1251.449219 L 1375.925781 1254.003906 L 1376.820312 1248.585938 L 1373.082031 1244.746094 L 1378.242188 1243.96875 Z M 1380.5625 1239.039062 " fill-opacity="1" fill-rule="nonzero"/><path fill="#ffffff" d="M 1400.511719 1239.039062 L 1402.832031 1243.96875 L 1407.992188 1244.746094 L 1404.253906 1248.585938 L 1405.152344 1254.003906 L 1400.511719 1251.449219 L 1395.875 1254.003906 L 1396.773438 1248.585938 L 1393.03125 1244.746094 L 1398.195312 1243.96875 Z M 1400.511719 1239.039062 " fill-opacity="1" fill-rule="nonzero"/><path fill="#ffffff" d="M 1340.664062 1239.039062 L 1342.980469 1243.96875 L 1348.144531 1244.746094 L 1344.402344 1248.585938 L 1345.300781 1254.003906 L 1340.664062 1251.449219 L 1336.023438 1254.003906 L 1336.921875 1248.585938 L 1333.179688 1244.746094 L 1338.34375 1243.96875 Z M 1340.664062 1239.039062 " fill-opacity="1" fill-rule="nonzero"/><path fill="#ffffff" d="M 1420.460938 1239.039062 L 1422.78125 1243.96875 L 1427.945312 1244.746094 L 1424.203125 1248.585938 L 1425.101562 1254.003906 L 1420.460938 1251.449219 L 1415.824219 1254.003906 L 1416.722656 1248.585938 L 1412.980469 1244.746094 L 1418.144531 1243.96875 Z M 1420.460938 1239.039062 " fill-opacity="1" fill-rule="nonzero"/><path fill="#ffffff" d="M 1439.164062 1239.039062 L 1441.484375 1243.96875 L 1446.648438 1244.746094 L 1442.90625 1248.585938 L 1443.804688 1254.003906 L 1439.164062 1251.449219 L 1434.527344 1254.003906 L 1435.425781 1248.585938 L 1431.683594 1244.746094 L 1436.847656 1243.96875 Z M 1439.164062 1239.039062 " fill-opacity="1" fill-rule="nonzero"/><path fill="#ffffff" d="M 1365.601562 1219.089844 L 1367.917969 1224.019531 L 1373.082031 1224.796875 L 1369.339844 1228.636719 L 1370.238281 1234.050781 L 1365.601562 1231.5 L 1360.960938 1234.050781 L 1361.859375 1228.636719 L 1358.117188 1224.796875 L 1363.28125 1224.019531 Z M 1365.601562 1219.089844 " fill-opacity="1" fill-rule="nonzero"/><path fill="#ffffff" d="M 1385.550781 1219.089844 L 1387.871094 1224.019531 L 1393.03125 1224.796875 L 1389.289062 1228.636719 L 1390.1875 1234.050781 L 1385.550781 1231.5 L 1380.910156 1234.050781 L 1381.808594 1228.636719 L 1378.070312 1224.796875 L 1383.230469 1224.019531 Z M 1385.550781 1219.089844 " fill-opacity="1" fill-rule="nonzero"/><path fill="#ffffff" d="M 1345.648438 1219.089844 L 1347.96875 1224.019531 L 1353.132812 1224.796875 L 1349.390625 1228.636719 L 1350.289062 1234.050781 L 1345.648438 1231.5 L 1341.011719 1234.050781 L 1341.910156 1228.636719 L 1338.167969 1224.796875 L 1343.332031 1224.019531 Z M 1345.648438 1219.089844 " fill-opacity="1" fill-rule="nonzero"/><path fill="#ffffff" d="M 1405.5 1219.089844 L 1407.820312 1224.019531 L 1412.980469 1224.796875 L 1409.242188 1228.636719 L 1410.136719 1234.050781 L 1405.5 1231.5 L 1400.863281 1234.050781 L 1401.757812 1228.636719 L 1398.019531 1224.796875 L 1403.179688 1224.019531 Z M 1405.5 1219.089844 " fill-opacity="1" fill-rule="nonzero"/><path fill="#ffffff" d="M 1425.449219 1219.089844 L 1427.769531 1224.019531 L 1432.929688 1224.796875 L 1429.191406 1228.636719 L 1430.089844 1234.050781 L 1425.449219 1231.5 L 1420.8125 1234.050781 L 1421.710938 1228.636719 L 1417.96875 1224.796875 L 1423.132812 1224.019531 Z M 1425.449219 1219.089844 " fill-opacity="1" fill-rule="nonzero"/><path fill="#ffffff" d="M 1444.152344 1219.089844 L 1446.472656 1224.019531 L 1451.632812 1224.796875 L 1447.894531 1228.636719 L 1448.792969 1234.050781 L 1444.152344 1231.5 L 1439.515625 1234.050781 L 1440.414062 1228.636719 L 1436.671875 1224.796875 L 1441.835938 1224.019531 Z M 1444.152344 1219.089844 " fill-opacity="1" fill-rule="nonzero"/><path fill="#ffffff" d="M 1365.601562 1179.191406 L 1367.917969 1184.117188 L 1373.082031 1184.894531 L 1369.339844 1188.734375 L 1370.238281 1194.152344 L 1365.601562 1191.597656 L 1360.960938 1194.152344 L 1361.859375 1188.734375 L 1358.117188 1184.894531 L 1363.28125 1184.117188 Z M 1365.601562 1179.191406 " fill-opacity="1" fill-rule="nonzero"/><path fill="#ffffff" d="M 1385.550781 1179.191406 L 1387.871094 1184.117188 L 1393.03125 1184.894531 L 1389.289062 1188.734375 L 1390.1875 1194.152344 L 1385.550781 1191.597656 L 1380.910156 1194.152344 L 1381.808594 1188.734375 L 1378.070312 1184.894531 L 1383.230469 1184.117188 Z M 1385.550781 1179.191406 " fill-opacity="1" fill-rule="nonzero"/><path fill="#ffffff" d="M 1405.5 1179.191406 L 1407.820312 1184.117188 L 1412.980469 1184.894531 L 1409.242188 1188.734375 L 1410.136719 1194.152344 L 1405.5 1191.597656 L 1400.863281 1194.152344 L 1401.757812 1188.734375 L 1398.019531 1184.894531 L 1403.179688 1184.117188 Z M 1405.5 1179.191406 " fill-opacity="1" fill-rule="nonzero"/><path fill="#ffffff" d="M 1425.449219 1179.191406 L 1427.769531 1184.117188 L 1432.929688 1184.894531 L 1429.191406 1188.734375 L 1430.089844 1194.152344 L 1425.449219 1191.597656 L 1420.8125 1194.152344 L 1421.710938 1188.734375 L 1417.96875 1184.894531 L 1423.132812 1184.117188 Z M 1425.449219 1179.191406 " fill-opacity="1" fill-rule="nonzero"/><path fill="#ffffff" d="M 1444.152344 1179.191406 L 1446.472656 1184.117188 L 1451.632812 1184.894531 L 1447.894531 1188.734375 L 1448.792969 1194.152344 L 1444.152344 1191.597656 L 1439.515625 1194.152344 L 1440.414062 1188.734375 L 1436.671875 1184.894531 L 1441.835938 1184.117188 Z M 1444.152344 1179.191406 " fill-opacity="1" fill-rule="nonzero"/><path fill="#ffffff" d="M 1385.199219 1174.203125 L 1384.304688 1168.785156 L 1388.042969 1164.945312 L 1385.296875 1164.53125 C 1382.359375 1165.972656 1379.511719 1167.554688 1376.742188 1169.269531 L 1375.925781 1174.203125 L 1380.5625 1171.648438 Z M 1385.199219 1174.203125 " fill-opacity="1" fill-rule="nonzero"/><path fill="#ffffff" d="M 1400.511719 1159.238281 L 1402.832031 1164.167969 L 1407.992188 1164.945312 L 1404.253906 1168.785156 L 1405.152344 1174.203125 L 1400.511719 1171.648438 L 1395.875 1174.203125 L 1396.773438 1168.785156 L 1393.03125 1164.945312 L 1398.195312 1164.167969 Z M 1400.511719 1159.238281 " fill-opacity="1" fill-rule="nonzero"/><path fill="#ffffff" d="M 1420.460938 1159.238281 L 1422.78125 1164.167969 L 1427.945312 1164.945312 L 1424.203125 1168.785156 L 1425.101562 1174.203125 L 1420.460938 1171.648438 L 1415.824219 1174.203125 L 1416.722656 1168.785156 L 1412.980469 1164.945312 L 1418.144531 1164.167969 Z M 1420.460938 1159.238281 " fill-opacity="1" fill-rule="nonzero"/><path fill="#ffffff" d="M 1439.164062 1159.238281 L 1441.484375 1164.167969 L 1446.648438 1164.949219 L 1442.90625 1168.792969 L 1443.804688 1174.203125 L 1439.164062 1171.648438 L 1434.527344 1174.203125 L 1435.425781 1168.785156 L 1431.683594 1164.945312 L 1436.847656 1164.167969 Z M 1439.164062 1159.238281 " fill-opacity="1" fill-rule="nonzero"/><g clip-path="url(#a2b5b5b5c8)"><path fill="#ffffff" d="M 1531.246094 1254.058594 C 1531.246094 1310.394531 1485.582031 1356.058594 1429.246094 1356.058594 C 1372.914062 1356.058594 1327.246094 1310.394531 1327.246094 1254.058594 C 1327.246094 1197.722656 1372.914062 1152.058594 1429.246094 1152.058594 C 1485.582031 1152.058594 1531.246094 1197.722656 1531.246094 1254.058594 Z M 1531.246094 1254.058594 " fill-opacity="1" fill-rule="evenodd"/></g><g clip-path="url(#2aa75a51bc)"><path fill="#e94b35" d="M 1365.496094 1174.4375 L 1365.496094 1333.679688 C 1342.1875 1314.996094 1327.246094 1286.265625 1327.246094 1254.058594 C 1327.246094 1221.851562 1342.1875 1193.121094 1365.496094 1174.4375 Z M 1365.496094 1174.4375 " fill-opacity="1" fill-rule="evenodd"/></g><g clip-path="url(#45722bba85)"><path fill="#e94b35" d="M 1492.996094 1333.679688 L 1492.996094 1174.4375 C 1516.304688 1193.121094 1531.246094 1221.851562 1531.246094 1254.058594 C 1531.246094 1286.265625 1516.304688 1314.996094 1492.996094 1333.679688 Z M 1492.996094 1333.679688 " fill-opacity="1" fill-rule="evenodd"/></g><path fill="#e94b35" d="M 1429.246094 1209.433594 L 1422.007812 1222.890625 C 1421.191406 1224.351562 1419.707031 1224.21875 1418.246094 1223.402344 L 1413 1220.699219 L 1416.917969 1241.375 C 1417.738281 1245.160156 1415.101562 1245.160156 1413.796875 1243.523438 L 1404.65625 1233.316406 L 1403.171875 1238.496094 C 1402.996094 1239.183594 1402.242188 1239.890625 1401.113281 1239.714844 L 1389.558594 1237.300781 L 1392.589844 1248.304688 C 1393.234375 1250.761719 1393.742188 1251.777344 1391.925781 1252.421875 L 1387.808594 1254.347656 L 1407.710938 1270.460938 C 1408.507812 1271.082031 1408.90625 1272.164062 1408.617188 1273.160156 L 1406.867188 1278.871094 C 1413.730469 1278.074219 1419.863281 1276.902344 1426.722656 1276.171875 C 1427.34375 1276.105469 1428.339844 1277.101562 1428.339844 1277.789062 L 1427.433594 1298.683594 L 1430.773438 1298.683594 L 1430.242188 1277.832031 C 1430.242188 1277.144531 1431.152344 1276.105469 1431.769531 1276.171875 C 1438.632812 1276.902344 1444.765625 1278.074219 1451.625 1278.871094 L 1449.878906 1273.160156 C 1449.589844 1272.164062 1449.988281 1271.082031 1450.785156 1270.460938 L 1470.683594 1254.347656 L 1466.566406 1252.421875 C 1464.753906 1251.777344 1465.261719 1250.761719 1465.902344 1248.304688 L 1468.9375 1237.300781 L 1457.382812 1239.714844 C 1456.253906 1239.890625 1455.5 1239.183594 1455.324219 1238.496094 L 1453.839844 1233.316406 L 1444.699219 1243.523438 C 1443.390625 1245.160156 1440.757812 1245.160156 1441.578125 1241.375 L 1445.496094 1220.699219 L 1440.25 1223.402344 C 1438.789062 1224.21875 1437.304688 1224.351562 1436.484375 1222.890625 Z M 1429.246094 1209.433594 " fill-opacity="1" fill-rule="evenodd"/><g fill="#ffffff" fill-opacity="1"><g transform="translate(1577.376394, 1306.180806)"><g><path d="M 42.109375 1.9375 C 32.046875 1.9375 24.191406 -0.679688 18.546875 -5.921875 C 12.910156 -11.160156 10.09375 -18.65625 10.09375 -28.40625 C 10.09375 -34.457031 11.335938 -39.5625 13.828125 -43.71875 C 16.328125 -47.882812 20.195312 -51.273438 25.4375 -53.890625 C 30.6875 -56.515625 37.535156 -58.539062 45.984375 -59.96875 C 53.390625 -61.195312 59.019531 -62.582031 62.875 -64.125 C 66.726562 -65.664062 69.316406 -67.390625 70.640625 -69.296875 C 71.972656 -71.210938 72.640625 -73.625 72.640625 -76.53125 C 72.640625 -81.15625 71.050781 -84.703125 67.875 -87.171875 C 64.695312 -89.640625 59.59375 -90.875 52.5625 -90.875 C 45.957031 -90.875 40.296875 -89.59375 35.578125 -87.03125 C 30.859375 -84.46875 26.523438 -80.660156 22.578125 -75.609375 L 20.734375 -75.609375 L 13.328125 -86.0625 C 17.640625 -91.550781 23.128906 -95.914062 29.796875 -99.15625 C 36.460938 -102.394531 44.050781 -104.015625 52.5625 -104.015625 C 64.59375 -104.015625 73.457031 -101.375 79.15625 -96.09375 C 84.863281 -90.820312 87.71875 -83.53125 87.71875 -74.21875 L 87.71875 -20.078125 C 87.71875 -14.398438 90.125 -11.5625 94.9375 -11.5625 C 96.539062 -11.5625 98.082031 -11.84375 99.5625 -12.40625 L 100.859375 -12.03125 L 102.625 -1.578125 C 101.507812 -0.835938 100.039062 -0.269531 98.21875 0.125 C 96.40625 0.53125 94.539062 0.734375 92.625 0.734375 C 87.007812 0.734375 82.769531 -0.492188 79.90625 -2.953125 C 77.039062 -5.421875 75.207031 -9.0625 74.40625 -13.875 L 72.453125 -14.0625 C 69.554688 -8.695312 65.640625 -4.6875 60.703125 -2.03125 C 55.765625 0.613281 49.566406 1.9375 42.109375 1.9375 Z M 45.4375 -10.09375 C 51.113281 -10.09375 56.03125 -11.398438 60.1875 -14.015625 C 64.351562 -16.640625 67.546875 -20.328125 69.765625 -25.078125 C 71.992188 -29.828125 73.109375 -35.316406 73.109375 -41.546875 L 73.109375 -54.5 L 71.34375 -54.875 C 69.0625 -53.269531 66.285156 -51.925781 63.015625 -50.84375 C 59.742188 -49.769531 55.179688 -48.800781 49.328125 -47.9375 C 43.398438 -47.132812 38.691406 -45.898438 35.203125 -44.234375 C 31.722656 -42.566406 29.242188 -40.453125 27.765625 -37.890625 C 26.285156 -35.328125 25.546875 -32.164062 25.546875 -28.40625 C 25.546875 -22.425781 27.300781 -17.878906 30.8125 -14.765625 C 34.332031 -11.648438 39.207031 -10.09375 45.4375 -10.09375 Z M 45.4375 -10.09375 "/></g></g><g transform="translate(1682.96289, 1306.180806)"><g><path d="M 17.765625 0 L 17.765625 -102.0625 L 32.109375 -102.0625 L 32.109375 -86.0625 L 34.046875 -85.59375 C 37.441406 -91.582031 41.773438 -96.148438 47.046875 -99.296875 C 52.328125 -102.441406 58.757812 -104.015625 66.34375 -104.015625 C 78.625 -104.015625 87.523438 -100.878906 93.046875 -94.609375 C 98.566406 -88.347656 101.328125 -78.710938 101.328125 -65.703125 L 101.328125 0 L 86.25 0 L 86.25 -65.328125 C 86.25 -71.492188 85.460938 -76.441406 83.890625 -80.171875 C 82.316406 -83.910156 79.878906 -86.628906 76.578125 -88.328125 C 73.273438 -90.023438 68.941406 -90.875 63.578125 -90.875 C 54.378906 -90.875 46.957031 -87.832031 41.3125 -81.75 C 35.664062 -75.675781 32.84375 -65.882812 32.84375 -52.375 L 32.84375 0 Z M 17.765625 0 "/></g></g><g transform="translate(1800.48686, 1306.180806)"><g><path d="M 58.578125 1.9375 C 48.953125 1.9375 40.578125 -0.09375 33.453125 -4.15625 C 26.328125 -8.226562 20.835938 -14.226562 16.984375 -22.15625 C 13.128906 -30.082031 11.203125 -39.691406 11.203125 -50.984375 C 11.203125 -62.273438 13.128906 -71.898438 16.984375 -79.859375 C 20.835938 -87.816406 26.328125 -93.832031 33.453125 -97.90625 C 40.578125 -101.976562 48.953125 -104.015625 58.578125 -104.015625 C 68.203125 -104.015625 76.578125 -101.976562 83.703125 -97.90625 C 90.828125 -93.832031 96.316406 -87.816406 100.171875 -79.859375 C 104.023438 -71.898438 105.953125 -62.273438 105.953125 -50.984375 C 105.953125 -39.691406 104.023438 -30.082031 100.171875 -22.15625 C 96.316406 -14.226562 90.828125 -8.226562 83.703125 -4.15625 C 76.578125 -0.09375 68.203125 1.9375 58.578125 1.9375 Z M 58.578125 -11.5625 C 68.753906 -11.5625 76.539062 -14.769531 81.9375 -21.1875 C 87.332031 -27.601562 90.03125 -37.535156 90.03125 -50.984375 C 90.03125 -64.492188 87.332031 -74.457031 81.9375 -80.875 C 76.539062 -87.289062 68.753906 -90.5 58.578125 -90.5 C 48.398438 -90.5 40.59375 -87.273438 35.15625 -80.828125 C 29.726562 -74.378906 27.015625 -64.429688 27.015625 -50.984375 C 27.015625 -37.535156 29.726562 -27.601562 35.15625 -21.1875 C 40.59375 -14.769531 48.398438 -11.5625 58.578125 -11.5625 Z M 58.578125 -11.5625 "/></g></g><g transform="translate(1917.640675, 1306.180806)"><g><path d="M 17.765625 0 L 17.765625 -102.0625 L 32.109375 -102.0625 L 32.109375 -86.0625 L 34.046875 -85.59375 C 37.441406 -91.582031 41.773438 -96.148438 47.046875 -99.296875 C 52.328125 -102.441406 58.757812 -104.015625 66.34375 -104.015625 C 78.625 -104.015625 87.523438 -100.878906 93.046875 -94.609375 C 98.566406 -88.347656 101.328125 -78.710938 101.328125 -65.703125 L 101.328125 0 L 86.25 0 L 86.25 -65.328125 C 86.25 -71.492188 85.460938 -76.441406 83.890625 -80.171875 C 82.316406 -83.910156 79.878906 -86.628906 76.578125 -88.328125 C 73.273438 -90.023438 68.941406 -90.875 63.578125 -90.875 C 54.378906 -90.875 46.957031 -87.832031 41.3125 -81.75 C 35.664062 -75.675781 32.84375 -65.882812 32.84375 -52.375 L 32.84375 0 Z M 17.765625 0 "/></g></g><g transform="translate(2035.164645, 1306.180806)"><g><path d="M 20.453125 43.3125 C 16.992188 43.3125 13.769531 43.015625 10.78125 42.421875 C 7.789062 41.835938 5.210938 41.019531 3.046875 39.96875 L 5.828125 28.03125 L 7.5 27.484375 C 8.976562 28.222656 10.828125 28.851562 13.046875 29.375 C 15.265625 29.90625 17.546875 30.171875 19.890625 30.171875 C 24.023438 30.171875 27.445312 29.613281 30.15625 28.5 C 32.875 27.382812 35.203125 25.546875 37.140625 22.984375 C 39.085938 20.429688 40.894531 16.90625 42.5625 12.40625 L 46.171875 2.40625 L 5.1875 -102.0625 L 21.46875 -102.0625 L 53.578125 -18.78125 L 55.34375 -18.78125 L 86.421875 -102.0625 L 101.890625 -102.0625 L 56.265625 16.015625 C 53.671875 22.546875 50.769531 27.800781 47.5625 31.78125 C 44.351562 35.757812 40.554688 38.675781 36.171875 40.53125 C 31.796875 42.382812 26.554688 43.3125 20.453125 43.3125 Z M 20.453125 43.3125 "/></g></g><g transform="translate(2142.786988, 1306.180806)"><g><path d="M 17.765625 0 L 17.765625 -102.0625 L 32.109375 -102.0625 L 32.109375 -86.984375 L 34.046875 -86.609375 C 37.503906 -92.347656 41.6875 -96.679688 46.59375 -99.609375 C 51.5 -102.546875 57.375 -104.015625 64.21875 -104.015625 C 72.113281 -104.015625 78.21875 -102.515625 82.53125 -99.515625 C 86.851562 -96.523438 90.21875 -91.703125 92.625 -85.046875 L 94.578125 -85.046875 C 98.085938 -91.273438 102.414062 -95.992188 107.5625 -99.203125 C 112.71875 -102.410156 119.0625 -104.015625 126.59375 -104.015625 C 137.082031 -104.015625 144.898438 -101.175781 150.046875 -95.5 C 155.203125 -89.820312 157.78125 -81.1875 157.78125 -69.59375 L 157.78125 0 L 142.6875 0 L 142.6875 -69.21875 C 142.6875 -76.625 141.128906 -82.082031 138.015625 -85.59375 C 134.898438 -89.113281 129.890625 -90.875 122.984375 -90.875 C 114.835938 -90.875 108.1875 -87.910156 103.03125 -81.984375 C 97.882812 -76.066406 95.3125 -66.320312 95.3125 -52.75 L 95.3125 0 L 80.234375 0 L 80.234375 -69.21875 C 80.234375 -76.625 78.675781 -82.082031 75.5625 -85.59375 C 72.445312 -89.113281 67.429688 -90.875 60.515625 -90.875 C 52.367188 -90.875 45.71875 -88.003906 40.5625 -82.265625 C 35.414062 -76.523438 32.84375 -67.207031 32.84375 -54.3125 L 32.84375 0 Z M 17.765625 0 "/></g></g><g transform="translate(2316.759478, 1306.180806)"><g><path d="M 58.578125 1.9375 C 48.953125 1.9375 40.578125 -0.09375 33.453125 -4.15625 C 26.328125 -8.226562 20.835938 -14.226562 16.984375 -22.15625 C 13.128906 -30.082031 11.203125 -39.691406 11.203125 -50.984375 C 11.203125 -62.273438 13.128906 -71.898438 16.984375 -79.859375 C 20.835938 -87.816406 26.328125 -93.832031 33.453125 -97.90625 C 40.578125 -101.976562 48.953125 -104.015625 58.578125 -104.015625 C 68.203125 -104.015625 76.578125 -101.976562 83.703125 -97.90625 C 90.828125 -93.832031 96.316406 -87.816406 100.171875 -79.859375 C 104.023438 -71.898438 105.953125 -62.273438 105.953125 -50.984375 C 105.953125 -39.691406 104.023438 -30.082031 100.171875 -22.15625 C 96.316406 -14.226562 90.828125 -8.226562 83.703125 -4.15625 C 76.578125 -0.09375 68.203125 1.9375 58.578125 1.9375 Z M 58.578125 -11.5625 C 68.753906 -11.5625 76.539062 -14.769531 81.9375 -21.1875 C 87.332031 -27.601562 90.03125 -37.535156 90.03125 -50.984375 C 90.03125 -64.492188 87.332031 -74.457031 81.9375 -80.875 C 76.539062 -87.289062 68.753906 -90.5 58.578125 -90.5 C 48.398438 -90.5 40.59375 -87.273438 35.15625 -80.828125 C 29.726562 -74.378906 27.015625 -64.429688 27.015625 -50.984375 C 27.015625 -37.535156 29.726562 -27.601562 35.15625 -21.1875 C 40.59375 -14.769531 48.398438 -11.5625 58.578125 -11.5625 Z M 58.578125 -11.5625 "/></g></g><g transform="translate(2433.913293, 1306.180806)"><g><path d="M 50.4375 1.9375 C 38.894531 1.9375 30.300781 -1.113281 24.65625 -7.21875 C 19.007812 -13.320312 16.1875 -22.265625 16.1875 -34.046875 L 16.1875 -102.0625 L 31.28125 -102.0625 L 31.28125 -34.421875 C 31.28125 -18.941406 38.554688 -11.203125 53.109375 -11.203125 C 62.367188 -11.203125 69.679688 -14.222656 75.046875 -20.265625 C 80.410156 -26.304688 83.09375 -36.113281 83.09375 -49.6875 L 83.09375 -102.0625 L 98.1875 -102.0625 L 98.1875 0 L 83.9375 0 L 83.9375 -16.015625 L 81.984375 -16.46875 C 78.472656 -10.238281 74.265625 -5.613281 69.359375 -2.59375 C 64.453125 0.425781 58.144531 1.9375 50.4375 1.9375 Z M 50.4375 1.9375 "/></g></g><g transform="translate(2549.864108, 1306.180806)"><g><path d="M 46.546875 1.9375 C 40.128906 1.9375 34.191406 1.09375 28.734375 -0.59375 C 23.273438 -2.289062 18.660156 -4.617188 14.890625 -7.578125 C 11.128906 -10.546875 8.476562 -13.878906 6.9375 -17.578125 L 15.828125 -26.828125 L 17.765625 -26.828125 C 21.097656 -21.773438 25.109375 -17.96875 29.796875 -15.40625 C 34.484375 -12.84375 40.066406 -11.5625 46.546875 -11.5625 C 54.066406 -11.5625 59.785156 -13.023438 63.703125 -15.953125 C 67.628906 -18.890625 69.59375 -22.976562 69.59375 -28.21875 C 69.59375 -32.226562 68.40625 -35.546875 66.03125 -38.171875 C 63.65625 -40.796875 59.8125 -42.753906 54.5 -44.046875 L 37.296875 -48.296875 C 28.097656 -50.523438 21.382812 -54.046875 17.15625 -58.859375 C 12.9375 -63.671875 10.828125 -69.625 10.828125 -76.71875 C 10.828125 -82.269531 12.242188 -87.09375 15.078125 -91.1875 C 17.921875 -95.289062 22.007812 -98.453125 27.34375 -100.671875 C 32.675781 -102.898438 39.015625 -104.015625 46.359375 -104.015625 C 55.734375 -104.015625 63.117188 -102.703125 68.515625 -100.078125 C 73.921875 -97.453125 78.132812 -93.796875 81.15625 -89.109375 L 72.640625 -80.78125 L 70.796875 -80.78125 C 67.523438 -84.539062 63.957031 -87.253906 60.09375 -88.921875 C 56.238281 -90.585938 51.660156 -91.421875 46.359375 -91.421875 C 39.640625 -91.421875 34.488281 -90.21875 30.90625 -87.8125 C 27.332031 -85.40625 25.546875 -81.921875 25.546875 -77.359375 C 25.546875 -73.222656 26.804688 -69.890625 29.328125 -67.359375 C 31.859375 -64.835938 36.269531 -62.804688 42.5625 -61.265625 L 59.5 -57.1875 C 68.382812 -55.09375 74.800781 -51.609375 78.75 -46.734375 C 82.695312 -41.859375 84.671875 -35.75 84.671875 -28.40625 C 84.671875 -22.425781 83.25 -17.148438 80.40625 -12.578125 C 77.570312 -8.015625 73.285156 -4.453125 67.546875 -1.890625 C 61.816406 0.660156 54.816406 1.9375 46.546875 1.9375 Z M 46.546875 1.9375 "/></g></g><g transform="translate(2644.253439, 1306.180806)"><g><path d="M 5.828125 28.21875 C 11.191406 24.707031 15.722656 20.632812 19.421875 16 C 23.128906 11.375 25.046875 6.285156 25.171875 0.734375 C 21.523438 0.734375 18.671875 -0.25 16.609375 -2.21875 C 14.546875 -4.195312 13.515625 -6.820312 13.515625 -10.09375 C 13.515625 -13.300781 14.515625 -15.9375 16.515625 -18 C 18.523438 -20.0625 21.191406 -21.09375 24.515625 -21.09375 C 28.160156 -21.09375 31.109375 -19.828125 33.359375 -17.296875 C 35.609375 -14.773438 36.734375 -10.796875 36.734375 -5.359375 C 36.734375 4.253906 34.664062 12.347656 30.53125 18.921875 C 26.40625 25.492188 20.300781 31.492188 12.21875 36.921875 Z M 5.828125 28.21875 "/></g></g></g><g fill="#ffffff" fill-opacity="1"><g transform="translate(2694.498986, 1306.180806)"><g/></g></g><g fill="#ffffff" fill-opacity="1"><g transform="translate(2740.952813, 1306.180806)"><g><path d="M 55.703125 1.9375 C 43.054688 1.9375 32.953125 -0.867188 25.390625 -6.484375 C 17.835938 -12.097656 12.921875 -20.054688 10.640625 -30.359375 L 22.390625 -35.71875 L 24.515625 -35.34375 C 26.054688 -30.101562 28.078125 -25.816406 30.578125 -22.484375 C 33.078125 -19.148438 36.363281 -16.632812 40.4375 -14.9375 C 44.507812 -13.25 49.597656 -12.40625 55.703125 -12.40625 C 64.835938 -12.40625 71.945312 -15.132812 77.03125 -20.59375 C 82.125 -26.050781 84.671875 -33.992188 84.671875 -44.421875 C 84.671875 -55.023438 82.171875 -63.085938 77.171875 -68.609375 C 72.179688 -74.128906 65.273438 -76.890625 56.453125 -76.890625 C 49.722656 -76.890625 44.257812 -75.53125 40.0625 -72.8125 C 35.875 -70.101562 32.175781 -65.941406 28.96875 -60.328125 L 16.1875 -61.4375 L 18.78125 -135.28125 L 94.578125 -135.28125 L 94.578125 -121.78125 L 32.671875 -121.78125 L 31.09375 -76.890625 L 33.03125 -76.53125 C 36.238281 -81.21875 40.140625 -84.71875 44.734375 -87.03125 C 49.335938 -89.34375 54.847656 -90.5 61.265625 -90.5 C 69.335938 -90.5 76.378906 -88.691406 82.390625 -85.078125 C 88.410156 -81.472656 93.070312 -76.21875 96.375 -69.3125 C 99.675781 -62.40625 101.328125 -54.109375 101.328125 -44.421875 C 101.328125 -34.796875 99.429688 -26.492188 95.640625 -19.515625 C 91.847656 -12.546875 86.507812 -7.226562 79.625 -3.5625 C 72.75 0.101562 64.773438 1.9375 55.703125 1.9375 Z M 55.703125 1.9375 "/></g></g><g transform="translate(2852.924469, 1306.180806)"><g><path d="M 16.84375 19.34375 L 2.3125 19.34375 L 52.75 -143.0625 L 67.28125 -143.0625 Z M 16.84375 19.34375 "/></g></g><g transform="translate(2926.122469, 1306.180806)"><g><path d="M 9.625 0 L 9.625 -13.140625 L 46.546875 -13.140625 L 46.546875 -116.59375 L 44.421875 -117.15625 C 38.429688 -114.1875 33.1875 -111.914062 28.6875 -110.34375 C 24.1875 -108.769531 18.414062 -107.242188 11.375 -105.765625 L 11.375 -120.390625 C 18.351562 -121.867188 25.25 -123.875 32.0625 -126.40625 C 38.882812 -128.9375 45.070312 -131.894531 50.625 -135.28125 L 62.09375 -135.28125 L 62.09375 -13.140625 L 95.125 -13.140625 L 95.125 0 Z M 9.625 0 "/></g></g><g transform="translate(3026.989497, 1306.180806)"><g><path d="M 84.671875 0 L 69.59375 0 L 69.59375 -32.296875 L 6.203125 -32.296875 L 6.203125 -45.0625 L 65.890625 -135.28125 L 84.671875 -135.28125 L 84.671875 -45.0625 L 108.078125 -45.0625 L 108.078125 -32.296875 L 84.671875 -32.296875 Z M 24.890625 -47.015625 L 25.71875 -45.0625 L 69.59375 -45.0625 L 69.59375 -113.265625 L 67.453125 -113.640625 Z M 24.890625 -47.015625 "/></g></g><g transform="translate(3141.644772, 1306.180806)"><g><path d="M 16.84375 19.34375 L 2.3125 19.34375 L 52.75 -143.0625 L 67.28125 -143.0625 Z M 16.84375 19.34375 "/></g></g><g transform="translate(3214.842772, 1306.180806)"><g><path d="M 8.140625 -6.203125 C 8.140625 -13.660156 8.957031 -19.671875 10.59375 -24.234375 C 12.226562 -28.804688 15.019531 -33.066406 18.96875 -37.015625 C 22.914062 -40.960938 29.207031 -46.082031 37.84375 -52.375 L 52.75 -63.203125 C 58.238281 -67.210938 62.707031 -70.910156 66.15625 -74.296875 C 69.613281 -77.691406 72.34375 -81.378906 74.34375 -85.359375 C 76.351562 -89.335938 77.359375 -93.796875 77.359375 -98.734375 C 77.359375 -106.753906 75.226562 -112.800781 70.96875 -116.875 C 66.71875 -120.945312 60.054688 -122.984375 50.984375 -122.984375 C 43.828125 -122.984375 37.472656 -121.316406 31.921875 -117.984375 C 26.367188 -114.648438 21.925781 -109.929688 18.59375 -103.828125 L 16.46875 -103.453125 L 6.9375 -113.453125 C 11.5 -120.859375 17.5 -126.671875 24.9375 -130.890625 C 32.375 -135.117188 41.054688 -137.234375 50.984375 -137.234375 C 60.609375 -137.234375 68.597656 -135.597656 74.953125 -132.328125 C 81.304688 -129.054688 85.992188 -124.535156 89.015625 -118.765625 C 92.046875 -113.003906 93.5625 -106.328125 93.5625 -98.734375 C 93.5625 -92.691406 92.296875 -87.046875 89.765625 -81.796875 C 87.234375 -76.554688 83.65625 -71.625 79.03125 -67 C 74.40625 -62.375 68.601562 -57.5 61.625 -52.375 L 46.546875 -41.359375 C 40.929688 -37.222656 36.613281 -33.707031 33.59375 -30.8125 C 30.570312 -27.914062 28.363281 -25.09375 26.96875 -22.34375 C 25.582031 -19.601562 24.890625 -16.535156 24.890625 -13.140625 L 93.5625 -13.140625 L 93.5625 0 L 8.140625 0 Z M 8.140625 -6.203125 "/></g></g><g transform="translate(3318.856113, 1306.180806)"><g><path d="M 66.53125 1.9375 C 56.601562 1.9375 47.691406 -0.453125 39.796875 -5.234375 C 31.898438 -10.015625 25.601562 -17.597656 20.90625 -27.984375 C 16.21875 -38.378906 13.875 -51.597656 13.875 -67.640625 C 13.875 -83.679688 16.21875 -96.898438 20.90625 -107.296875 C 25.601562 -117.691406 31.898438 -125.28125 39.796875 -130.0625 C 47.691406 -134.84375 56.601562 -137.234375 66.53125 -137.234375 C 76.46875 -137.234375 85.382812 -134.84375 93.28125 -130.0625 C 101.175781 -125.28125 107.453125 -117.691406 112.109375 -107.296875 C 116.765625 -96.898438 119.09375 -83.679688 119.09375 -67.640625 C 119.09375 -51.597656 116.765625 -38.378906 112.109375 -27.984375 C 107.453125 -17.597656 101.175781 -10.015625 93.28125 -5.234375 C 85.382812 -0.453125 76.46875 1.9375 66.53125 1.9375 Z M 66.53125 -12.765625 C 78.3125 -12.765625 87.238281 -17.003906 93.3125 -25.484375 C 99.394531 -33.972656 102.4375 -48.023438 102.4375 -67.640625 C 102.4375 -87.265625 99.394531 -101.316406 93.3125 -109.796875 C 87.238281 -118.273438 78.3125 -122.515625 66.53125 -122.515625 C 58.757812 -122.515625 52.21875 -120.722656 46.90625 -117.140625 C 41.601562 -113.566406 37.546875 -107.738281 34.734375 -99.65625 C 31.929688 -91.582031 30.53125 -80.910156 30.53125 -67.640625 C 30.53125 -54.378906 31.929688 -43.707031 34.734375 -35.625 C 37.546875 -27.539062 41.601562 -21.707031 46.90625 -18.125 C 52.21875 -14.550781 58.757812 -12.765625 66.53125 -12.765625 Z M 66.53125 -12.765625 "/></g></g><g transform="translate(3451.926561, 1306.180806)"><g><path d="M 8.140625 -6.203125 C 8.140625 -13.660156 8.957031 -19.671875 10.59375 -24.234375 C 12.226562 -28.804688 15.019531 -33.066406 18.96875 -37.015625 C 22.914062 -40.960938 29.207031 -46.082031 37.84375 -52.375 L 52.75 -63.203125 C 58.238281 -67.210938 62.707031 -70.910156 66.15625 -74.296875 C 69.613281 -77.691406 72.34375 -81.378906 74.34375 -85.359375 C 76.351562 -89.335938 77.359375 -93.796875 77.359375 -98.734375 C 77.359375 -106.753906 75.226562 -112.800781 70.96875 -116.875 C 66.71875 -120.945312 60.054688 -122.984375 50.984375 -122.984375 C 43.828125 -122.984375 37.472656 -121.316406 31.921875 -117.984375 C 26.367188 -114.648438 21.925781 -109.929688 18.59375 -103.828125 L 16.46875 -103.453125 L 6.9375 -113.453125 C 11.5 -120.859375 17.5 -126.671875 24.9375 -130.890625 C 32.375 -135.117188 41.054688 -137.234375 50.984375 -137.234375 C 60.609375 -137.234375 68.597656 -135.597656 74.953125 -132.328125 C 81.304688 -129.054688 85.992188 -124.535156 89.015625 -118.765625 C 92.046875 -113.003906 93.5625 -106.328125 93.5625 -98.734375 C 93.5625 -92.691406 92.296875 -87.046875 89.765625 -81.796875 C 87.234375 -76.554688 83.65625 -71.625 79.03125 -67 C 74.40625 -62.375 68.601562 -57.5 61.625 -52.375 L 46.546875 -41.359375 C 40.929688 -37.222656 36.613281 -33.707031 33.59375 -30.8125 C 30.570312 -27.914062 28.363281 -25.09375 26.96875 -22.34375 C 25.582031 -19.601562 24.890625 -16.535156 24.890625 -13.140625 L 93.5625 -13.140625 L 93.5625 0 L 8.140625 0 Z M 8.140625 -6.203125 "/></g></g><g transform="translate(3555.939902, 1306.180806)"><g><path d="M 53.578125 1.9375 C 40.441406 1.9375 30.015625 -1.019531 22.296875 -6.9375 C 14.585938 -12.863281 9.59375 -21.070312 7.3125 -31.5625 L 19.15625 -36.921875 L 21.28125 -36.546875 C 23.625 -28.472656 27.25 -22.429688 32.15625 -18.421875 C 37.0625 -14.410156 44.203125 -12.40625 53.578125 -12.40625 C 63.140625 -12.40625 70.414062 -14.59375 75.40625 -18.96875 C 80.40625 -23.351562 82.90625 -29.800781 82.90625 -38.3125 C 82.90625 -46.632812 80.359375 -52.984375 75.265625 -57.359375 C 70.179688 -61.742188 62.179688 -63.9375 51.265625 -63.9375 L 36.546875 -63.9375 L 36.546875 -77.078125 L 49.6875 -77.078125 C 58.207031 -77.078125 64.976562 -79.191406 70 -83.421875 C 75.03125 -87.648438 77.546875 -93.617188 77.546875 -101.328125 C 77.546875 -108.671875 75.367188 -114.175781 71.015625 -117.84375 C 66.671875 -121.519531 60.582031 -123.359375 52.75 -123.359375 C 39.113281 -123.359375 29.394531 -117.925781 23.59375 -107.0625 L 21.46875 -106.6875 L 12.578125 -116.40625 C 16.222656 -122.632812 21.46875 -127.660156 28.3125 -131.484375 C 35.164062 -135.316406 43.3125 -137.234375 52.75 -137.234375 C 61.382812 -137.234375 68.738281 -135.890625 74.8125 -133.203125 C 80.894531 -130.523438 85.507812 -126.65625 88.65625 -121.59375 C 91.800781 -116.53125 93.375 -110.484375 93.375 -103.453125 C 93.375 -96.796875 91.441406 -90.953125 87.578125 -85.921875 C 83.722656 -80.890625 78.617188 -76.925781 72.265625 -74.03125 L 72.265625 -72.09375 C 81.210938 -69.925781 87.9375 -65.894531 92.4375 -60 C 96.945312 -54.113281 99.203125 -46.882812 99.203125 -38.3125 C 99.203125 -25.476562 95.375 -15.5625 87.71875 -8.5625 C 80.070312 -1.5625 68.691406 1.9375 53.578125 1.9375 Z M 53.578125 1.9375 "/></g></g></g><g fill="#ffffff" fill-opacity="1"><g transform="translate(1723.007548, 503.567478)"><g><path d="M 30.5625 -73.5625 L 14.078125 -73.5625 L 10.109375 -126.25 L 34.453125 -126.25 Z M 67.515625 -73.5625 L 51.03125 -73.5625 L 47.0625 -126.25 L 71.40625 -126.25 Z M 67.515625 -73.5625 "/></g></g></g><g fill="#ffffff" fill-opacity="1"><g transform="translate(1804.609614, 503.567478)"><g><path d="M 13.734375 0 L 13.734375 -95.25 L 36.703125 -95.25 L 36.703125 -82.46875 L 38.515625 -82.125 C 41.617188 -87.238281 45.257812 -91.003906 49.4375 -93.421875 C 53.613281 -95.847656 58.953125 -97.0625 65.453125 -97.0625 C 72.648438 -97.0625 78.4375 -95.632812 82.8125 -92.78125 C 87.1875 -89.9375 90.378906 -85.78125 92.390625 -80.3125 L 94.203125 -80.3125 C 97.140625 -86.007812 100.925781 -90.222656 105.5625 -92.953125 C 110.195312 -95.691406 115.96875 -97.0625 122.875 -97.0625 C 142.625 -97.0625 152.5 -86.066406 152.5 -64.078125 L 152.5 0 L 128.578125 0 L 128.578125 -61.046875 C 128.578125 -66.628906 127.484375 -70.65625 125.296875 -73.125 C 123.109375 -75.601562 119.597656 -76.84375 114.765625 -76.84375 C 101.640625 -76.84375 95.078125 -68.066406 95.078125 -50.515625 L 95.078125 0 L 71.15625 0 L 71.15625 -61.046875 C 71.15625 -66.628906 70.046875 -70.65625 67.828125 -73.125 C 65.609375 -75.601562 62.082031 -76.84375 57.25 -76.84375 C 51.09375 -76.84375 46.285156 -74.785156 42.828125 -70.671875 C 39.367188 -66.554688 37.640625 -60.007812 37.640625 -51.03125 L 37.640625 0 Z M 13.734375 0 "/></g></g></g><g fill="#ffffff" fill-opacity="1"><g transform="translate(1969.368063, 503.567478)"><g><path d="M 43.609375 1.8125 C 32.898438 1.8125 25 -1.109375 19.90625 -6.953125 C 14.8125 -12.796875 12.265625 -21.1875 12.265625 -32.125 L 12.265625 -95.25 L 36.1875 -95.25 L 36.1875 -35.140625 C 36.1875 -29.328125 37.4375 -25.082031 39.9375 -22.40625 C 42.4375 -19.726562 46.304688 -18.390625 51.546875 -18.390625 C 58.171875 -18.390625 63.320312 -20.5625 67 -24.90625 C 70.6875 -29.257812 72.53125 -36.097656 72.53125 -45.421875 L 72.53125 -95.25 L 96.453125 -95.25 L 96.453125 0 L 73.484375 0 L 73.484375 -13.984375 L 71.671875 -14.421875 C 68.617188 -8.953125 64.890625 -4.878906 60.484375 -2.203125 C 56.078125 0.472656 50.453125 1.8125 43.609375 1.8125 Z M 43.609375 1.8125 "/></g></g></g><g fill="#ffffff" fill-opacity="1"><g transform="translate(2079.552434, 503.567478)"><g><path d="M 55.515625 1.8125 C 46.304688 1.8125 38.160156 -0.0976562 31.078125 -3.921875 C 24.003906 -7.753906 18.476562 -13.382812 14.5 -20.8125 C 10.53125 -28.238281 8.546875 -37.160156 8.546875 -47.578125 C 8.546875 -58.054688 10.53125 -67.007812 14.5 -74.4375 C 18.476562 -81.863281 23.976562 -87.488281 31 -91.3125 C 38.019531 -95.144531 46.050781 -97.0625 55.09375 -97.0625 C 75.1875 -97.0625 88.050781 -89.773438 93.6875 -75.203125 L 77.28125 -63.46875 L 75.46875 -63.46875 C 73.507812 -67.957031 70.960938 -71.296875 67.828125 -73.484375 C 64.691406 -75.671875 60.445312 -76.765625 55.09375 -76.765625 C 48.1875 -76.765625 42.800781 -74.375 38.9375 -69.59375 C 35.082031 -64.820312 33.15625 -57.484375 33.15625 -47.578125 C 33.15625 -37.796875 35.113281 -30.5 39.03125 -25.6875 C 42.945312 -20.882812 48.441406 -18.484375 55.515625 -18.484375 C 60.703125 -18.484375 65.09375 -19.878906 68.6875 -22.671875 C 72.289062 -25.460938 74.867188 -29.476562 76.421875 -34.71875 L 78.234375 -34.890625 L 95.25 -25.5625 C 92.820312 -17.5 88.34375 -10.921875 81.8125 -5.828125 C 75.28125 -0.734375 66.515625 1.8125 55.515625 1.8125 Z M 55.515625 1.8125 "/></g></g></g><g fill="#ffffff" fill-opacity="1"><g transform="translate(2177.733967, 503.567478)"><g><path d="M 13.734375 0 L 13.734375 -133.5 L 37.640625 -133.5 L 37.640625 -82.8125 L 39.46875 -82.46875 C 42.632812 -87.125 46.519531 -90.71875 51.125 -93.25 C 55.726562 -95.789062 61.28125 -97.0625 67.78125 -97.0625 C 88.789062 -97.0625 99.296875 -85.144531 99.296875 -61.3125 L 99.296875 0 L 75.390625 0 L 75.390625 -58.28125 C 75.390625 -64.789062 74.09375 -69.507812 71.5 -72.4375 C 68.90625 -75.375 64.875 -76.84375 59.40625 -76.84375 C 52.726562 -76.84375 47.429688 -74.613281 43.515625 -70.15625 C 39.597656 -65.695312 37.640625 -58.75 37.640625 -49.3125 L 37.640625 0 Z M 13.734375 0 "/></g></g></g><g fill="#ffffff" fill-opacity="1"><g transform="translate(2289.299983, 503.567478)"><g/></g></g><g fill="#ffffff" fill-opacity="1"><g transform="translate(2331.007697, 503.567478)"><g><path d="M 37.125 1.8125 C 31.03125 1.8125 25.734375 0.691406 21.234375 -1.546875 C 16.742188 -3.796875 13.289062 -7.09375 10.875 -11.4375 C 8.457031 -15.78125 7.25 -21.003906 7.25 -27.109375 C 7.25 -32.753906 8.457031 -37.488281 10.875 -41.3125 C 13.289062 -45.144531 17.03125 -48.285156 22.09375 -50.734375 C 27.164062 -53.179688 33.789062 -55.066406 41.96875 -56.390625 C 47.664062 -57.304688 51.992188 -58.3125 54.953125 -59.40625 C 57.921875 -60.5 59.921875 -61.734375 60.953125 -63.109375 C 61.992188 -64.492188 62.515625 -66.253906 62.515625 -68.390625 C 62.515625 -71.441406 61.445312 -73.769531 59.3125 -75.375 C 57.1875 -76.988281 53.648438 -77.796875 48.703125 -77.796875 C 43.398438 -77.796875 38.359375 -76.613281 33.578125 -74.25 C 28.804688 -71.894531 24.664062 -68.789062 21.15625 -64.9375 L 19.421875 -64.9375 L 9.40625 -80.046875 C 14.25 -85.398438 20.148438 -89.570312 27.109375 -92.5625 C 34.078125 -95.5625 41.675781 -97.0625 49.90625 -97.0625 C 62.519531 -97.0625 71.644531 -94.382812 77.28125 -89.03125 C 82.925781 -83.675781 85.75 -76.078125 85.75 -66.234375 L 85.75 -24.875 C 85.75 -20.613281 87.617188 -18.484375 91.359375 -18.484375 C 92.796875 -18.484375 94.207031 -18.738281 95.59375 -19.25 L 96.796875 -18.90625 L 98.53125 -2.25 C 97.195312 -1.382812 95.347656 -0.675781 92.984375 -0.125 C 90.628906 0.414062 88.046875 0.6875 85.234375 0.6875 C 79.523438 0.6875 75.070312 -0.40625 71.875 -2.59375 C 68.6875 -4.78125 66.398438 -8.203125 65.015625 -12.859375 L 63.203125 -13.03125 C 58.546875 -3.132812 49.851562 1.8125 37.125 1.8125 Z M 44.734375 -16.0625 C 50.253906 -16.0625 54.671875 -17.914062 57.984375 -21.625 C 61.296875 -25.34375 62.953125 -30.507812 62.953125 -37.125 L 62.953125 -46.796875 L 61.3125 -47.140625 C 59.875 -45.992188 57.988281 -45.03125 55.65625 -44.25 C 53.320312 -43.476562 49.96875 -42.71875 45.59375 -41.96875 C 40.414062 -41.101562 36.6875 -39.617188 34.40625 -37.515625 C 32.132812 -35.410156 31 -32.429688 31 -28.578125 C 31 -24.492188 32.207031 -21.382812 34.625 -19.25 C 37.039062 -17.125 40.410156 -16.0625 44.734375 -16.0625 Z M 44.734375 -16.0625 "/></g></g></g><g fill="#ffffff" fill-opacity="1"><g transform="translate(2431.434355, 503.567478)"><g><path d="M 13.734375 38.59375 L 13.734375 -95.25 L 37.640625 -95.25 L 37.640625 -82.8125 L 39.46875 -82.46875 C 42.28125 -87.300781 46.046875 -90.941406 50.765625 -93.390625 C 55.492188 -95.835938 61.023438 -97.0625 67.359375 -97.0625 C 75.015625 -97.0625 81.703125 -95.242188 87.421875 -91.609375 C 93.148438 -87.984375 97.613281 -82.472656 100.8125 -75.078125 C 104.007812 -67.679688 105.609375 -58.515625 105.609375 -47.578125 C 105.609375 -36.703125 103.921875 -27.578125 100.546875 -20.203125 C 97.179688 -12.835938 92.503906 -7.328125 86.515625 -3.671875 C 80.535156 -0.015625 73.628906 1.8125 65.796875 1.8125 C 59.867188 1.8125 54.742188 0.820312 50.421875 -1.15625 C 46.109375 -3.144531 42.457031 -6.242188 39.46875 -10.453125 L 37.640625 -10.109375 L 37.640625 38.59375 Z M 59.15625 -18.484375 C 66.289062 -18.484375 71.695312 -20.8125 75.375 -25.46875 C 79.0625 -30.132812 80.90625 -37.503906 80.90625 -47.578125 C 80.90625 -57.648438 79.0625 -65.03125 75.375 -69.71875 C 71.695312 -74.414062 66.289062 -76.765625 59.15625 -76.765625 C 52.476562 -76.765625 47.179688 -74.347656 43.265625 -69.515625 C 39.347656 -64.679688 37.390625 -57.367188 37.390625 -47.578125 C 37.390625 -37.847656 39.347656 -30.566406 43.265625 -25.734375 C 47.179688 -20.898438 52.476562 -18.484375 59.15625 -18.484375 Z M 59.15625 -18.484375 "/></g></g></g><g fill="#ffffff" fill-opacity="1"><g transform="translate(2545.504521, 503.567478)"><g><path d="M 13.734375 38.59375 L 13.734375 -95.25 L 37.640625 -95.25 L 37.640625 -82.8125 L 39.46875 -82.46875 C 42.28125 -87.300781 46.046875 -90.941406 50.765625 -93.390625 C 55.492188 -95.835938 61.023438 -97.0625 67.359375 -97.0625 C 75.015625 -97.0625 81.703125 -95.242188 87.421875 -91.609375 C 93.148438 -87.984375 97.613281 -82.472656 100.8125 -75.078125 C 104.007812 -67.679688 105.609375 -58.515625 105.609375 -47.578125 C 105.609375 -36.703125 103.921875 -27.578125 100.546875 -20.203125 C 97.179688 -12.835938 92.503906 -7.328125 86.515625 -3.671875 C 80.535156 -0.015625 73.628906 1.8125 65.796875 1.8125 C 59.867188 1.8125 54.742188 0.820312 50.421875 -1.15625 C 46.109375 -3.144531 42.457031 -6.242188 39.46875 -10.453125 L 37.640625 -10.109375 L 37.640625 38.59375 Z M 59.15625 -18.484375 C 66.289062 -18.484375 71.695312 -20.8125 75.375 -25.46875 C 79.0625 -30.132812 80.90625 -37.503906 80.90625 -47.578125 C 80.90625 -57.648438 79.0625 -65.03125 75.375 -69.71875 C 71.695312 -74.414062 66.289062 -76.765625 59.15625 -76.765625 C 52.476562 -76.765625 47.179688 -74.347656 43.265625 -69.515625 C 39.347656 -64.679688 37.390625 -57.367188 37.390625 -47.578125 C 37.390625 -37.847656 39.347656 -30.566406 43.265625 -25.734375 C 47.179688 -20.898438 52.476562 -18.484375 59.15625 -18.484375 Z M 59.15625 -18.484375 "/></g></g></g><g fill="#ffffff" fill-opacity="1"><g transform="translate(2659.574733, 503.567478)"><g><path d="M 13.734375 0 L 13.734375 -95.25 L 36.953125 -95.25 L 36.953125 -81.078125 L 38.765625 -80.734375 C 41.066406 -86.035156 44.085938 -89.921875 47.828125 -92.390625 C 51.578125 -94.867188 56.128906 -96.109375 61.484375 -96.109375 C 66.890625 -96.109375 71.003906 -95.1875 73.828125 -93.34375 L 69.765625 -72.703125 L 67.953125 -72.359375 C 66.398438 -72.992188 64.90625 -73.453125 63.46875 -73.734375 C 62.03125 -74.023438 60.273438 -74.171875 58.203125 -74.171875 C 51.523438 -74.171875 46.425781 -71.820312 42.90625 -67.125 C 39.394531 -62.4375 37.640625 -54.914062 37.640625 -44.5625 L 37.640625 0 Z M 13.734375 0 "/></g></g></g><g fill="#ffffff" fill-opacity="1"><g transform="translate(2734.268666, 503.567478)"><g><path d="M 94.125 -42.21875 L 32.90625 -42.21875 C 33.59375 -33.9375 35.953125 -27.910156 39.984375 -24.140625 C 44.015625 -20.367188 49.507812 -18.484375 56.46875 -18.484375 C 61.9375 -18.484375 66.367188 -19.503906 69.765625 -21.546875 C 73.160156 -23.585938 75.894531 -26.679688 77.96875 -30.828125 L 79.78125 -30.828125 L 95.671875 -20.640625 C 92.566406 -13.960938 87.875 -8.550781 81.59375 -4.40625 C 75.320312 -0.257812 66.945312 1.8125 56.46875 1.8125 C 46.625 1.8125 38.117188 -0.0546875 30.953125 -3.796875 C 23.785156 -7.535156 18.257812 -13.101562 14.375 -20.5 C 10.488281 -27.90625 8.546875 -36.929688 8.546875 -47.578125 C 8.546875 -58.398438 10.585938 -67.523438 14.671875 -74.953125 C 18.765625 -82.378906 24.289062 -87.921875 31.25 -91.578125 C 38.21875 -95.234375 46.050781 -97.0625 54.75 -97.0625 C 68.21875 -97.0625 78.535156 -93.488281 85.703125 -86.34375 C 92.867188 -79.207031 96.453125 -68.734375 96.453125 -54.921875 C 96.453125 -49.910156 96.28125 -46.023438 95.9375 -43.265625 Z M 73.5625 -57.6875 C 73.332031 -64.9375 71.648438 -70.210938 68.515625 -73.515625 C 65.378906 -76.828125 60.789062 -78.484375 54.75 -78.484375 C 42.65625 -78.484375 35.546875 -71.550781 33.421875 -57.6875 Z M 73.5625 -57.6875 "/></g></g></g><g fill="#ffffff" fill-opacity="1"><g transform="translate(2837.803996, 503.567478)"><g><path d="M 55.515625 1.8125 C 46.304688 1.8125 38.160156 -0.0976562 31.078125 -3.921875 C 24.003906 -7.753906 18.476562 -13.382812 14.5 -20.8125 C 10.53125 -28.238281 8.546875 -37.160156 8.546875 -47.578125 C 8.546875 -58.054688 10.53125 -67.007812 14.5 -74.4375 C 18.476562 -81.863281 23.976562 -87.488281 31 -91.3125 C 38.019531 -95.144531 46.050781 -97.0625 55.09375 -97.0625 C 75.1875 -97.0625 88.050781 -89.773438 93.6875 -75.203125 L 77.28125 -63.46875 L 75.46875 -63.46875 C 73.507812 -67.957031 70.960938 -71.296875 67.828125 -73.484375 C 64.691406 -75.671875 60.445312 -76.765625 55.09375 -76.765625 C 48.1875 -76.765625 42.800781 -74.375 38.9375 -69.59375 C 35.082031 -64.820312 33.15625 -57.484375 33.15625 -47.578125 C 33.15625 -37.796875 35.113281 -30.5 39.03125 -25.6875 C 42.945312 -20.882812 48.441406 -18.484375 55.515625 -18.484375 C 60.703125 -18.484375 65.09375 -19.878906 68.6875 -22.671875 C 72.289062 -25.460938 74.867188 -29.476562 76.421875 -34.71875 L 78.234375 -34.890625 L 95.25 -25.5625 C 92.820312 -17.5 88.34375 -10.921875 81.8125 -5.828125 C 75.28125 -0.734375 66.515625 1.8125 55.515625 1.8125 Z M 55.515625 1.8125 "/></g></g></g><g fill="#ffffff" fill-opacity="1"><g transform="translate(2935.985506, 503.567478)"><g><path d="M 25.640625 -106.640625 C 21.328125 -106.640625 17.816406 -107.945312 15.109375 -110.5625 C 12.398438 -113.1875 11.046875 -116.570312 11.046875 -120.71875 C 11.046875 -124.800781 12.398438 -128.148438 15.109375 -130.765625 C 17.816406 -133.390625 21.328125 -134.703125 25.640625 -134.703125 C 28.523438 -134.703125 31.085938 -134.097656 33.328125 -132.890625 C 35.578125 -131.679688 37.316406 -130.023438 38.546875 -127.921875 C 39.785156 -125.828125 40.40625 -123.425781 40.40625 -120.71875 C 40.40625 -118.007812 39.785156 -115.585938 38.546875 -113.453125 C 37.316406 -111.328125 35.578125 -109.660156 33.328125 -108.453125 C 31.085938 -107.242188 28.523438 -106.640625 25.640625 -106.640625 Z M 13.734375 0 L 13.734375 -95.25 L 37.640625 -95.25 L 37.640625 0 Z M 13.734375 0 "/></g></g></g><g fill="#ffffff" fill-opacity="1"><g transform="translate(2987.278196, 503.567478)"><g><path d="M 37.125 1.8125 C 31.03125 1.8125 25.734375 0.691406 21.234375 -1.546875 C 16.742188 -3.796875 13.289062 -7.09375 10.875 -11.4375 C 8.457031 -15.78125 7.25 -21.003906 7.25 -27.109375 C 7.25 -32.753906 8.457031 -37.488281 10.875 -41.3125 C 13.289062 -45.144531 17.03125 -48.285156 22.09375 -50.734375 C 27.164062 -53.179688 33.789062 -55.066406 41.96875 -56.390625 C 47.664062 -57.304688 51.992188 -58.3125 54.953125 -59.40625 C 57.921875 -60.5 59.921875 -61.734375 60.953125 -63.109375 C 61.992188 -64.492188 62.515625 -66.253906 62.515625 -68.390625 C 62.515625 -71.441406 61.445312 -73.769531 59.3125 -75.375 C 57.1875 -76.988281 53.648438 -77.796875 48.703125 -77.796875 C 43.398438 -77.796875 38.359375 -76.613281 33.578125 -74.25 C 28.804688 -71.894531 24.664062 -68.789062 21.15625 -64.9375 L 19.421875 -64.9375 L 9.40625 -80.046875 C 14.25 -85.398438 20.148438 -89.570312 27.109375 -92.5625 C 34.078125 -95.5625 41.675781 -97.0625 49.90625 -97.0625 C 62.519531 -97.0625 71.644531 -94.382812 77.28125 -89.03125 C 82.925781 -83.675781 85.75 -76.078125 85.75 -66.234375 L 85.75 -24.875 C 85.75 -20.613281 87.617188 -18.484375 91.359375 -18.484375 C 92.796875 -18.484375 94.207031 -18.738281 95.59375 -19.25 L 96.796875 -18.90625 L 98.53125 -2.25 C 97.195312 -1.382812 95.347656 -0.675781 92.984375 -0.125 C 90.628906 0.414062 88.046875 0.6875 85.234375 0.6875 C 79.523438 0.6875 75.070312 -0.40625 71.875 -2.59375 C 68.6875 -4.78125 66.398438 -8.203125 65.015625 -12.859375 L 63.203125 -13.03125 C 58.546875 -3.132812 49.851562 1.8125 37.125 1.8125 Z M 44.734375 -16.0625 C 50.253906 -16.0625 54.671875 -17.914062 57.984375 -21.625 C 61.296875 -25.34375 62.953125 -30.507812 62.953125 -37.125 L 62.953125 -46.796875 L 61.3125 -47.140625 C 59.875 -45.992188 57.988281 -45.03125 55.65625 -44.25 C 53.320312 -43.476562 49.96875 -42.71875 45.59375 -41.96875 C 40.414062 -41.101562 36.6875 -39.617188 34.40625 -37.515625 C 32.132812 -35.410156 31 -32.429688 31 -28.578125 C 31 -24.492188 32.207031 -21.382812 34.625 -19.25 C 37.039062 -17.125 40.410156 -16.0625 44.734375 -16.0625 Z M 44.734375 -16.0625 "/></g></g></g><g fill="#ffffff" fill-opacity="1"><g transform="translate(3087.704854, 503.567478)"><g><path d="M 65.71875 -22.703125 L 71.921875 -5.015625 C 69.335938 -2.878906 66.085938 -1.207031 62.171875 0 C 58.253906 1.207031 53.820312 1.8125 48.875 1.8125 C 38.570312 1.8125 30.742188 -0.992188 25.390625 -6.609375 C 20.035156 -12.222656 17.359375 -20.378906 17.359375 -31.078125 L 17.359375 -76.328125 L 2.84375 -76.328125 L 2.84375 -95.328125 L 17.359375 -95.328125 L 17.359375 -113.890625 L 41.28125 -117.78125 L 41.28125 -95.328125 L 68.296875 -95.328125 L 68.296875 -76.328125 L 41.28125 -76.328125 L 41.28125 -32.8125 C 41.28125 -28.09375 42.253906 -24.648438 44.203125 -22.484375 C 46.160156 -20.328125 49.015625 -19.25 52.765625 -19.25 C 57.023438 -19.25 60.738281 -20.398438 63.90625 -22.703125 Z M 65.71875 -22.703125 "/></g></g></g><g fill="#ffffff" fill-opacity="1"><g transform="translate(3161.708022, 503.567478)"><g><path d="M 94.125 -42.21875 L 32.90625 -42.21875 C 33.59375 -33.9375 35.953125 -27.910156 39.984375 -24.140625 C 44.015625 -20.367188 49.507812 -18.484375 56.46875 -18.484375 C 61.9375 -18.484375 66.367188 -19.503906 69.765625 -21.546875 C 73.160156 -23.585938 75.894531 -26.679688 77.96875 -30.828125 L 79.78125 -30.828125 L 95.671875 -20.640625 C 92.566406 -13.960938 87.875 -8.550781 81.59375 -4.40625 C 75.320312 -0.257812 66.945312 1.8125 56.46875 1.8125 C 46.625 1.8125 38.117188 -0.0546875 30.953125 -3.796875 C 23.785156 -7.535156 18.257812 -13.101562 14.375 -20.5 C 10.488281 -27.90625 8.546875 -36.929688 8.546875 -47.578125 C 8.546875 -58.398438 10.585938 -67.523438 14.671875 -74.953125 C 18.765625 -82.378906 24.289062 -87.921875 31.25 -91.578125 C 38.21875 -95.234375 46.050781 -97.0625 54.75 -97.0625 C 68.21875 -97.0625 78.535156 -93.488281 85.703125 -86.34375 C 92.867188 -79.207031 96.453125 -68.734375 96.453125 -54.921875 C 96.453125 -49.910156 96.28125 -46.023438 95.9375 -43.265625 Z M 73.5625 -57.6875 C 73.332031 -64.9375 71.648438 -70.210938 68.515625 -73.515625 C 65.378906 -76.828125 60.789062 -78.484375 54.75 -78.484375 C 42.65625 -78.484375 35.546875 -71.550781 33.421875 -57.6875 Z M 73.5625 -57.6875 "/></g></g></g><g fill="#ffffff" fill-opacity="1"><g transform="translate(3265.243261, 503.567478)"><g><path d="M 47.0625 1.8125 C 39.519531 1.8125 32.851562 -0.015625 27.0625 -3.671875 C 21.28125 -7.328125 16.75 -12.851562 13.46875 -20.25 C 10.1875 -27.644531 8.546875 -36.753906 8.546875 -47.578125 C 8.546875 -58.460938 10.226562 -67.601562 13.59375 -75 C 16.96875 -82.394531 21.632812 -87.921875 27.59375 -91.578125 C 33.550781 -95.234375 40.441406 -97.0625 48.265625 -97.0625 C 54.191406 -97.0625 59.328125 -96.035156 63.671875 -93.984375 C 68.023438 -91.941406 71.695312 -88.765625 74.6875 -84.453125 L 76.5 -84.875 L 76.5 -133.5 L 100.421875 -133.5 L 100.421875 0 L 76.5 0 L 76.5 -12.34375 L 74.6875 -12.6875 C 72.039062 -8.195312 68.414062 -4.65625 63.8125 -2.0625 C 59.207031 0.519531 53.625 1.8125 47.0625 1.8125 Z M 54.828125 -18.484375 C 61.566406 -18.484375 66.890625 -20.882812 70.796875 -25.6875 C 74.710938 -30.5 76.671875 -37.796875 76.671875 -47.578125 C 76.671875 -57.367188 74.710938 -64.679688 70.796875 -69.515625 C 66.890625 -74.347656 61.566406 -76.765625 54.828125 -76.765625 C 47.804688 -76.765625 42.4375 -74.414062 38.71875 -69.71875 C 35.007812 -65.03125 33.15625 -57.648438 33.15625 -47.578125 C 33.15625 -37.554688 35.007812 -30.203125 38.71875 -25.515625 C 42.4375 -20.828125 47.804688 -18.484375 54.828125 -18.484375 Z M 54.828125 -18.484375 "/></g></g></g><g fill="#ffffff" fill-opacity="1"><g transform="translate(3379.399806, 503.567478)"><g><path d="M 30.5625 -73.5625 L 14.078125 -73.5625 L 10.109375 -126.25 L 34.453125 -126.25 Z M 67.515625 -73.5625 L 51.03125 -73.5625 L 47.0625 -126.25 L 71.40625 -126.25 Z M 67.515625 -73.5625 "/></g></g></g></svg>