<svg xmlns="http://www.w3.org/2000/svg" xmlns:xlink="http://www.w3.org/1999/xlink" width="800" zoomAndPan="magnify" viewBox="0 0 600 97.5" height="130" preserveAspectRatio="xMidYMid meet" version="1.0"><defs><filter x="0%" y="0%" width="100%" height="100%" id="70369c2ff7"><feColorMatrix values="0 0 0 0 1 0 0 0 0 1 0 0 0 0 1 0 0 0 1 0" color-interpolation-filters="sRGB"/></filter><g/><mask id="6cf9efb21b"><g filter="url(#70369c2ff7)"><rect x="-60" width="720" fill="#000000" y="-9.75" height="117" fill-opacity="0.7"/></g></mask><clipPath id="436e47108f"><path d="M 1.027344 0.351562 L 595 0.351562 L 595 90.652344 L 1.027344 90.652344 Z M 1.027344 0.351562 " clip-rule="nonzero"/></clipPath><clipPath id="c8733ce0b1"><path d="M 7.742188 0.351562 L 588.257812 0.351562 C 590.039062 0.351562 591.746094 1.058594 593.003906 2.316406 C 594.265625 3.574219 594.972656 5.285156 594.972656 7.066406 L 594.972656 83.9375 C 594.972656 85.71875 594.265625 87.425781 593.003906 88.6875 C 591.746094 89.945312 590.039062 90.652344 588.257812 90.652344 L 7.742188 90.652344 C 5.960938 90.652344 4.253906 89.945312 2.996094 88.6875 C 1.734375 87.425781 1.027344 85.71875 1.027344 83.9375 L 1.027344 7.066406 C 1.027344 5.285156 1.734375 3.574219 2.996094 2.316406 C 4.253906 1.058594 5.960938 0.351562 7.742188 0.351562 Z M 7.742188 0.351562 " clip-rule="nonzero"/></clipPath><clipPath id="c3229ccf52"><rect x="0" width="596" y="0" height="91"/></clipPath><clipPath id="495ae90ae7"><path d="M 232.746094 54.28125 L 260.382812 54.28125 L 260.382812 80.578125 L 232.746094 80.578125 Z M 232.746094 54.28125 " clip-rule="nonzero"/></clipPath><clipPath id="7057b61ff2"><path d="M 246.542969 54.28125 L 249.800781 64.324219 L 260.339844 64.324219 L 251.8125 70.53125 L 255.070312 80.578125 L 246.542969 74.371094 L 238.015625 80.578125 L 241.273438 70.53125 L 232.746094 64.324219 L 243.285156 64.324219 Z M 246.542969 54.28125 " clip-rule="nonzero"/></clipPath><clipPath id="5730e3a7b2"><path d="M 260.339844 54.28125 L 287.972656 54.28125 L 287.972656 80.578125 L 260.339844 80.578125 Z M 260.339844 54.28125 " clip-rule="nonzero"/></clipPath><clipPath id="949d0b6ad7"><path d="M 274.132812 54.28125 L 277.390625 64.324219 L 287.929688 64.324219 L 279.402344 70.53125 L 282.660156 80.578125 L 274.132812 74.371094 L 265.609375 80.578125 L 268.867188 70.53125 L 260.339844 64.324219 L 270.878906 64.324219 Z M 274.132812 54.28125 " clip-rule="nonzero"/></clipPath><clipPath id="75fe88f104"><path d="M 286.203125 54.28125 L 313.835938 54.28125 L 313.835938 80.578125 L 286.203125 80.578125 Z M 286.203125 54.28125 " clip-rule="nonzero"/></clipPath><clipPath id="b8e81ec4db"><path d="M 300 54.28125 L 303.257812 64.324219 L 313.796875 64.324219 L 305.269531 70.53125 L 308.527344 80.578125 L 300 74.371094 L 291.472656 80.578125 L 294.730469 70.53125 L 286.203125 64.324219 L 296.742188 64.324219 Z M 300 54.28125 " clip-rule="nonzero"/></clipPath><clipPath id="6f1d5ec1c7"><path d="M 312.632812 54.28125 L 340.265625 54.28125 L 340.265625 80.578125 L 312.632812 80.578125 Z M 312.632812 54.28125 " clip-rule="nonzero"/></clipPath><clipPath id="131d2fb90f"><path d="M 326.429688 54.28125 L 329.683594 64.324219 L 340.222656 64.324219 L 331.699219 70.53125 L 334.953125 80.578125 L 326.429688 74.371094 L 317.902344 80.578125 L 321.160156 70.53125 L 312.632812 64.324219 L 323.171875 64.324219 Z M 326.429688 54.28125 " clip-rule="nonzero"/></clipPath><clipPath id="539b96d3a6"><path d="M 339.660156 54.28125 L 367.292969 54.28125 L 367.292969 80.578125 L 339.660156 80.578125 Z M 339.660156 54.28125 " clip-rule="nonzero"/></clipPath><clipPath id="59856762d7"><path d="M 353.457031 54.28125 L 356.714844 64.324219 L 367.253906 64.324219 L 358.726562 70.53125 L 361.984375 80.578125 L 353.457031 74.371094 L 344.929688 80.578125 L 348.1875 70.53125 L 339.660156 64.324219 L 350.199219 64.324219 Z M 353.457031 54.28125 " clip-rule="nonzero"/></clipPath><clipPath id="bb74ef9f8c"><path d="M 126.847656 15.191406 L 152.21875 15.191406 L 152.21875 40.558594 L 126.847656 40.558594 Z M 126.847656 15.191406 " clip-rule="nonzero"/></clipPath><clipPath id="8f6bec404e"><path d="M 126.847656 27.875 C 126.847656 26.191406 127.167969 24.574219 127.8125 23.019531 C 128.457031 21.464844 129.375 20.09375 130.5625 18.90625 C 131.75 17.714844 133.125 16.800781 134.675781 16.15625 C 136.230469 15.511719 137.847656 15.191406 139.53125 15.191406 C 141.210938 15.191406 142.832031 15.511719 144.382812 16.15625 C 145.9375 16.800781 147.308594 17.714844 148.5 18.90625 C 149.6875 20.09375 150.605469 21.464844 151.25 23.019531 C 151.890625 24.574219 152.214844 26.191406 152.214844 27.875 C 152.214844 29.554688 151.890625 31.171875 151.25 32.726562 C 150.605469 34.28125 149.6875 35.652344 148.5 36.839844 C 147.308594 38.03125 145.9375 38.945312 144.382812 39.589844 C 142.832031 40.234375 141.210938 40.554688 139.53125 40.554688 C 137.847656 40.554688 136.230469 40.234375 134.675781 39.589844 C 133.125 38.945312 131.75 38.03125 130.5625 36.839844 C 129.375 35.652344 128.457031 34.28125 127.8125 32.726562 C 127.167969 31.171875 126.847656 29.554688 126.847656 27.875 Z M 126.847656 27.875 " clip-rule="nonzero"/></clipPath><clipPath id="f1dc61798d"><path d="M 130 15.191406 L 149 15.191406 L 149 40.558594 L 130 40.558594 Z M 130 15.191406 " clip-rule="nonzero"/></clipPath><clipPath id="31de728a6c"><path d="M 126.847656 27.875 C 126.847656 26.191406 127.167969 24.574219 127.8125 23.019531 C 128.457031 21.464844 129.375 20.09375 130.5625 18.90625 C 131.75 17.714844 133.125 16.800781 134.675781 16.15625 C 136.230469 15.511719 137.847656 15.191406 139.53125 15.191406 C 141.210938 15.191406 142.832031 15.511719 144.382812 16.15625 C 145.9375 16.800781 147.308594 17.714844 148.5 18.90625 C 149.6875 20.09375 150.605469 21.464844 151.25 23.019531 C 151.890625 24.574219 152.214844 26.191406 152.214844 27.875 C 152.214844 29.554688 151.890625 31.171875 151.25 32.726562 C 150.605469 34.28125 149.6875 35.652344 148.5 36.839844 C 147.308594 38.03125 145.9375 38.945312 144.382812 39.589844 C 142.832031 40.234375 141.210938 40.554688 139.53125 40.554688 C 137.847656 40.554688 136.230469 40.234375 134.675781 39.589844 C 133.125 38.945312 131.75 38.03125 130.5625 36.839844 C 129.375 35.652344 128.457031 34.28125 127.8125 32.726562 C 127.167969 31.171875 126.847656 29.554688 126.847656 27.875 Z M 126.847656 27.875 " clip-rule="nonzero"/></clipPath><clipPath id="43158e9eb3"><path d="M 126.851562 15.214844 L 152.222656 15.214844 L 152.222656 30 L 126.851562 30 Z M 126.851562 15.214844 " clip-rule="nonzero"/></clipPath><clipPath id="21a71dcbc3"><path d="M 126.851562 27 L 152.222656 27 L 152.222656 40.585938 L 126.851562 40.585938 Z M 126.851562 27 " clip-rule="nonzero"/></clipPath></defs><g mask="url(#6cf9efb21b)"><g transform="matrix(1, 0, 0, 1, 2, 3)"><g clip-path="url(#c3229ccf52)"><g clip-path="url(#436e47108f)"><g clip-path="url(#c8733ce0b1)"><path fill="#020512" d="M 1.027344 0.351562 L 595.050781 0.351562 L 595.050781 90.652344 L 1.027344 90.652344 Z M 1.027344 0.351562 " fill-opacity="1" fill-rule="nonzero"/></g></g></g></g></g><g fill="#ffffff" fill-opacity="1"><g transform="translate(163.220581, 34.819542)"><g><path d="M 7.90625 -15.53125 C 8.96875 -15.53125 9.878906 -15.335938 10.640625 -14.953125 C 11.410156 -14.566406 11.992188 -14.019531 12.390625 -13.3125 C 12.796875 -12.601562 13 -11.765625 13 -10.796875 C 13 -9.835938 12.796875 -9.003906 12.390625 -8.296875 C 11.992188 -7.585938 11.410156 -7.039062 10.640625 -6.65625 C 9.878906 -6.269531 8.96875 -6.078125 7.90625 -6.078125 L 4.171875 -6.078125 L 4.171875 0 L 2.34375 0 L 2.34375 -15.53125 Z M 7.84375 -7.640625 C 10.007812 -7.640625 11.09375 -8.691406 11.09375 -10.796875 C 11.09375 -12.910156 10.007812 -13.96875 7.84375 -13.96875 L 4.171875 -13.96875 L 4.171875 -7.640625 Z M 7.84375 -7.640625 "/></g></g></g><g fill="#ffffff" fill-opacity="1"><g transform="translate(177.375376, 34.819542)"><g><path d="M 4.828125 0.21875 C 3.671875 0.21875 2.769531 -0.078125 2.125 -0.671875 C 1.476562 -1.273438 1.15625 -2.140625 1.15625 -3.265625 C 1.15625 -3.953125 1.296875 -4.535156 1.578125 -5.015625 C 1.867188 -5.492188 2.316406 -5.882812 2.921875 -6.1875 C 3.523438 -6.488281 4.3125 -6.71875 5.28125 -6.875 C 6.125 -7.019531 6.765625 -7.179688 7.203125 -7.359375 C 7.648438 -7.535156 7.953125 -7.734375 8.109375 -7.953125 C 8.265625 -8.171875 8.34375 -8.445312 8.34375 -8.78125 C 8.34375 -9.3125 8.160156 -9.71875 7.796875 -10 C 7.429688 -10.28125 6.84375 -10.421875 6.03125 -10.421875 C 5.269531 -10.421875 4.617188 -10.273438 4.078125 -9.984375 C 3.535156 -9.691406 3.039062 -9.253906 2.59375 -8.671875 L 2.375 -8.671875 L 1.53125 -9.875 C 2.019531 -10.507812 2.644531 -11.007812 3.40625 -11.375 C 4.175781 -11.75 5.050781 -11.9375 6.03125 -11.9375 C 7.414062 -11.9375 8.429688 -11.632812 9.078125 -11.03125 C 9.734375 -10.425781 10.0625 -9.585938 10.0625 -8.515625 L 10.0625 -2.296875 C 10.0625 -1.648438 10.335938 -1.328125 10.890625 -1.328125 C 11.078125 -1.328125 11.253906 -1.359375 11.421875 -1.421875 L 11.578125 -1.375 L 11.78125 -0.1875 C 11.65625 -0.09375 11.484375 -0.0234375 11.265625 0.015625 C 11.054688 0.0546875 10.84375 0.078125 10.625 0.078125 C 9.988281 0.078125 9.503906 -0.0625 9.171875 -0.34375 C 8.835938 -0.625 8.625 -1.039062 8.53125 -1.59375 L 8.3125 -1.609375 C 7.976562 -0.992188 7.53125 -0.535156 6.96875 -0.234375 C 6.40625 0.0664062 5.691406 0.21875 4.828125 0.21875 Z M 5.21875 -1.15625 C 5.863281 -1.15625 6.425781 -1.304688 6.90625 -1.609375 C 7.382812 -1.910156 7.75 -2.332031 8 -2.875 C 8.257812 -3.425781 8.390625 -4.054688 8.390625 -4.765625 L 8.390625 -6.25 L 8.1875 -6.296875 C 7.925781 -6.109375 7.609375 -5.953125 7.234375 -5.828125 C 6.859375 -5.710938 6.332031 -5.601562 5.65625 -5.5 C 4.976562 -5.40625 4.4375 -5.265625 4.03125 -5.078125 C 3.632812 -4.890625 3.351562 -4.644531 3.1875 -4.34375 C 3.019531 -4.050781 2.9375 -3.691406 2.9375 -3.265625 C 2.9375 -2.578125 3.132812 -2.050781 3.53125 -1.6875 C 3.9375 -1.332031 4.5 -1.15625 5.21875 -1.15625 Z M 5.21875 -1.15625 "/></g></g></g><g fill="#ffffff" fill-opacity="1"><g transform="translate(189.491371, 34.819542)"><g><path d="M 2.046875 0 L 2.046875 -11.71875 L 3.6875 -11.71875 L 3.6875 -9.875 L 3.90625 -9.828125 C 4.300781 -10.515625 4.800781 -11.035156 5.40625 -11.390625 C 6.007812 -11.753906 6.742188 -11.9375 7.609375 -11.9375 C 9.023438 -11.9375 10.046875 -11.578125 10.671875 -10.859375 C 11.304688 -10.140625 11.625 -9.035156 11.625 -7.546875 L 11.625 0 L 9.890625 0 L 9.890625 -7.5 C 9.890625 -8.207031 9.800781 -8.773438 9.625 -9.203125 C 9.445312 -9.628906 9.164062 -9.9375 8.78125 -10.125 C 8.40625 -10.320312 7.910156 -10.421875 7.296875 -10.421875 C 6.242188 -10.421875 5.390625 -10.070312 4.734375 -9.375 C 4.085938 -8.6875 3.765625 -7.566406 3.765625 -6.015625 L 3.765625 0 Z M 2.046875 0 "/></g></g></g><g fill="#ffffff" fill-opacity="1"><g transform="translate(202.977178, 34.819542)"><g/></g></g><g fill="#ffffff" fill-opacity="1"><g transform="translate(208.307789, 34.819542)"><g><path d="M 8.171875 0.21875 C 6.867188 0.21875 5.71875 -0.078125 4.71875 -0.671875 C 3.726562 -1.265625 2.953125 -2.160156 2.390625 -3.359375 C 1.828125 -4.554688 1.546875 -6.023438 1.546875 -7.765625 C 1.546875 -9.503906 1.84375 -10.972656 2.4375 -12.171875 C 3.039062 -13.367188 3.875 -14.265625 4.9375 -14.859375 C 6 -15.453125 7.222656 -15.75 8.609375 -15.75 C 10.097656 -15.75 11.316406 -15.476562 12.265625 -14.9375 C 13.222656 -14.40625 13.90625 -13.609375 14.3125 -12.546875 L 13.109375 -11.859375 L 12.84375 -11.859375 C 12.445312 -12.660156 11.90625 -13.234375 11.21875 -13.578125 C 10.53125 -13.929688 9.660156 -14.109375 8.609375 -14.109375 C 5.203125 -14.109375 3.5 -11.992188 3.5 -7.765625 C 3.5 -5.554688 3.925781 -3.945312 4.78125 -2.9375 C 5.644531 -1.925781 6.847656 -1.421875 8.390625 -1.421875 C 9.804688 -1.421875 10.863281 -1.742188 11.5625 -2.390625 C 12.269531 -3.035156 12.625 -4.050781 12.625 -5.4375 L 12.625 -6.8125 L 8.203125 -6.8125 L 8.203125 -8.265625 L 14.40625 -8.265625 L 14.40625 0 L 12.71875 0 L 12.71875 -2.078125 L 12.484375 -2.140625 C 12.078125 -1.335938 11.503906 -0.742188 10.765625 -0.359375 C 10.035156 0.0234375 9.171875 0.21875 8.171875 0.21875 Z M 8.171875 0.21875 "/></g></g></g><g fill="#ffffff" fill-opacity="1"><g transform="translate(224.448283, 34.819542)"><g><path d="M 6.71875 0.21875 C 5.613281 0.21875 4.648438 -0.0078125 3.828125 -0.46875 C 3.015625 -0.9375 2.382812 -1.625 1.9375 -2.53125 C 1.5 -3.445312 1.28125 -4.554688 1.28125 -5.859375 C 1.28125 -7.148438 1.5 -8.25 1.9375 -9.15625 C 2.382812 -10.070312 3.015625 -10.765625 3.828125 -11.234375 C 4.648438 -11.703125 5.613281 -11.9375 6.71875 -11.9375 C 7.820312 -11.9375 8.78125 -11.703125 9.59375 -11.234375 C 10.414062 -10.765625 11.046875 -10.070312 11.484375 -9.15625 C 11.929688 -8.25 12.15625 -7.148438 12.15625 -5.859375 C 12.15625 -4.554688 11.929688 -3.445312 11.484375 -2.53125 C 11.046875 -1.625 10.414062 -0.9375 9.59375 -0.46875 C 8.78125 -0.0078125 7.820312 0.21875 6.71875 0.21875 Z M 6.71875 -1.328125 C 7.882812 -1.328125 8.773438 -1.691406 9.390625 -2.421875 C 10.015625 -3.160156 10.328125 -4.304688 10.328125 -5.859375 C 10.328125 -7.398438 10.015625 -8.539062 9.390625 -9.28125 C 8.773438 -10.019531 7.882812 -10.390625 6.71875 -10.390625 C 5.550781 -10.390625 4.65625 -10.019531 4.03125 -9.28125 C 3.40625 -8.539062 3.09375 -7.398438 3.09375 -5.859375 C 3.09375 -4.304688 3.40625 -3.160156 4.03125 -2.421875 C 4.65625 -1.691406 5.550781 -1.328125 6.71875 -1.328125 Z M 6.71875 -1.328125 "/></g></g></g><g fill="#ffffff" fill-opacity="1"><g transform="translate(237.891615, 34.819542)"><g><path d="M 5.859375 -1.40625 L 6.046875 -0.046875 C 5.921875 0.0351562 5.738281 0.0976562 5.5 0.140625 C 5.269531 0.191406 5.019531 0.21875 4.75 0.21875 C 3.914062 0.21875 3.257812 -0.015625 2.78125 -0.484375 C 2.3125 -0.953125 2.078125 -1.65625 2.078125 -2.59375 L 2.078125 -6.671875 L 0.75 -5.984375 L 0.53125 -5.984375 L 0.140625 -7.296875 L 2.078125 -8.296875 L 2.078125 -16.421875 L 3.8125 -16.421875 L 3.8125 -9.1875 L 5.421875 -10 L 5.640625 -10 L 6.03125 -8.703125 L 3.8125 -7.5625 L 3.8125 -2.703125 C 3.8125 -2.210938 3.90625 -1.859375 4.09375 -1.640625 C 4.28125 -1.429688 4.570312 -1.328125 4.96875 -1.328125 C 5.207031 -1.328125 5.453125 -1.363281 5.703125 -1.4375 Z M 5.859375 -1.40625 "/></g></g></g><g fill="#ffffff" fill-opacity="1"><g transform="translate(244.305337, 34.819542)"><g><path d="M 2.34375 4.96875 C 1.945312 4.96875 1.578125 4.929688 1.234375 4.859375 C 0.890625 4.796875 0.59375 4.707031 0.34375 4.59375 L 0.671875 3.21875 L 0.859375 3.15625 C 1.023438 3.238281 1.234375 3.3125 1.484375 3.375 C 1.742188 3.4375 2.007812 3.46875 2.28125 3.46875 C 2.757812 3.46875 3.148438 3.398438 3.453125 3.265625 C 3.765625 3.140625 4.03125 2.929688 4.25 2.640625 C 4.476562 2.347656 4.691406 1.941406 4.890625 1.421875 L 5.296875 0.28125 L 0.59375 -11.71875 L 2.46875 -11.71875 L 6.15625 -2.15625 L 6.34375 -2.15625 L 9.921875 -11.71875 L 11.6875 -11.71875 L 6.453125 1.84375 C 6.160156 2.59375 5.828125 3.191406 5.453125 3.640625 C 5.085938 4.097656 4.65625 4.429688 4.15625 4.640625 C 3.65625 4.859375 3.050781 4.96875 2.34375 4.96875 Z M 2.34375 4.96875 "/></g></g></g><g fill="#ffffff" fill-opacity="1"><g transform="translate(256.654945, 34.819542)"><g><path d="M 2.046875 0 L 2.046875 -11.71875 L 3.6875 -11.71875 L 3.6875 -9.984375 L 3.90625 -9.9375 C 4.300781 -10.59375 4.78125 -11.085938 5.34375 -11.421875 C 5.90625 -11.765625 6.582031 -11.9375 7.375 -11.9375 C 8.28125 -11.9375 8.976562 -11.765625 9.46875 -11.421875 C 9.96875 -11.078125 10.351562 -10.523438 10.625 -9.765625 L 10.859375 -9.765625 C 11.253906 -10.472656 11.75 -11.007812 12.34375 -11.375 C 12.9375 -11.75 13.664062 -11.9375 14.53125 -11.9375 C 15.726562 -11.9375 16.625 -11.609375 17.21875 -10.953125 C 17.8125 -10.304688 18.109375 -9.316406 18.109375 -7.984375 L 18.109375 0 L 16.375 0 L 16.375 -7.9375 C 16.375 -8.789062 16.191406 -9.414062 15.828125 -9.8125 C 15.472656 -10.21875 14.898438 -10.421875 14.109375 -10.421875 C 13.179688 -10.421875 12.421875 -10.082031 11.828125 -9.40625 C 11.234375 -8.726562 10.9375 -7.609375 10.9375 -6.046875 L 10.9375 0 L 9.203125 0 L 9.203125 -7.9375 C 9.203125 -8.789062 9.023438 -9.414062 8.671875 -9.8125 C 8.316406 -10.21875 7.742188 -10.421875 6.953125 -10.421875 C 6.015625 -10.421875 5.25 -10.09375 4.65625 -9.4375 C 4.0625 -8.78125 3.765625 -7.710938 3.765625 -6.234375 L 3.765625 0 Z M 2.046875 0 "/></g></g></g><g fill="#ffffff" fill-opacity="1"><g transform="translate(276.618187, 34.819542)"><g><path d="M 7.78125 0.21875 C 6.914062 0.21875 6.160156 0.0507812 5.515625 -0.28125 C 4.878906 -0.613281 4.375 -1.054688 4 -1.609375 L 3.765625 -1.578125 L 3.765625 0 L 2.046875 0 L 2.046875 -16.421875 L 3.765625 -16.421875 L 3.765625 -9.96875 L 4 -9.921875 C 4.882812 -11.265625 6.175781 -11.9375 7.875 -11.9375 C 8.84375 -11.9375 9.6875 -11.710938 10.40625 -11.265625 C 11.125 -10.816406 11.679688 -10.140625 12.078125 -9.234375 C 12.484375 -8.328125 12.6875 -7.203125 12.6875 -5.859375 C 12.6875 -4.523438 12.472656 -3.398438 12.046875 -2.484375 C 11.628906 -1.578125 11.050781 -0.898438 10.3125 -0.453125 C 9.582031 -0.00390625 8.738281 0.21875 7.78125 0.21875 Z M 7.375 -1.328125 C 9.707031 -1.328125 10.875 -2.835938 10.875 -5.859375 C 10.875 -7.421875 10.566406 -8.566406 9.953125 -9.296875 C 9.347656 -10.023438 8.488281 -10.390625 7.375 -10.390625 C 6.269531 -10.390625 5.390625 -10.015625 4.734375 -9.265625 C 4.085938 -8.515625 3.765625 -7.378906 3.765625 -5.859375 C 3.765625 -4.328125 4.085938 -3.1875 4.734375 -2.4375 C 5.390625 -1.695312 6.269531 -1.328125 7.375 -1.328125 Z M 7.375 -1.328125 "/></g></g></g><g fill="#ffffff" fill-opacity="1"><g transform="translate(290.592456, 34.819542)"><g><path d="M 2.90625 -13.96875 C 2.539062 -13.96875 2.242188 -14.082031 2.015625 -14.3125 C 1.785156 -14.550781 1.671875 -14.847656 1.671875 -15.203125 C 1.671875 -15.554688 1.785156 -15.847656 2.015625 -16.078125 C 2.242188 -16.304688 2.539062 -16.421875 2.90625 -16.421875 C 3.28125 -16.421875 3.582031 -16.304688 3.8125 -16.078125 C 4.039062 -15.847656 4.15625 -15.554688 4.15625 -15.203125 C 4.15625 -14.847656 4.039062 -14.550781 3.8125 -14.3125 C 3.582031 -14.082031 3.28125 -13.96875 2.90625 -13.96875 Z M 2.046875 0 L 2.046875 -11.71875 L 3.765625 -11.71875 L 3.765625 0 Z M 2.046875 0 "/></g></g></g><g fill="#ffffff" fill-opacity="1"><g transform="translate(296.400917, 34.819542)"><g><path d="M 6.71875 0.21875 C 5.613281 0.21875 4.648438 -0.0078125 3.828125 -0.46875 C 3.015625 -0.9375 2.382812 -1.625 1.9375 -2.53125 C 1.5 -3.445312 1.28125 -4.554688 1.28125 -5.859375 C 1.28125 -7.148438 1.5 -8.25 1.9375 -9.15625 C 2.382812 -10.070312 3.015625 -10.765625 3.828125 -11.234375 C 4.648438 -11.703125 5.613281 -11.9375 6.71875 -11.9375 C 7.820312 -11.9375 8.78125 -11.703125 9.59375 -11.234375 C 10.414062 -10.765625 11.046875 -10.070312 11.484375 -9.15625 C 11.929688 -8.25 12.15625 -7.148438 12.15625 -5.859375 C 12.15625 -4.554688 11.929688 -3.445312 11.484375 -2.53125 C 11.046875 -1.625 10.414062 -0.9375 9.59375 -0.46875 C 8.78125 -0.0078125 7.820312 0.21875 6.71875 0.21875 Z M 6.71875 -1.328125 C 7.882812 -1.328125 8.773438 -1.691406 9.390625 -2.421875 C 10.015625 -3.160156 10.328125 -4.304688 10.328125 -5.859375 C 10.328125 -7.398438 10.015625 -8.539062 9.390625 -9.28125 C 8.773438 -10.019531 7.882812 -10.390625 6.71875 -10.390625 C 5.550781 -10.390625 4.65625 -10.019531 4.03125 -9.28125 C 3.40625 -8.539062 3.09375 -7.398438 3.09375 -5.859375 C 3.09375 -4.304688 3.40625 -3.160156 4.03125 -2.421875 C 4.65625 -1.691406 5.550781 -1.328125 6.71875 -1.328125 Z M 6.71875 -1.328125 "/></g></g></g><g fill="#ffffff" fill-opacity="1"><g transform="translate(309.844249, 34.819542)"><g><path d="M 2.046875 0 L 2.046875 -11.71875 L 3.6875 -11.71875 L 3.6875 -9.875 L 3.90625 -9.828125 C 4.445312 -11.148438 5.472656 -11.8125 6.984375 -11.8125 C 7.785156 -11.8125 8.382812 -11.671875 8.78125 -11.390625 L 8.34375 -9.921875 L 8.125 -9.875 C 7.6875 -10.09375 7.207031 -10.203125 6.6875 -10.203125 C 5.75 -10.203125 5.023438 -9.851562 4.515625 -9.15625 C 4.015625 -8.457031 3.765625 -7.320312 3.765625 -5.75 L 3.765625 0 Z M 2.046875 0 "/></g></g></g><g fill="#ffffff" fill-opacity="1"><g transform="translate(318.89142, 34.819542)"><g><path d="M 9.359375 0 L 0.796875 0 L 0.796875 -1.515625 L 7.234375 -10.078125 L 7.171875 -10.296875 L 1.0625 -10.296875 L 1.0625 -11.71875 L 9.265625 -11.71875 L 9.265625 -10.21875 L 2.828125 -1.640625 L 2.90625 -1.421875 L 9.359375 -1.421875 Z M 9.359375 0 "/></g></g></g><g fill="#ffffff" fill-opacity="1"><g transform="translate(329.096042, 34.819542)"><g><path d="M 0.671875 3.234375 C 1.285156 2.835938 1.804688 2.375 2.234375 1.84375 C 2.660156 1.3125 2.878906 0.722656 2.890625 0.078125 C 2.472656 0.078125 2.144531 -0.03125 1.90625 -0.25 C 1.664062 -0.476562 1.546875 -0.78125 1.546875 -1.15625 C 1.546875 -1.519531 1.660156 -1.820312 1.890625 -2.0625 C 2.117188 -2.300781 2.425781 -2.421875 2.8125 -2.421875 C 3.226562 -2.421875 3.566406 -2.273438 3.828125 -1.984375 C 4.085938 -1.691406 4.21875 -1.234375 4.21875 -0.609375 C 4.21875 0.492188 3.976562 1.421875 3.5 2.171875 C 3.03125 2.921875 2.332031 3.609375 1.40625 4.234375 Z M 0.671875 3.234375 "/></g></g></g><g fill="#ffffff" fill-opacity="1"><g transform="translate(334.863748, 34.819542)"><g/></g></g><g fill="#ffffff" fill-opacity="1"><g transform="translate(340.194358, 34.819542)"><g/></g></g><g fill="#ffffff" fill-opacity="1"><g transform="translate(345.529393, 34.819542)"><g><path d="M 7.40625 0.21875 C 6.3125 0.21875 5.328125 -0.0390625 4.453125 -0.5625 C 3.585938 -1.09375 2.894531 -1.953125 2.375 -3.140625 C 1.851562 -4.328125 1.59375 -5.867188 1.59375 -7.765625 C 1.59375 -9.597656 1.851562 -11.109375 2.375 -12.296875 C 2.894531 -13.492188 3.601562 -14.367188 4.5 -14.921875 C 5.40625 -15.472656 6.429688 -15.75 7.578125 -15.75 C 9.566406 -15.75 11.035156 -15.144531 11.984375 -13.9375 L 11.09375 -12.734375 L 10.828125 -12.734375 C 10.054688 -13.648438 8.972656 -14.109375 7.578125 -14.109375 C 6.234375 -14.109375 5.207031 -13.597656 4.5 -12.578125 C 3.789062 -11.566406 3.4375 -9.945312 3.4375 -7.71875 L 3.65625 -7.65625 C 4.082031 -8.53125 4.632812 -9.1875 5.3125 -9.625 C 6 -10.070312 6.835938 -10.296875 7.828125 -10.296875 C 8.804688 -10.296875 9.65625 -10.082031 10.375 -9.65625 C 11.09375 -9.238281 11.644531 -8.632812 12.03125 -7.84375 C 12.414062 -7.0625 12.609375 -6.132812 12.609375 -5.0625 C 12.609375 -3.976562 12.394531 -3.039062 11.96875 -2.25 C 11.539062 -1.457031 10.9375 -0.847656 10.15625 -0.421875 C 9.375 0.00390625 8.457031 0.21875 7.40625 0.21875 Z M 7.40625 -1.421875 C 8.4375 -1.421875 9.238281 -1.734375 9.8125 -2.359375 C 10.394531 -2.984375 10.6875 -3.882812 10.6875 -5.0625 C 10.6875 -6.238281 10.394531 -7.140625 9.8125 -7.765625 C 9.238281 -8.390625 8.4375 -8.703125 7.40625 -8.703125 C 6.707031 -8.703125 6.097656 -8.554688 5.578125 -8.265625 C 5.066406 -7.984375 4.671875 -7.566406 4.390625 -7.015625 C 4.109375 -6.472656 3.96875 -5.820312 3.96875 -5.0625 C 3.96875 -4.300781 4.109375 -3.644531 4.390625 -3.09375 C 4.671875 -2.550781 5.066406 -2.132812 5.578125 -1.84375 C 6.097656 -1.5625 6.707031 -1.421875 7.40625 -1.421875 Z M 7.40625 -1.421875 "/></g></g></g><g fill="#ffffff" fill-opacity="1"><g transform="translate(359.514287, 34.819542)"><g/></g></g><g fill="#ffffff" fill-opacity="1"><g transform="translate(364.844898, 34.819542)"><g><path d="M 7.375 -15.53125 C 8.945312 -15.53125 10.296875 -15.25 11.421875 -14.6875 C 12.546875 -14.125 13.414062 -13.265625 14.03125 -12.109375 C 14.644531 -10.953125 14.953125 -9.503906 14.953125 -7.765625 C 14.953125 -6.023438 14.644531 -4.578125 14.03125 -3.421875 C 13.414062 -2.265625 12.546875 -1.40625 11.421875 -0.84375 C 10.296875 -0.28125 8.945312 0 7.375 0 L 2.34375 0 L 2.34375 -15.53125 Z M 7.1875 -1.546875 C 8.488281 -1.546875 9.5625 -1.75 10.40625 -2.15625 C 11.257812 -2.5625 11.90625 -3.21875 12.34375 -4.125 C 12.78125 -5.039062 13 -6.253906 13 -7.765625 C 13 -9.273438 12.78125 -10.484375 12.34375 -11.390625 C 11.90625 -12.304688 11.257812 -12.960938 10.40625 -13.359375 C 9.5625 -13.765625 8.488281 -13.96875 7.1875 -13.96875 L 4.171875 -13.96875 L 4.171875 -1.546875 Z M 7.1875 -1.546875 "/></g></g></g><g fill="#ffffff" fill-opacity="1"><g transform="translate(381.346429, 34.819542)"><g><path d="M 4.828125 0.21875 C 3.671875 0.21875 2.769531 -0.078125 2.125 -0.671875 C 1.476562 -1.273438 1.15625 -2.140625 1.15625 -3.265625 C 1.15625 -3.953125 1.296875 -4.535156 1.578125 -5.015625 C 1.867188 -5.492188 2.316406 -5.882812 2.921875 -6.1875 C 3.523438 -6.488281 4.3125 -6.71875 5.28125 -6.875 C 6.125 -7.019531 6.765625 -7.179688 7.203125 -7.359375 C 7.648438 -7.535156 7.953125 -7.734375 8.109375 -7.953125 C 8.265625 -8.171875 8.34375 -8.445312 8.34375 -8.78125 C 8.34375 -9.3125 8.160156 -9.71875 7.796875 -10 C 7.429688 -10.28125 6.84375 -10.421875 6.03125 -10.421875 C 5.269531 -10.421875 4.617188 -10.273438 4.078125 -9.984375 C 3.535156 -9.691406 3.039062 -9.253906 2.59375 -8.671875 L 2.375 -8.671875 L 1.53125 -9.875 C 2.019531 -10.507812 2.644531 -11.007812 3.40625 -11.375 C 4.175781 -11.75 5.050781 -11.9375 6.03125 -11.9375 C 7.414062 -11.9375 8.429688 -11.632812 9.078125 -11.03125 C 9.734375 -10.425781 10.0625 -9.585938 10.0625 -8.515625 L 10.0625 -2.296875 C 10.0625 -1.648438 10.335938 -1.328125 10.890625 -1.328125 C 11.078125 -1.328125 11.253906 -1.359375 11.421875 -1.421875 L 11.578125 -1.375 L 11.78125 -0.1875 C 11.65625 -0.09375 11.484375 -0.0234375 11.265625 0.015625 C 11.054688 0.0546875 10.84375 0.078125 10.625 0.078125 C 9.988281 0.078125 9.503906 -0.0625 9.171875 -0.34375 C 8.835938 -0.625 8.625 -1.039062 8.53125 -1.59375 L 8.3125 -1.609375 C 7.976562 -0.992188 7.53125 -0.535156 6.96875 -0.234375 C 6.40625 0.0664062 5.691406 0.21875 4.828125 0.21875 Z M 5.21875 -1.15625 C 5.863281 -1.15625 6.425781 -1.304688 6.90625 -1.609375 C 7.382812 -1.910156 7.75 -2.332031 8 -2.875 C 8.257812 -3.425781 8.390625 -4.054688 8.390625 -4.765625 L 8.390625 -6.25 L 8.1875 -6.296875 C 7.925781 -6.109375 7.609375 -5.953125 7.234375 -5.828125 C 6.859375 -5.710938 6.332031 -5.601562 5.65625 -5.5 C 4.976562 -5.40625 4.4375 -5.265625 4.03125 -5.078125 C 3.632812 -4.890625 3.351562 -4.644531 3.1875 -4.34375 C 3.019531 -4.050781 2.9375 -3.691406 2.9375 -3.265625 C 2.9375 -2.578125 3.132812 -2.050781 3.53125 -1.6875 C 3.9375 -1.332031 4.5 -1.15625 5.21875 -1.15625 Z M 5.21875 -1.15625 "/></g></g></g><g fill="#ffffff" fill-opacity="1"><g transform="translate(393.462424, 34.819542)"><g><path d="M 2.34375 4.96875 C 1.945312 4.96875 1.578125 4.929688 1.234375 4.859375 C 0.890625 4.796875 0.59375 4.707031 0.34375 4.59375 L 0.671875 3.21875 L 0.859375 3.15625 C 1.023438 3.238281 1.234375 3.3125 1.484375 3.375 C 1.742188 3.4375 2.007812 3.46875 2.28125 3.46875 C 2.757812 3.46875 3.148438 3.398438 3.453125 3.265625 C 3.765625 3.140625 4.03125 2.929688 4.25 2.640625 C 4.476562 2.347656 4.691406 1.941406 4.890625 1.421875 L 5.296875 0.28125 L 0.59375 -11.71875 L 2.46875 -11.71875 L 6.15625 -2.15625 L 6.34375 -2.15625 L 9.921875 -11.71875 L 11.6875 -11.71875 L 6.453125 1.84375 C 6.160156 2.59375 5.828125 3.191406 5.453125 3.640625 C 5.085938 4.097656 4.65625 4.429688 4.15625 4.640625 C 3.65625 4.859375 3.050781 4.96875 2.34375 4.96875 Z M 2.34375 4.96875 "/></g></g></g><g fill="#ffffff" fill-opacity="1"><g transform="translate(405.812032, 34.819542)"><g><path d="M 5.34375 0.21875 C 4.601562 0.21875 3.921875 0.125 3.296875 -0.0625 C 2.671875 -0.257812 2.140625 -0.523438 1.703125 -0.859375 C 1.273438 -1.203125 0.972656 -1.585938 0.796875 -2.015625 L 1.8125 -3.078125 L 2.046875 -3.078125 C 2.421875 -2.492188 2.878906 -2.054688 3.421875 -1.765625 C 3.960938 -1.472656 4.601562 -1.328125 5.34375 -1.328125 C 6.207031 -1.328125 6.863281 -1.492188 7.3125 -1.828125 C 7.757812 -2.171875 7.984375 -2.640625 7.984375 -3.234375 C 7.984375 -3.691406 7.847656 -4.070312 7.578125 -4.375 C 7.304688 -4.675781 6.863281 -4.90625 6.25 -5.0625 L 4.28125 -5.546875 C 3.226562 -5.796875 2.457031 -6.195312 1.96875 -6.75 C 1.488281 -7.300781 1.25 -7.984375 1.25 -8.796875 C 1.25 -9.441406 1.410156 -10 1.734375 -10.46875 C 2.054688 -10.9375 2.523438 -11.296875 3.140625 -11.546875 C 3.753906 -11.804688 4.484375 -11.9375 5.328125 -11.9375 C 6.398438 -11.9375 7.242188 -11.785156 7.859375 -11.484375 C 8.484375 -11.179688 8.96875 -10.765625 9.3125 -10.234375 L 8.34375 -9.265625 L 8.125 -9.265625 C 7.75 -9.703125 7.335938 -10.015625 6.890625 -10.203125 C 6.453125 -10.398438 5.929688 -10.5 5.328125 -10.5 C 4.546875 -10.5 3.953125 -10.359375 3.546875 -10.078125 C 3.140625 -9.804688 2.9375 -9.40625 2.9375 -8.875 C 2.9375 -8.40625 3.078125 -8.023438 3.359375 -7.734375 C 3.648438 -7.441406 4.160156 -7.207031 4.890625 -7.03125 L 6.828125 -6.5625 C 7.847656 -6.320312 8.582031 -5.921875 9.03125 -5.359375 C 9.488281 -4.804688 9.71875 -4.109375 9.71875 -3.265625 C 9.71875 -2.578125 9.550781 -1.96875 9.21875 -1.4375 C 8.894531 -0.914062 8.40625 -0.507812 7.75 -0.21875 C 7.09375 0.0703125 6.289062 0.21875 5.34375 0.21875 Z M 5.34375 0.21875 "/></g></g></g><g fill="#ffffff" fill-opacity="1"><g transform="translate(416.643153, 34.819542)"><g/></g></g><g fill="#ffffff" fill-opacity="1"><g transform="translate(421.973763, 34.819542)"><g><path d="M 13.96875 0 L 12.015625 0 L 10.59375 -4.265625 L 3.96875 -4.265625 L 2.53125 0 L 0.609375 0 L 6.03125 -15.53125 L 8.5625 -15.53125 Z M 7.140625 -13.640625 L 4.484375 -5.78125 L 10.0625 -5.78125 L 7.40625 -13.640625 Z M 7.140625 -13.640625 "/></g></g></g><g fill="#ffffff" fill-opacity="1"><g transform="translate(436.563919, 34.819542)"><g><path d="M 6.03125 4.96875 C 4.1875 4.96875 2.835938 4.660156 1.984375 4.046875 C 1.140625 3.429688 0.71875 2.613281 0.71875 1.59375 C 0.71875 0.9375 0.914062 0.410156 1.3125 0.015625 C 1.707031 -0.367188 2.28125 -0.644531 3.03125 -0.8125 L 3.03125 -1.046875 C 2.675781 -1.242188 2.40625 -1.476562 2.21875 -1.75 C 2.039062 -2.03125 1.953125 -2.363281 1.953125 -2.75 C 1.953125 -3.207031 2.09375 -3.578125 2.375 -3.859375 C 2.664062 -4.140625 3.09375 -4.351562 3.65625 -4.5 L 3.65625 -4.71875 C 2.382812 -5.394531 1.75 -6.488281 1.75 -8 C 1.75 -8.769531 1.921875 -9.453125 2.265625 -10.046875 C 2.617188 -10.640625 3.113281 -11.101562 3.75 -11.4375 C 4.394531 -11.769531 5.148438 -11.9375 6.015625 -11.9375 C 6.992188 -11.9375 7.8125 -11.722656 8.46875 -11.296875 C 8.71875 -11.566406 8.90625 -11.859375 9.03125 -12.171875 C 9.15625 -12.492188 9.234375 -12.851562 9.265625 -13.25 L 9.5 -13.375 L 10.921875 -13.046875 C 10.847656 -12.453125 10.664062 -11.945312 10.375 -11.53125 C 10.09375 -11.125 9.691406 -10.785156 9.171875 -10.515625 L 9.171875 -10.296875 C 9.546875 -9.992188 9.820312 -9.640625 10 -9.234375 C 10.175781 -8.835938 10.265625 -8.375 10.265625 -7.84375 C 10.265625 -7.113281 10.085938 -6.453125 9.734375 -5.859375 C 9.378906 -5.273438 8.878906 -4.8125 8.234375 -4.46875 C 7.597656 -4.132812 6.859375 -3.96875 6.015625 -3.96875 C 5.910156 -3.96875 5.734375 -3.976562 5.484375 -4 C 5.203125 -4.007812 4.992188 -4.015625 4.859375 -4.015625 C 4.484375 -4.015625 4.1875 -3.914062 3.96875 -3.71875 C 3.75 -3.53125 3.640625 -3.289062 3.640625 -3 C 3.640625 -2.625 3.757812 -2.347656 4 -2.171875 C 4.238281 -2.003906 4.628906 -1.910156 5.171875 -1.890625 L 7.9375 -1.796875 C 9.132812 -1.753906 10.019531 -1.472656 10.59375 -0.953125 C 11.175781 -0.441406 11.46875 0.28125 11.46875 1.21875 C 11.46875 1.914062 11.28125 2.546875 10.90625 3.109375 C 10.53125 3.679688 9.9375 4.132812 9.125 4.46875 C 8.3125 4.800781 7.28125 4.96875 6.03125 4.96875 Z M 6.015625 -5.453125 C 6.835938 -5.453125 7.472656 -5.664062 7.921875 -6.09375 C 8.378906 -6.53125 8.609375 -7.140625 8.609375 -7.921875 C 8.609375 -8.734375 8.382812 -9.359375 7.9375 -9.796875 C 7.488281 -10.234375 6.847656 -10.453125 6.015625 -10.453125 C 5.179688 -10.453125 4.539062 -10.234375 4.09375 -9.796875 C 3.65625 -9.359375 3.4375 -8.734375 3.4375 -7.921875 C 3.4375 -7.140625 3.65625 -6.53125 4.09375 -6.09375 C 4.539062 -5.664062 5.179688 -5.453125 6.015625 -5.453125 Z M 6.03125 3.484375 C 6.894531 3.484375 7.597656 3.382812 8.140625 3.1875 C 8.691406 3 9.085938 2.75 9.328125 2.4375 C 9.578125 2.125 9.703125 1.769531 9.703125 1.375 C 9.703125 1.03125 9.632812 0.75 9.5 0.53125 C 9.363281 0.320312 9.148438 0.164062 8.859375 0.0625 C 8.578125 -0.0390625 8.179688 -0.109375 7.671875 -0.140625 L 5.0625 -0.265625 L 4.6875 -0.265625 C 3.21875 -0.242188 2.484375 0.320312 2.484375 1.4375 C 2.484375 2.800781 3.664062 3.484375 6.03125 3.484375 Z M 6.03125 3.484375 "/></g></g></g><g fill="#ffffff" fill-opacity="1"><g transform="translate(448.563102, 34.819542)"><g><path d="M 6.71875 0.21875 C 5.613281 0.21875 4.648438 -0.0078125 3.828125 -0.46875 C 3.015625 -0.9375 2.382812 -1.625 1.9375 -2.53125 C 1.5 -3.445312 1.28125 -4.554688 1.28125 -5.859375 C 1.28125 -7.148438 1.5 -8.25 1.9375 -9.15625 C 2.382812 -10.070312 3.015625 -10.765625 3.828125 -11.234375 C 4.648438 -11.703125 5.613281 -11.9375 6.71875 -11.9375 C 7.820312 -11.9375 8.78125 -11.703125 9.59375 -11.234375 C 10.414062 -10.765625 11.046875 -10.070312 11.484375 -9.15625 C 11.929688 -8.25 12.15625 -7.148438 12.15625 -5.859375 C 12.15625 -4.554688 11.929688 -3.445312 11.484375 -2.53125 C 11.046875 -1.625 10.414062 -0.9375 9.59375 -0.46875 C 8.78125 -0.0078125 7.820312 0.21875 6.71875 0.21875 Z M 6.71875 -1.328125 C 7.882812 -1.328125 8.773438 -1.691406 9.390625 -2.421875 C 10.015625 -3.160156 10.328125 -4.304688 10.328125 -5.859375 C 10.328125 -7.398438 10.015625 -8.539062 9.390625 -9.28125 C 8.773438 -10.019531 7.882812 -10.390625 6.71875 -10.390625 C 5.550781 -10.390625 4.65625 -10.019531 4.03125 -9.28125 C 3.40625 -8.539062 3.09375 -7.398438 3.09375 -5.859375 C 3.09375 -4.304688 3.40625 -3.160156 4.03125 -2.421875 C 4.65625 -1.691406 5.550781 -1.328125 6.71875 -1.328125 Z M 6.71875 -1.328125 "/></g></g></g><g clip-path="url(#495ae90ae7)"><g clip-path="url(#7057b61ff2)"><path fill="#e7ad12" d="M 232.746094 54.28125 L 260.382812 54.28125 L 260.382812 80.578125 L 232.746094 80.578125 Z M 232.746094 54.28125 " fill-opacity="1" fill-rule="nonzero"/></g></g><g clip-path="url(#5730e3a7b2)"><g clip-path="url(#949d0b6ad7)"><path fill="#e7ad12" d="M 260.339844 54.28125 L 287.972656 54.28125 L 287.972656 80.578125 L 260.339844 80.578125 Z M 260.339844 54.28125 " fill-opacity="1" fill-rule="nonzero"/></g></g><g clip-path="url(#75fe88f104)"><g clip-path="url(#b8e81ec4db)"><path fill="#e7ad12" d="M 286.203125 54.28125 L 313.835938 54.28125 L 313.835938 80.578125 L 286.203125 80.578125 Z M 286.203125 54.28125 " fill-opacity="1" fill-rule="nonzero"/></g></g><g clip-path="url(#6f1d5ec1c7)"><g clip-path="url(#131d2fb90f)"><path fill="#e7ad12" d="M 312.632812 54.28125 L 340.265625 54.28125 L 340.265625 80.578125 L 312.632812 80.578125 Z M 312.632812 54.28125 " fill-opacity="1" fill-rule="nonzero"/></g></g><g clip-path="url(#539b96d3a6)"><g clip-path="url(#59856762d7)"><path fill="#e7ad12" d="M 339.660156 54.28125 L 367.292969 54.28125 L 367.292969 80.578125 L 339.660156 80.578125 Z M 339.660156 54.28125 " fill-opacity="1" fill-rule="nonzero"/></g></g><g clip-path="url(#bb74ef9f8c)"><g clip-path="url(#8f6bec404e)"><path fill="#ff0000" d="M 122.175781 14.625 L 156.886719 14.625 L 156.886719 41.121094 L 122.175781 41.121094 Z M 122.175781 14.625 " fill-opacity="1" fill-rule="nonzero"/></g></g><g clip-path="url(#f1dc61798d)"><g clip-path="url(#31de728a6c)"><path fill="#ffffff" d="M 130.851562 14.625 L 148.207031 14.625 L 148.207031 41.121094 L 130.851562 41.121094 Z M 139.855469 35.210938 L 139.695312 32.09375 C 139.683594 31.902344 139.832031 31.742188 140.019531 31.734375 C 140.046875 31.730469 140.070312 31.734375 140.09375 31.738281 L 143.199219 32.285156 L 142.78125 31.128906 C 142.746094 31.03125 142.773438 30.925781 142.851562 30.863281 L 146.253906 28.109375 L 145.488281 27.75 C 145.382812 27.699219 145.328125 27.578125 145.367188 27.464844 L 146.039062 25.394531 L 144.078125 25.8125 C 143.96875 25.835938 143.859375 25.777344 143.816406 25.675781 L 143.4375 24.78125 L 141.90625 26.421875 C 141.816406 26.515625 141.667969 26.519531 141.574219 26.433594 C 141.515625 26.375 141.488281 26.296875 141.503906 26.21875 L 142.242188 22.414062 L 141.058594 23.097656 C 140.949219 23.164062 140.804688 23.125 140.738281 23.011719 C 140.734375 23.007812 140.734375 23.003906 140.730469 23 L 139.53125 20.640625 L 138.332031 23 C 138.273438 23.117188 138.132812 23.164062 138.015625 23.105469 C 138.011719 23.101562 138.003906 23.097656 138 23.097656 L 136.820312 22.414062 L 137.554688 26.21875 C 137.582031 26.34375 137.496094 26.46875 137.371094 26.492188 C 137.292969 26.507812 137.210938 26.480469 137.15625 26.421875 L 135.625 24.78125 L 135.246094 25.675781 C 135.203125 25.777344 135.089844 25.835938 134.980469 25.8125 L 133.023438 25.394531 L 133.695312 27.464844 C 133.730469 27.578125 133.679688 27.699219 133.570312 27.75 L 132.804688 28.109375 L 136.207031 30.863281 C 136.285156 30.925781 136.316406 31.03125 136.28125 31.128906 L 135.859375 32.285156 L 138.964844 31.738281 C 139.152344 31.707031 139.332031 31.832031 139.363281 32.019531 C 139.367188 32.042969 139.371094 32.066406 139.367188 32.09375 L 139.207031 35.210938 Z M 139.855469 35.210938 " fill-opacity="1" fill-rule="nonzero"/></g></g><g clip-path="url(#43158e9eb3)"><path fill="#f1f1f1" d="M 139.558594 15.234375 C 132.5625 15.234375 126.871094 20.925781 126.871094 27.921875 L 139.558594 29.191406 L 152.246094 27.921875 C 152.246094 20.925781 146.554688 15.234375 139.558594 15.234375 Z M 139.558594 15.234375 " fill-opacity="1" fill-rule="nonzero"/></g><g clip-path="url(#21a71dcbc3)"><path fill="#e90000" d="M 152.242188 27.984375 C 152.242188 27.960938 152.246094 27.941406 152.246094 27.921875 L 126.871094 27.921875 C 126.871094 27.941406 126.871094 27.960938 126.871094 27.984375 C 126.90625 34.949219 132.582031 40.609375 139.558594 40.609375 C 146.53125 40.609375 152.210938 34.949219 152.242188 27.984375 Z M 152.242188 27.984375 " fill-opacity="1" fill-rule="nonzero"/></g></svg>