<svg xmlns="http://www.w3.org/2000/svg" xmlns:xlink="http://www.w3.org/1999/xlink" width="800" zoomAndPan="magnify" viewBox="0 0 600 97.5" height="130" preserveAspectRatio="xMidYMid meet" version="1.0"><defs><filter x="0%" y="0%" width="100%" height="100%" id="4edb40965b"><feColorMatrix values="0 0 0 0 1 0 0 0 0 1 0 0 0 0 1 0 0 0 1 0" color-interpolation-filters="sRGB"/></filter><g/><mask id="04feecc62d"><g filter="url(#4edb40965b)"><rect x="-60" width="720" fill="#000000" y="-9.75" height="117" fill-opacity="0.7"/></g></mask><clipPath id="3f80f5136e"><path d="M 1.027344 0.351562 L 595 0.351562 L 595 90.652344 L 1.027344 90.652344 Z M 1.027344 0.351562 " clip-rule="nonzero"/></clipPath><clipPath id="d8e4ab58cc"><path d="M 7.742188 0.351562 L 588.257812 0.351562 C 590.039062 0.351562 591.746094 1.058594 593.003906 2.316406 C 594.265625 3.574219 594.972656 5.285156 594.972656 7.066406 L 594.972656 83.9375 C 594.972656 85.71875 594.265625 87.425781 593.003906 88.6875 C 591.746094 89.945312 590.039062 90.652344 588.257812 90.652344 L 7.742188 90.652344 C 5.960938 90.652344 4.253906 89.945312 2.996094 88.6875 C 1.734375 87.425781 1.027344 85.71875 1.027344 83.9375 L 1.027344 7.066406 C 1.027344 5.285156 1.734375 3.574219 2.996094 2.316406 C 4.253906 1.058594 5.960938 0.351562 7.742188 0.351562 Z M 7.742188 0.351562 " clip-rule="nonzero"/></clipPath><clipPath id="fbad80988c"><rect x="0" width="596" y="0" height="91"/></clipPath><clipPath id="3aa29e2b77"><path d="M 232.746094 54.28125 L 260.382812 54.28125 L 260.382812 80.578125 L 232.746094 80.578125 Z M 232.746094 54.28125 " clip-rule="nonzero"/></clipPath><clipPath id="98edbeec00"><path d="M 246.542969 54.28125 L 249.800781 64.324219 L 260.339844 64.324219 L 251.8125 70.53125 L 255.070312 80.578125 L 246.542969 74.371094 L 238.015625 80.578125 L 241.273438 70.53125 L 232.746094 64.324219 L 243.285156 64.324219 Z M 246.542969 54.28125 " clip-rule="nonzero"/></clipPath><clipPath id="3da6bb8b87"><path d="M 260.339844 54.28125 L 287.972656 54.28125 L 287.972656 80.578125 L 260.339844 80.578125 Z M 260.339844 54.28125 " clip-rule="nonzero"/></clipPath><clipPath id="d072095766"><path d="M 274.132812 54.28125 L 277.390625 64.324219 L 287.929688 64.324219 L 279.402344 70.53125 L 282.660156 80.578125 L 274.132812 74.371094 L 265.609375 80.578125 L 268.867188 70.53125 L 260.339844 64.324219 L 270.878906 64.324219 Z M 274.132812 54.28125 " clip-rule="nonzero"/></clipPath><clipPath id="6af3513a1c"><path d="M 286.203125 54.28125 L 313.835938 54.28125 L 313.835938 80.578125 L 286.203125 80.578125 Z M 286.203125 54.28125 " clip-rule="nonzero"/></clipPath><clipPath id="13221d46c2"><path d="M 300 54.28125 L 303.257812 64.324219 L 313.796875 64.324219 L 305.269531 70.53125 L 308.527344 80.578125 L 300 74.371094 L 291.472656 80.578125 L 294.730469 70.53125 L 286.203125 64.324219 L 296.742188 64.324219 Z M 300 54.28125 " clip-rule="nonzero"/></clipPath><clipPath id="5c2d1bc789"><path d="M 312.632812 54.28125 L 340.265625 54.28125 L 340.265625 80.578125 L 312.632812 80.578125 Z M 312.632812 54.28125 " clip-rule="nonzero"/></clipPath><clipPath id="94047369a1"><path d="M 326.429688 54.28125 L 329.683594 64.324219 L 340.222656 64.324219 L 331.699219 70.53125 L 334.953125 80.578125 L 326.429688 74.371094 L 317.902344 80.578125 L 321.160156 70.53125 L 312.632812 64.324219 L 323.171875 64.324219 Z M 326.429688 54.28125 " clip-rule="nonzero"/></clipPath><clipPath id="cade54de2e"><path d="M 339.660156 54.28125 L 367.292969 54.28125 L 367.292969 80.578125 L 339.660156 80.578125 Z M 339.660156 54.28125 " clip-rule="nonzero"/></clipPath><clipPath id="4a85a91725"><path d="M 353.457031 54.28125 L 356.714844 64.324219 L 367.253906 64.324219 L 358.726562 70.53125 L 361.984375 80.578125 L 353.457031 74.371094 L 344.929688 80.578125 L 348.1875 70.53125 L 339.660156 64.324219 L 350.199219 64.324219 Z M 353.457031 54.28125 " clip-rule="nonzero"/></clipPath><clipPath id="c4714b537b"><path d="M 167 14.113281 L 174 14.113281 L 174 23 L 167 23 Z M 167 14.113281 " clip-rule="nonzero"/></clipPath><clipPath id="7c2593f651"><path d="M 152 14.113281 L 159 14.113281 L 159 23 L 152 23 Z M 152 14.113281 " clip-rule="nonzero"/></clipPath><clipPath id="361ae8b05c"><path d="M 152 32 L 159 32 L 159 40.972656 L 152 40.972656 Z M 152 32 " clip-rule="nonzero"/></clipPath><clipPath id="22ee1c1d0a"><path d="M 167 32 L 174 32 L 174 40.972656 L 167 40.972656 Z M 167 32 " clip-rule="nonzero"/></clipPath><clipPath id="a48bc7a5c2"><path d="M 165 30 L 176.46875 30 L 176.46875 40.972656 L 165 40.972656 Z M 165 30 " clip-rule="nonzero"/></clipPath><clipPath id="ccfb815aa2"><path d="M 165 14.113281 L 176.46875 14.113281 L 176.46875 25 L 165 25 Z M 165 14.113281 " clip-rule="nonzero"/></clipPath><clipPath id="e013a3bce2"><path d="M 149.605469 30 L 161 30 L 161 40.972656 L 149.605469 40.972656 Z M 149.605469 30 " clip-rule="nonzero"/></clipPath><clipPath id="20d753f359"><path d="M 149.605469 14.113281 L 161 14.113281 L 161 25 L 149.605469 25 Z M 149.605469 14.113281 " clip-rule="nonzero"/></clipPath><clipPath id="f91268d535"><path d="M 149.605469 14.113281 L 176.46875 14.113281 L 176.46875 40.972656 L 149.605469 40.972656 Z M 149.605469 14.113281 " clip-rule="nonzero"/></clipPath></defs><g mask="url(#04feecc62d)"><g transform="matrix(1, 0, 0, 1, 2, 3)"><g clip-path="url(#fbad80988c)"><g clip-path="url(#3f80f5136e)"><g clip-path="url(#d8e4ab58cc)"><path fill="#020512" d="M 1.027344 0.351562 L 595.050781 0.351562 L 595.050781 90.652344 L 1.027344 90.652344 Z M 1.027344 0.351562 " fill-opacity="1" fill-rule="nonzero"/></g></g></g></g></g><g fill="#ffffff" fill-opacity="1"><g transform="translate(186.953327, 34.819542)"><g><path d="M 13.96875 0 L 12.015625 0 L 10.59375 -4.265625 L 3.96875 -4.265625 L 2.53125 0 L 0.609375 0 L 6.03125 -15.53125 L 8.5625 -15.53125 Z M 7.140625 -13.640625 L 4.484375 -5.78125 L 10.0625 -5.78125 L 7.40625 -13.640625 Z M 7.140625 -13.640625 "/></g></g></g><g fill="#ffffff" fill-opacity="1"><g transform="translate(201.543484, 34.819542)"><g><path d="M 2.046875 0 L 2.046875 -11.71875 L 3.6875 -11.71875 L 3.6875 -9.875 L 3.90625 -9.828125 C 4.300781 -10.515625 4.800781 -11.035156 5.40625 -11.390625 C 6.007812 -11.753906 6.742188 -11.9375 7.609375 -11.9375 C 9.023438 -11.9375 10.046875 -11.578125 10.671875 -10.859375 C 11.304688 -10.140625 11.625 -9.035156 11.625 -7.546875 L 11.625 0 L 9.890625 0 L 9.890625 -7.5 C 9.890625 -8.207031 9.800781 -8.773438 9.625 -9.203125 C 9.445312 -9.628906 9.164062 -9.9375 8.78125 -10.125 C 8.40625 -10.320312 7.910156 -10.421875 7.296875 -10.421875 C 6.242188 -10.421875 5.390625 -10.070312 4.734375 -9.375 C 4.085938 -8.6875 3.765625 -7.566406 3.765625 -6.015625 L 3.765625 0 Z M 2.046875 0 "/></g></g></g><g fill="#ffffff" fill-opacity="1"><g transform="translate(215.029291, 34.819542)"><g><path d="M 6.71875 0.21875 C 5.613281 0.21875 4.648438 -0.0078125 3.828125 -0.46875 C 3.015625 -0.9375 2.382812 -1.625 1.9375 -2.53125 C 1.5 -3.445312 1.28125 -4.554688 1.28125 -5.859375 C 1.28125 -7.148438 1.5 -8.25 1.9375 -9.15625 C 2.382812 -10.070312 3.015625 -10.765625 3.828125 -11.234375 C 4.648438 -11.703125 5.613281 -11.9375 6.71875 -11.9375 C 7.820312 -11.9375 8.78125 -11.703125 9.59375 -11.234375 C 10.414062 -10.765625 11.046875 -10.070312 11.484375 -9.15625 C 11.929688 -8.25 12.15625 -7.148438 12.15625 -5.859375 C 12.15625 -4.554688 11.929688 -3.445312 11.484375 -2.53125 C 11.046875 -1.625 10.414062 -0.9375 9.59375 -0.46875 C 8.78125 -0.0078125 7.820312 0.21875 6.71875 0.21875 Z M 6.71875 -1.328125 C 7.882812 -1.328125 8.773438 -1.691406 9.390625 -2.421875 C 10.015625 -3.160156 10.328125 -4.304688 10.328125 -5.859375 C 10.328125 -7.398438 10.015625 -8.539062 9.390625 -9.28125 C 8.773438 -10.019531 7.882812 -10.390625 6.71875 -10.390625 C 5.550781 -10.390625 4.65625 -10.019531 4.03125 -9.28125 C 3.40625 -8.539062 3.09375 -7.398438 3.09375 -5.859375 C 3.09375 -4.304688 3.40625 -3.160156 4.03125 -2.421875 C 4.65625 -1.691406 5.550781 -1.328125 6.71875 -1.328125 Z M 6.71875 -1.328125 "/></g></g></g><g fill="#ffffff" fill-opacity="1"><g transform="translate(228.472623, 34.819542)"><g><path d="M 2.046875 0 L 2.046875 -11.71875 L 3.6875 -11.71875 L 3.6875 -9.875 L 3.90625 -9.828125 C 4.300781 -10.515625 4.800781 -11.035156 5.40625 -11.390625 C 6.007812 -11.753906 6.742188 -11.9375 7.609375 -11.9375 C 9.023438 -11.9375 10.046875 -11.578125 10.671875 -10.859375 C 11.304688 -10.140625 11.625 -9.035156 11.625 -7.546875 L 11.625 0 L 9.890625 0 L 9.890625 -7.5 C 9.890625 -8.207031 9.800781 -8.773438 9.625 -9.203125 C 9.445312 -9.628906 9.164062 -9.9375 8.78125 -10.125 C 8.40625 -10.320312 7.910156 -10.421875 7.296875 -10.421875 C 6.242188 -10.421875 5.390625 -10.070312 4.734375 -9.375 C 4.085938 -8.6875 3.765625 -7.566406 3.765625 -6.015625 L 3.765625 0 Z M 2.046875 0 "/></g></g></g><g fill="#ffffff" fill-opacity="1"><g transform="translate(241.95843, 34.819542)"><g><path d="M 2.34375 4.96875 C 1.945312 4.96875 1.578125 4.929688 1.234375 4.859375 C 0.890625 4.796875 0.59375 4.707031 0.34375 4.59375 L 0.671875 3.21875 L 0.859375 3.15625 C 1.023438 3.238281 1.234375 3.3125 1.484375 3.375 C 1.742188 3.4375 2.007812 3.46875 2.28125 3.46875 C 2.757812 3.46875 3.148438 3.398438 3.453125 3.265625 C 3.765625 3.140625 4.03125 2.929688 4.25 2.640625 C 4.476562 2.347656 4.691406 1.941406 4.890625 1.421875 L 5.296875 0.28125 L 0.59375 -11.71875 L 2.46875 -11.71875 L 6.15625 -2.15625 L 6.34375 -2.15625 L 9.921875 -11.71875 L 11.6875 -11.71875 L 6.453125 1.84375 C 6.160156 2.59375 5.828125 3.191406 5.453125 3.640625 C 5.085938 4.097656 4.65625 4.429688 4.15625 4.640625 C 3.65625 4.859375 3.050781 4.96875 2.34375 4.96875 Z M 2.34375 4.96875 "/></g></g></g><g fill="#ffffff" fill-opacity="1"><g transform="translate(254.308038, 34.819542)"><g><path d="M 2.046875 0 L 2.046875 -11.71875 L 3.6875 -11.71875 L 3.6875 -9.984375 L 3.90625 -9.9375 C 4.300781 -10.59375 4.78125 -11.085938 5.34375 -11.421875 C 5.90625 -11.765625 6.582031 -11.9375 7.375 -11.9375 C 8.28125 -11.9375 8.976562 -11.765625 9.46875 -11.421875 C 9.96875 -11.078125 10.351562 -10.523438 10.625 -9.765625 L 10.859375 -9.765625 C 11.253906 -10.472656 11.75 -11.007812 12.34375 -11.375 C 12.9375 -11.75 13.664062 -11.9375 14.53125 -11.9375 C 15.726562 -11.9375 16.625 -11.609375 17.21875 -10.953125 C 17.8125 -10.304688 18.109375 -9.316406 18.109375 -7.984375 L 18.109375 0 L 16.375 0 L 16.375 -7.9375 C 16.375 -8.789062 16.191406 -9.414062 15.828125 -9.8125 C 15.472656 -10.21875 14.898438 -10.421875 14.109375 -10.421875 C 13.179688 -10.421875 12.421875 -10.082031 11.828125 -9.40625 C 11.234375 -8.726562 10.9375 -7.609375 10.9375 -6.046875 L 10.9375 0 L 9.203125 0 L 9.203125 -7.9375 C 9.203125 -8.789062 9.023438 -9.414062 8.671875 -9.8125 C 8.316406 -10.21875 7.742188 -10.421875 6.953125 -10.421875 C 6.015625 -10.421875 5.25 -10.09375 4.65625 -9.4375 C 4.0625 -8.78125 3.765625 -7.710938 3.765625 -6.234375 L 3.765625 0 Z M 2.046875 0 "/></g></g></g><g fill="#ffffff" fill-opacity="1"><g transform="translate(274.27128, 34.819542)"><g><path d="M 6.71875 0.21875 C 5.613281 0.21875 4.648438 -0.0078125 3.828125 -0.46875 C 3.015625 -0.9375 2.382812 -1.625 1.9375 -2.53125 C 1.5 -3.445312 1.28125 -4.554688 1.28125 -5.859375 C 1.28125 -7.148438 1.5 -8.25 1.9375 -9.15625 C 2.382812 -10.070312 3.015625 -10.765625 3.828125 -11.234375 C 4.648438 -11.703125 5.613281 -11.9375 6.71875 -11.9375 C 7.820312 -11.9375 8.78125 -11.703125 9.59375 -11.234375 C 10.414062 -10.765625 11.046875 -10.070312 11.484375 -9.15625 C 11.929688 -8.25 12.15625 -7.148438 12.15625 -5.859375 C 12.15625 -4.554688 11.929688 -3.445312 11.484375 -2.53125 C 11.046875 -1.625 10.414062 -0.9375 9.59375 -0.46875 C 8.78125 -0.0078125 7.820312 0.21875 6.71875 0.21875 Z M 6.71875 -1.328125 C 7.882812 -1.328125 8.773438 -1.691406 9.390625 -2.421875 C 10.015625 -3.160156 10.328125 -4.304688 10.328125 -5.859375 C 10.328125 -7.398438 10.015625 -8.539062 9.390625 -9.28125 C 8.773438 -10.019531 7.882812 -10.390625 6.71875 -10.390625 C 5.550781 -10.390625 4.65625 -10.019531 4.03125 -9.28125 C 3.40625 -8.539062 3.09375 -7.398438 3.09375 -5.859375 C 3.09375 -4.304688 3.40625 -3.160156 4.03125 -2.421875 C 4.65625 -1.691406 5.550781 -1.328125 6.71875 -1.328125 Z M 6.71875 -1.328125 "/></g></g></g><g fill="#ffffff" fill-opacity="1"><g transform="translate(287.714612, 34.819542)"><g><path d="M 5.78125 0.21875 C 4.457031 0.21875 3.472656 -0.128906 2.828125 -0.828125 C 2.179688 -1.523438 1.859375 -2.550781 1.859375 -3.90625 L 1.859375 -11.71875 L 3.59375 -11.71875 L 3.59375 -3.953125 C 3.59375 -2.171875 4.425781 -1.28125 6.09375 -1.28125 C 7.15625 -1.28125 7.992188 -1.625 8.609375 -2.3125 C 9.222656 -3.007812 9.53125 -4.140625 9.53125 -5.703125 L 9.53125 -11.71875 L 11.265625 -11.71875 L 11.265625 0 L 9.625 0 L 9.625 -1.84375 L 9.40625 -1.890625 C 9 -1.171875 8.515625 -0.640625 7.953125 -0.296875 C 7.390625 0.046875 6.664062 0.21875 5.78125 0.21875 Z M 5.78125 0.21875 "/></g></g></g><g fill="#ffffff" fill-opacity="1"><g transform="translate(301.019907, 34.819542)"><g><path d="M 5.34375 0.21875 C 4.601562 0.21875 3.921875 0.125 3.296875 -0.0625 C 2.671875 -0.257812 2.140625 -0.523438 1.703125 -0.859375 C 1.273438 -1.203125 0.972656 -1.585938 0.796875 -2.015625 L 1.8125 -3.078125 L 2.046875 -3.078125 C 2.421875 -2.492188 2.878906 -2.054688 3.421875 -1.765625 C 3.960938 -1.472656 4.601562 -1.328125 5.34375 -1.328125 C 6.207031 -1.328125 6.863281 -1.492188 7.3125 -1.828125 C 7.757812 -2.171875 7.984375 -2.640625 7.984375 -3.234375 C 7.984375 -3.691406 7.847656 -4.070312 7.578125 -4.375 C 7.304688 -4.675781 6.863281 -4.90625 6.25 -5.0625 L 4.28125 -5.546875 C 3.226562 -5.796875 2.457031 -6.195312 1.96875 -6.75 C 1.488281 -7.300781 1.25 -7.984375 1.25 -8.796875 C 1.25 -9.441406 1.410156 -10 1.734375 -10.46875 C 2.054688 -10.9375 2.523438 -11.296875 3.140625 -11.546875 C 3.753906 -11.804688 4.484375 -11.9375 5.328125 -11.9375 C 6.398438 -11.9375 7.242188 -11.785156 7.859375 -11.484375 C 8.484375 -11.179688 8.96875 -10.765625 9.3125 -10.234375 L 8.34375 -9.265625 L 8.125 -9.265625 C 7.75 -9.703125 7.335938 -10.015625 6.890625 -10.203125 C 6.453125 -10.398438 5.929688 -10.5 5.328125 -10.5 C 4.546875 -10.5 3.953125 -10.359375 3.546875 -10.078125 C 3.140625 -9.804688 2.9375 -9.40625 2.9375 -8.875 C 2.9375 -8.40625 3.078125 -8.023438 3.359375 -7.734375 C 3.648438 -7.441406 4.160156 -7.207031 4.890625 -7.03125 L 6.828125 -6.5625 C 7.847656 -6.320312 8.582031 -5.921875 9.03125 -5.359375 C 9.488281 -4.804688 9.71875 -4.109375 9.71875 -3.265625 C 9.71875 -2.578125 9.550781 -1.96875 9.21875 -1.4375 C 8.894531 -0.914062 8.40625 -0.507812 7.75 -0.21875 C 7.09375 0.0703125 6.289062 0.21875 5.34375 0.21875 Z M 5.34375 0.21875 "/></g></g></g><g fill="#ffffff" fill-opacity="1"><g transform="translate(311.851027, 34.819542)"><g><path d="M 0.671875 3.234375 C 1.285156 2.835938 1.804688 2.375 2.234375 1.84375 C 2.660156 1.3125 2.878906 0.722656 2.890625 0.078125 C 2.472656 0.078125 2.144531 -0.03125 1.90625 -0.25 C 1.664062 -0.476562 1.546875 -0.78125 1.546875 -1.15625 C 1.546875 -1.519531 1.660156 -1.820312 1.890625 -2.0625 C 2.117188 -2.300781 2.425781 -2.421875 2.8125 -2.421875 C 3.226562 -2.421875 3.566406 -2.273438 3.828125 -1.984375 C 4.085938 -1.691406 4.21875 -1.234375 4.21875 -0.609375 C 4.21875 0.492188 3.976562 1.421875 3.5 2.171875 C 3.03125 2.921875 2.332031 3.609375 1.40625 4.234375 Z M 0.671875 3.234375 "/></g></g></g><g fill="#ffffff" fill-opacity="1"><g transform="translate(317.624298, 34.819542)"><g/></g></g><g fill="#ffffff" fill-opacity="1"><g transform="translate(322.954909, 34.819542)"><g><path d="M 6.390625 0.21875 C 4.941406 0.21875 3.78125 -0.0976562 2.90625 -0.734375 C 2.039062 -1.378906 1.476562 -2.296875 1.21875 -3.484375 L 2.5625 -4.09375 L 2.8125 -4.0625 C 2.988281 -3.457031 3.21875 -2.960938 3.5 -2.578125 C 3.789062 -2.191406 4.171875 -1.898438 4.640625 -1.703125 C 5.109375 -1.515625 5.691406 -1.421875 6.390625 -1.421875 C 7.441406 -1.421875 8.257812 -1.734375 8.84375 -2.359375 C 9.425781 -2.984375 9.71875 -3.894531 9.71875 -5.09375 C 9.71875 -6.3125 9.429688 -7.238281 8.859375 -7.875 C 8.285156 -8.507812 7.492188 -8.828125 6.484375 -8.828125 C 5.710938 -8.828125 5.082031 -8.671875 4.59375 -8.359375 C 4.113281 -8.046875 3.691406 -7.566406 3.328125 -6.921875 L 1.859375 -7.046875 L 2.15625 -15.53125 L 10.859375 -15.53125 L 10.859375 -13.96875 L 3.75 -13.96875 L 3.5625 -8.828125 L 3.796875 -8.78125 C 4.160156 -9.320312 4.601562 -9.722656 5.125 -9.984375 C 5.65625 -10.253906 6.289062 -10.390625 7.03125 -10.390625 C 7.957031 -10.390625 8.765625 -10.179688 9.453125 -9.765625 C 10.148438 -9.347656 10.6875 -8.742188 11.0625 -7.953125 C 11.4375 -7.160156 11.625 -6.207031 11.625 -5.09375 C 11.625 -3.988281 11.40625 -3.035156 10.96875 -2.234375 C 10.539062 -1.441406 9.929688 -0.832031 9.140625 -0.40625 C 8.347656 0.0078125 7.429688 0.21875 6.390625 0.21875 Z M 6.390625 0.21875 "/></g></g></g><g fill="#ffffff" fill-opacity="1"><g transform="translate(335.803591, 34.819542)"><g/></g></g><g fill="#ffffff" fill-opacity="1"><g transform="translate(341.134201, 34.819542)"><g><path d="M 7.375 -15.53125 C 8.945312 -15.53125 10.296875 -15.25 11.421875 -14.6875 C 12.546875 -14.125 13.414062 -13.265625 14.03125 -12.109375 C 14.644531 -10.953125 14.953125 -9.503906 14.953125 -7.765625 C 14.953125 -6.023438 14.644531 -4.578125 14.03125 -3.421875 C 13.414062 -2.265625 12.546875 -1.40625 11.421875 -0.84375 C 10.296875 -0.28125 8.945312 0 7.375 0 L 2.34375 0 L 2.34375 -15.53125 Z M 7.1875 -1.546875 C 8.488281 -1.546875 9.5625 -1.75 10.40625 -2.15625 C 11.257812 -2.5625 11.90625 -3.21875 12.34375 -4.125 C 12.78125 -5.039062 13 -6.253906 13 -7.765625 C 13 -9.273438 12.78125 -10.484375 12.34375 -11.390625 C 11.90625 -12.304688 11.257812 -12.960938 10.40625 -13.359375 C 9.5625 -13.765625 8.488281 -13.96875 7.1875 -13.96875 L 4.171875 -13.96875 L 4.171875 -1.546875 Z M 7.1875 -1.546875 "/></g></g></g><g fill="#ffffff" fill-opacity="1"><g transform="translate(357.635732, 34.819542)"><g><path d="M 4.828125 0.21875 C 3.671875 0.21875 2.769531 -0.078125 2.125 -0.671875 C 1.476562 -1.273438 1.15625 -2.140625 1.15625 -3.265625 C 1.15625 -3.953125 1.296875 -4.535156 1.578125 -5.015625 C 1.867188 -5.492188 2.316406 -5.882812 2.921875 -6.1875 C 3.523438 -6.488281 4.3125 -6.71875 5.28125 -6.875 C 6.125 -7.019531 6.765625 -7.179688 7.203125 -7.359375 C 7.648438 -7.535156 7.953125 -7.734375 8.109375 -7.953125 C 8.265625 -8.171875 8.34375 -8.445312 8.34375 -8.78125 C 8.34375 -9.3125 8.160156 -9.71875 7.796875 -10 C 7.429688 -10.28125 6.84375 -10.421875 6.03125 -10.421875 C 5.269531 -10.421875 4.617188 -10.273438 4.078125 -9.984375 C 3.535156 -9.691406 3.039062 -9.253906 2.59375 -8.671875 L 2.375 -8.671875 L 1.53125 -9.875 C 2.019531 -10.507812 2.644531 -11.007812 3.40625 -11.375 C 4.175781 -11.75 5.050781 -11.9375 6.03125 -11.9375 C 7.414062 -11.9375 8.429688 -11.632812 9.078125 -11.03125 C 9.734375 -10.425781 10.0625 -9.585938 10.0625 -8.515625 L 10.0625 -2.296875 C 10.0625 -1.648438 10.335938 -1.328125 10.890625 -1.328125 C 11.078125 -1.328125 11.253906 -1.359375 11.421875 -1.421875 L 11.578125 -1.375 L 11.78125 -0.1875 C 11.65625 -0.09375 11.484375 -0.0234375 11.265625 0.015625 C 11.054688 0.0546875 10.84375 0.078125 10.625 0.078125 C 9.988281 0.078125 9.503906 -0.0625 9.171875 -0.34375 C 8.835938 -0.625 8.625 -1.039062 8.53125 -1.59375 L 8.3125 -1.609375 C 7.976562 -0.992188 7.53125 -0.535156 6.96875 -0.234375 C 6.40625 0.0664062 5.691406 0.21875 4.828125 0.21875 Z M 5.21875 -1.15625 C 5.863281 -1.15625 6.425781 -1.304688 6.90625 -1.609375 C 7.382812 -1.910156 7.75 -2.332031 8 -2.875 C 8.257812 -3.425781 8.390625 -4.054688 8.390625 -4.765625 L 8.390625 -6.25 L 8.1875 -6.296875 C 7.925781 -6.109375 7.609375 -5.953125 7.234375 -5.828125 C 6.859375 -5.710938 6.332031 -5.601562 5.65625 -5.5 C 4.976562 -5.40625 4.4375 -5.265625 4.03125 -5.078125 C 3.632812 -4.890625 3.351562 -4.644531 3.1875 -4.34375 C 3.019531 -4.050781 2.9375 -3.691406 2.9375 -3.265625 C 2.9375 -2.578125 3.132812 -2.050781 3.53125 -1.6875 C 3.9375 -1.332031 4.5 -1.15625 5.21875 -1.15625 Z M 5.21875 -1.15625 "/></g></g></g><g fill="#ffffff" fill-opacity="1"><g transform="translate(369.751728, 34.819542)"><g><path d="M 2.34375 4.96875 C 1.945312 4.96875 1.578125 4.929688 1.234375 4.859375 C 0.890625 4.796875 0.59375 4.707031 0.34375 4.59375 L 0.671875 3.21875 L 0.859375 3.15625 C 1.023438 3.238281 1.234375 3.3125 1.484375 3.375 C 1.742188 3.4375 2.007812 3.46875 2.28125 3.46875 C 2.757812 3.46875 3.148438 3.398438 3.453125 3.265625 C 3.765625 3.140625 4.03125 2.929688 4.25 2.640625 C 4.476562 2.347656 4.691406 1.941406 4.890625 1.421875 L 5.296875 0.28125 L 0.59375 -11.71875 L 2.46875 -11.71875 L 6.15625 -2.15625 L 6.34375 -2.15625 L 9.921875 -11.71875 L 11.6875 -11.71875 L 6.453125 1.84375 C 6.160156 2.59375 5.828125 3.191406 5.453125 3.640625 C 5.085938 4.097656 4.65625 4.429688 4.15625 4.640625 C 3.65625 4.859375 3.050781 4.96875 2.34375 4.96875 Z M 2.34375 4.96875 "/></g></g></g><g fill="#ffffff" fill-opacity="1"><g transform="translate(382.101336, 34.819542)"><g><path d="M 5.34375 0.21875 C 4.601562 0.21875 3.921875 0.125 3.296875 -0.0625 C 2.671875 -0.257812 2.140625 -0.523438 1.703125 -0.859375 C 1.273438 -1.203125 0.972656 -1.585938 0.796875 -2.015625 L 1.8125 -3.078125 L 2.046875 -3.078125 C 2.421875 -2.492188 2.878906 -2.054688 3.421875 -1.765625 C 3.960938 -1.472656 4.601562 -1.328125 5.34375 -1.328125 C 6.207031 -1.328125 6.863281 -1.492188 7.3125 -1.828125 C 7.757812 -2.171875 7.984375 -2.640625 7.984375 -3.234375 C 7.984375 -3.691406 7.847656 -4.070312 7.578125 -4.375 C 7.304688 -4.675781 6.863281 -4.90625 6.25 -5.0625 L 4.28125 -5.546875 C 3.226562 -5.796875 2.457031 -6.195312 1.96875 -6.75 C 1.488281 -7.300781 1.25 -7.984375 1.25 -8.796875 C 1.25 -9.441406 1.410156 -10 1.734375 -10.46875 C 2.054688 -10.9375 2.523438 -11.296875 3.140625 -11.546875 C 3.753906 -11.804688 4.484375 -11.9375 5.328125 -11.9375 C 6.398438 -11.9375 7.242188 -11.785156 7.859375 -11.484375 C 8.484375 -11.179688 8.96875 -10.765625 9.3125 -10.234375 L 8.34375 -9.265625 L 8.125 -9.265625 C 7.75 -9.703125 7.335938 -10.015625 6.890625 -10.203125 C 6.453125 -10.398438 5.929688 -10.5 5.328125 -10.5 C 4.546875 -10.5 3.953125 -10.359375 3.546875 -10.078125 C 3.140625 -9.804688 2.9375 -9.40625 2.9375 -8.875 C 2.9375 -8.40625 3.078125 -8.023438 3.359375 -7.734375 C 3.648438 -7.441406 4.160156 -7.207031 4.890625 -7.03125 L 6.828125 -6.5625 C 7.847656 -6.320312 8.582031 -5.921875 9.03125 -5.359375 C 9.488281 -4.804688 9.71875 -4.109375 9.71875 -3.265625 C 9.71875 -2.578125 9.550781 -1.96875 9.21875 -1.4375 C 8.894531 -0.914062 8.40625 -0.507812 7.75 -0.21875 C 7.09375 0.0703125 6.289062 0.21875 5.34375 0.21875 Z M 5.34375 0.21875 "/></g></g></g><g fill="#ffffff" fill-opacity="1"><g transform="translate(392.932456, 34.819542)"><g/></g></g><g fill="#ffffff" fill-opacity="1"><g transform="translate(398.263067, 34.819542)"><g><path d="M 13.96875 0 L 12.015625 0 L 10.59375 -4.265625 L 3.96875 -4.265625 L 2.53125 0 L 0.609375 0 L 6.03125 -15.53125 L 8.5625 -15.53125 Z M 7.140625 -13.640625 L 4.484375 -5.78125 L 10.0625 -5.78125 L 7.40625 -13.640625 Z M 7.140625 -13.640625 "/></g></g></g><g fill="#ffffff" fill-opacity="1"><g transform="translate(412.853223, 34.819542)"><g><path d="M 6.03125 4.96875 C 4.1875 4.96875 2.835938 4.660156 1.984375 4.046875 C 1.140625 3.429688 0.71875 2.613281 0.71875 1.59375 C 0.71875 0.9375 0.914062 0.410156 1.3125 0.015625 C 1.707031 -0.367188 2.28125 -0.644531 3.03125 -0.8125 L 3.03125 -1.046875 C 2.675781 -1.242188 2.40625 -1.476562 2.21875 -1.75 C 2.039062 -2.03125 1.953125 -2.363281 1.953125 -2.75 C 1.953125 -3.207031 2.09375 -3.578125 2.375 -3.859375 C 2.664062 -4.140625 3.09375 -4.351562 3.65625 -4.5 L 3.65625 -4.71875 C 2.382812 -5.394531 1.75 -6.488281 1.75 -8 C 1.75 -8.769531 1.921875 -9.453125 2.265625 -10.046875 C 2.617188 -10.640625 3.113281 -11.101562 3.75 -11.4375 C 4.394531 -11.769531 5.148438 -11.9375 6.015625 -11.9375 C 6.992188 -11.9375 7.8125 -11.722656 8.46875 -11.296875 C 8.71875 -11.566406 8.90625 -11.859375 9.03125 -12.171875 C 9.15625 -12.492188 9.234375 -12.851562 9.265625 -13.25 L 9.5 -13.375 L 10.921875 -13.046875 C 10.847656 -12.453125 10.664062 -11.945312 10.375 -11.53125 C 10.09375 -11.125 9.691406 -10.785156 9.171875 -10.515625 L 9.171875 -10.296875 C 9.546875 -9.992188 9.820312 -9.640625 10 -9.234375 C 10.175781 -8.835938 10.265625 -8.375 10.265625 -7.84375 C 10.265625 -7.113281 10.085938 -6.453125 9.734375 -5.859375 C 9.378906 -5.273438 8.878906 -4.8125 8.234375 -4.46875 C 7.597656 -4.132812 6.859375 -3.96875 6.015625 -3.96875 C 5.910156 -3.96875 5.734375 -3.976562 5.484375 -4 C 5.203125 -4.007812 4.992188 -4.015625 4.859375 -4.015625 C 4.484375 -4.015625 4.1875 -3.914062 3.96875 -3.71875 C 3.75 -3.53125 3.640625 -3.289062 3.640625 -3 C 3.640625 -2.625 3.757812 -2.347656 4 -2.171875 C 4.238281 -2.003906 4.628906 -1.910156 5.171875 -1.890625 L 7.9375 -1.796875 C 9.132812 -1.753906 10.019531 -1.472656 10.59375 -0.953125 C 11.175781 -0.441406 11.46875 0.28125 11.46875 1.21875 C 11.46875 1.914062 11.28125 2.546875 10.90625 3.109375 C 10.53125 3.679688 9.9375 4.132812 9.125 4.46875 C 8.3125 4.800781 7.28125 4.96875 6.03125 4.96875 Z M 6.015625 -5.453125 C 6.835938 -5.453125 7.472656 -5.664062 7.921875 -6.09375 C 8.378906 -6.53125 8.609375 -7.140625 8.609375 -7.921875 C 8.609375 -8.734375 8.382812 -9.359375 7.9375 -9.796875 C 7.488281 -10.234375 6.847656 -10.453125 6.015625 -10.453125 C 5.179688 -10.453125 4.539062 -10.234375 4.09375 -9.796875 C 3.65625 -9.359375 3.4375 -8.734375 3.4375 -7.921875 C 3.4375 -7.140625 3.65625 -6.53125 4.09375 -6.09375 C 4.539062 -5.664062 5.179688 -5.453125 6.015625 -5.453125 Z M 6.03125 3.484375 C 6.894531 3.484375 7.597656 3.382812 8.140625 3.1875 C 8.691406 3 9.085938 2.75 9.328125 2.4375 C 9.578125 2.125 9.703125 1.769531 9.703125 1.375 C 9.703125 1.03125 9.632812 0.75 9.5 0.53125 C 9.363281 0.320312 9.148438 0.164062 8.859375 0.0625 C 8.578125 -0.0390625 8.179688 -0.109375 7.671875 -0.140625 L 5.0625 -0.265625 L 4.6875 -0.265625 C 3.21875 -0.242188 2.484375 0.320312 2.484375 1.4375 C 2.484375 2.800781 3.664062 3.484375 6.03125 3.484375 Z M 6.03125 3.484375 "/></g></g></g><g fill="#ffffff" fill-opacity="1"><g transform="translate(424.852406, 34.819542)"><g><path d="M 6.71875 0.21875 C 5.613281 0.21875 4.648438 -0.0078125 3.828125 -0.46875 C 3.015625 -0.9375 2.382812 -1.625 1.9375 -2.53125 C 1.5 -3.445312 1.28125 -4.554688 1.28125 -5.859375 C 1.28125 -7.148438 1.5 -8.25 1.9375 -9.15625 C 2.382812 -10.070312 3.015625 -10.765625 3.828125 -11.234375 C 4.648438 -11.703125 5.613281 -11.9375 6.71875 -11.9375 C 7.820312 -11.9375 8.78125 -11.703125 9.59375 -11.234375 C 10.414062 -10.765625 11.046875 -10.070312 11.484375 -9.15625 C 11.929688 -8.25 12.15625 -7.148438 12.15625 -5.859375 C 12.15625 -4.554688 11.929688 -3.445312 11.484375 -2.53125 C 11.046875 -1.625 10.414062 -0.9375 9.59375 -0.46875 C 8.78125 -0.0078125 7.820312 0.21875 6.71875 0.21875 Z M 6.71875 -1.328125 C 7.882812 -1.328125 8.773438 -1.691406 9.390625 -2.421875 C 10.015625 -3.160156 10.328125 -4.304688 10.328125 -5.859375 C 10.328125 -7.398438 10.015625 -8.539062 9.390625 -9.28125 C 8.773438 -10.019531 7.882812 -10.390625 6.71875 -10.390625 C 5.550781 -10.390625 4.65625 -10.019531 4.03125 -9.28125 C 3.40625 -8.539062 3.09375 -7.398438 3.09375 -5.859375 C 3.09375 -4.304688 3.40625 -3.160156 4.03125 -2.421875 C 4.65625 -1.691406 5.550781 -1.328125 6.71875 -1.328125 Z M 6.71875 -1.328125 "/></g></g></g><g clip-path="url(#3aa29e2b77)"><g clip-path="url(#98edbeec00)"><path fill="#e7ad12" d="M 232.746094 54.28125 L 260.382812 54.28125 L 260.382812 80.578125 L 232.746094 80.578125 Z M 232.746094 54.28125 " fill-opacity="1" fill-rule="nonzero"/></g></g><g clip-path="url(#3da6bb8b87)"><g clip-path="url(#d072095766)"><path fill="#e7ad12" d="M 260.339844 54.28125 L 287.972656 54.28125 L 287.972656 80.578125 L 260.339844 80.578125 Z M 260.339844 54.28125 " fill-opacity="1" fill-rule="nonzero"/></g></g><g clip-path="url(#6af3513a1c)"><g clip-path="url(#13221d46c2)"><path fill="#e7ad12" d="M 286.203125 54.28125 L 313.835938 54.28125 L 313.835938 80.578125 L 286.203125 80.578125 Z M 286.203125 54.28125 " fill-opacity="1" fill-rule="nonzero"/></g></g><g clip-path="url(#5c2d1bc789)"><g clip-path="url(#94047369a1)"><path fill="#e7ad12" d="M 312.632812 54.28125 L 340.265625 54.28125 L 340.265625 80.578125 L 312.632812 80.578125 Z M 312.632812 54.28125 " fill-opacity="1" fill-rule="nonzero"/></g></g><g clip-path="url(#cade54de2e)"><g clip-path="url(#4a85a91725)"><path fill="#e7ad12" d="M 339.660156 54.28125 L 367.292969 54.28125 L 367.292969 80.578125 L 339.660156 80.578125 Z M 339.660156 54.28125 " fill-opacity="1" fill-rule="nonzero"/></g></g><g clip-path="url(#c4714b537b)"><path fill="#273376" d="M 173.863281 19.597656 C 172.296875 17.460938 170.109375 15.808594 167.570312 14.894531 L 167.570312 22.746094 L 173.863281 19.597656 " fill-opacity="1" fill-rule="nonzero"/></g><g clip-path="url(#7c2593f651)"><path fill="#273376" d="M 158.519531 22.746094 L 158.519531 14.886719 C 155.972656 15.796875 153.78125 17.453125 152.207031 19.589844 L 158.519531 22.746094 " fill-opacity="1" fill-rule="nonzero"/></g><g clip-path="url(#361ae8b05c)"><path fill="#273376" d="M 158.519531 32.332031 L 152.207031 35.488281 C 153.78125 37.625 155.972656 39.28125 158.519531 40.191406 L 158.519531 32.332031 " fill-opacity="1" fill-rule="nonzero"/></g><g clip-path="url(#22ee1c1d0a)"><path fill="#273376" d="M 167.570312 40.183594 C 170.109375 39.269531 172.296875 37.617188 173.863281 35.480469 L 167.570312 32.332031 L 167.570312 40.183594 " fill-opacity="1" fill-rule="nonzero"/></g><path fill="#ffffff" d="M 158.519531 22.746094 L 152.207031 19.589844 C 151.761719 20.199219 151.363281 20.847656 151.023438 21.53125 L 153.929688 22.980469 L 150.957031 22.980469 L 150.484375 22.746094 C 150.453125 22.835938 150.417969 22.925781 150.386719 23.015625 L 158.519531 23.015625 L 158.519531 22.746094 " fill-opacity="1" fill-rule="nonzero"/><path fill="#ffffff" d="M 167.570312 23.015625 L 169.058594 23.015625 L 174.378906 20.355469 C 174.21875 20.097656 174.042969 19.84375 173.863281 19.597656 L 167.570312 22.746094 L 167.570312 23.015625 " fill-opacity="1" fill-rule="nonzero"/><path fill="#ffffff" d="M 175.109375 32.082031 L 175.585938 32.320312 C 175.617188 32.234375 175.648438 32.152344 175.679688 32.066406 L 167.570312 32.066406 L 167.570312 32.332031 L 173.863281 35.480469 C 174.3125 34.871094 174.710938 34.222656 175.050781 33.539062 L 172.140625 32.082031 L 175.109375 32.082031 " fill-opacity="1" fill-rule="nonzero"/><path fill="#ffffff" d="M 153.925781 32.066406 L 150.386719 32.066406 C 150.566406 32.566406 150.773438 33.054688 151.007812 33.523438 L 153.925781 32.066406 " fill-opacity="1" fill-rule="nonzero"/><path fill="#ffffff" d="M 158.519531 32.332031 L 158.519531 32.066406 L 156.980469 32.066406 L 151.679688 34.714844 C 151.847656 34.980469 152.023438 35.238281 152.207031 35.488281 L 158.519531 32.332031 " fill-opacity="1" fill-rule="nonzero"/><path fill="#ffffff" d="M 175.679688 23.015625 C 175.5 22.507812 175.289062 22.019531 175.050781 21.542969 L 172.113281 23.015625 L 175.679688 23.015625 " fill-opacity="1" fill-rule="nonzero"/><g clip-path="url(#a48bc7a5c2)"><path fill="#ffffff" d="M 167.570312 32.066406 L 175.679688 32.066406 C 175.890625 31.480469 176.0625 30.875 176.1875 30.253906 L 165.761719 30.253906 L 165.761719 40.691406 C 166.378906 40.5625 166.984375 40.394531 167.570312 40.183594 L 167.570312 32.066406 " fill-opacity="1" fill-rule="nonzero"/></g><g clip-path="url(#ccfb815aa2)"><path fill="#ffffff" d="M 165.761719 24.824219 L 176.1875 24.824219 C 176.0625 24.203125 175.890625 23.601562 175.679688 23.015625 L 167.570312 23.015625 L 167.570312 14.894531 C 166.984375 14.6875 166.378906 14.515625 165.761719 14.386719 L 165.761719 24.824219 " fill-opacity="1" fill-rule="nonzero"/></g><g clip-path="url(#e013a3bce2)"><path fill="#ffffff" d="M 160.328125 30.253906 L 149.878906 30.253906 C 150.007812 30.875 150.175781 31.480469 150.386719 32.066406 L 153.925781 32.066406 L 153.957031 32.050781 L 157.007812 32.050781 L 156.980469 32.066406 L 158.519531 32.066406 L 158.519531 40.191406 C 159.105469 40.398438 159.707031 40.570312 160.328125 40.695312 L 160.328125 30.253906 " fill-opacity="1" fill-rule="nonzero"/></g><g clip-path="url(#20d753f359)"><path fill="#ffffff" d="M 160.328125 24.824219 L 160.328125 14.382812 C 159.707031 14.507812 159.105469 14.679688 158.519531 14.886719 L 158.519531 23.015625 L 150.386719 23.015625 C 150.175781 23.601562 150.007812 24.203125 149.878906 24.824219 L 160.328125 24.824219 " fill-opacity="1" fill-rule="nonzero"/></g><g clip-path="url(#f91268d535)"><path fill="#d21d2c" d="M 165.761719 30.253906 L 176.1875 30.253906 C 176.367188 29.378906 176.464844 28.46875 176.464844 27.539062 C 176.464844 26.609375 176.367188 25.703125 176.1875 24.824219 L 165.761719 24.824219 L 165.761719 14.386719 C 164.878906 14.207031 163.96875 14.109375 163.035156 14.109375 C 162.105469 14.109375 161.203125 14.203125 160.328125 14.382812 L 160.328125 24.824219 L 149.878906 24.824219 C 149.699219 25.703125 149.605469 26.609375 149.605469 27.539062 C 149.605469 28.46875 149.699219 29.378906 149.878906 30.253906 L 160.328125 30.253906 L 160.328125 40.695312 C 161.203125 40.875 162.105469 40.96875 163.035156 40.96875 C 163.96875 40.96875 164.878906 40.875 165.761719 40.691406 L 165.761719 30.253906 " fill-opacity="1" fill-rule="nonzero"/></g><path fill="#d21d2c" d="M 153.929688 22.980469 L 151.023438 21.53125 C 150.824219 21.925781 150.644531 22.332031 150.484375 22.746094 L 150.957031 22.980469 L 153.929688 22.980469 " fill-opacity="1" fill-rule="nonzero"/><path fill="#d21d2c" d="M 169.058594 23.015625 L 172.113281 23.015625 L 175.050781 21.542969 C 174.847656 21.132812 174.625 20.738281 174.378906 20.355469 L 169.058594 23.015625 " fill-opacity="1" fill-rule="nonzero"/><path fill="#d21d2c" d="M 175.109375 32.082031 L 172.140625 32.082031 L 175.050781 33.539062 C 175.25 33.144531 175.425781 32.738281 175.585938 32.320312 L 175.109375 32.082031 " fill-opacity="1" fill-rule="nonzero"/><path fill="#d21d2c" d="M 156.980469 32.066406 L 157.007812 32.050781 L 153.957031 32.050781 L 153.925781 32.066406 L 151.007812 33.523438 C 151.214844 33.933594 151.4375 34.332031 151.679688 34.714844 L 156.980469 32.066406 " fill-opacity="1" fill-rule="nonzero"/></svg>