<svg xmlns="http://www.w3.org/2000/svg" xmlns:xlink="http://www.w3.org/1999/xlink" width="800" zoomAndPan="magnify" viewBox="0 0 600 97.5" height="130" preserveAspectRatio="xMidYMid meet" version="1.0"><defs><filter x="0%" y="0%" width="100%" height="100%" id="55291aa2c5"><feColorMatrix values="0 0 0 0 1 0 0 0 0 1 0 0 0 0 1 0 0 0 1 0" color-interpolation-filters="sRGB"/></filter><g/><mask id="ce0effc5a3"><g filter="url(#55291aa2c5)"><rect x="-60" width="720" fill="#000000" y="-9.75" height="117" fill-opacity="0.7"/></g></mask><clipPath id="632723b332"><path d="M 1.027344 0.351562 L 595 0.351562 L 595 90.652344 L 1.027344 90.652344 Z M 1.027344 0.351562 " clip-rule="nonzero"/></clipPath><clipPath id="e8ba7b031f"><path d="M 7.742188 0.351562 L 588.257812 0.351562 C 590.039062 0.351562 591.746094 1.058594 593.003906 2.316406 C 594.265625 3.574219 594.972656 5.285156 594.972656 7.066406 L 594.972656 83.9375 C 594.972656 85.71875 594.265625 87.425781 593.003906 88.6875 C 591.746094 89.945312 590.039062 90.652344 588.257812 90.652344 L 7.742188 90.652344 C 5.960938 90.652344 4.253906 89.945312 2.996094 88.6875 C 1.734375 87.425781 1.027344 85.71875 1.027344 83.9375 L 1.027344 7.066406 C 1.027344 5.285156 1.734375 3.574219 2.996094 2.316406 C 4.253906 1.058594 5.960938 0.351562 7.742188 0.351562 Z M 7.742188 0.351562 " clip-rule="nonzero"/></clipPath><clipPath id="57e43ffa9c"><rect x="0" width="596" y="0" height="91"/></clipPath><clipPath id="64a06d263c"><path d="M 232.746094 54.28125 L 260.382812 54.28125 L 260.382812 80.578125 L 232.746094 80.578125 Z M 232.746094 54.28125 " clip-rule="nonzero"/></clipPath><clipPath id="863b7c4df2"><path d="M 246.542969 54.28125 L 249.800781 64.324219 L 260.339844 64.324219 L 251.8125 70.53125 L 255.070312 80.578125 L 246.542969 74.371094 L 238.015625 80.578125 L 241.273438 70.53125 L 232.746094 64.324219 L 243.285156 64.324219 Z M 246.542969 54.28125 " clip-rule="nonzero"/></clipPath><clipPath id="119b313326"><path d="M 260.339844 54.28125 L 287.972656 54.28125 L 287.972656 80.578125 L 260.339844 80.578125 Z M 260.339844 54.28125 " clip-rule="nonzero"/></clipPath><clipPath id="c8563c3ce3"><path d="M 274.132812 54.28125 L 277.390625 64.324219 L 287.929688 64.324219 L 279.402344 70.53125 L 282.660156 80.578125 L 274.132812 74.371094 L 265.609375 80.578125 L 268.867188 70.53125 L 260.339844 64.324219 L 270.878906 64.324219 Z M 274.132812 54.28125 " clip-rule="nonzero"/></clipPath><clipPath id="dcca798ff3"><path d="M 286.203125 54.28125 L 313.835938 54.28125 L 313.835938 80.578125 L 286.203125 80.578125 Z M 286.203125 54.28125 " clip-rule="nonzero"/></clipPath><clipPath id="2bfbc280de"><path d="M 300 54.28125 L 303.257812 64.324219 L 313.796875 64.324219 L 305.269531 70.53125 L 308.527344 80.578125 L 300 74.371094 L 291.472656 80.578125 L 294.730469 70.53125 L 286.203125 64.324219 L 296.742188 64.324219 Z M 300 54.28125 " clip-rule="nonzero"/></clipPath><clipPath id="fd53664e6d"><path d="M 312.632812 54.28125 L 340.265625 54.28125 L 340.265625 80.578125 L 312.632812 80.578125 Z M 312.632812 54.28125 " clip-rule="nonzero"/></clipPath><clipPath id="4367168307"><path d="M 326.429688 54.28125 L 329.683594 64.324219 L 340.222656 64.324219 L 331.699219 70.53125 L 334.953125 80.578125 L 326.429688 74.371094 L 317.902344 80.578125 L 321.160156 70.53125 L 312.632812 64.324219 L 323.171875 64.324219 Z M 326.429688 54.28125 " clip-rule="nonzero"/></clipPath><clipPath id="9a60d09e1c"><path d="M 339.660156 54.28125 L 367.292969 54.28125 L 367.292969 80.578125 L 339.660156 80.578125 Z M 339.660156 54.28125 " clip-rule="nonzero"/></clipPath><clipPath id="4dc547afb3"><path d="M 353.457031 54.28125 L 356.714844 64.324219 L 367.253906 64.324219 L 358.726562 70.53125 L 361.984375 80.578125 L 353.457031 74.371094 L 344.929688 80.578125 L 348.1875 70.53125 L 339.660156 64.324219 L 350.199219 64.324219 Z M 353.457031 54.28125 " clip-rule="nonzero"/></clipPath><clipPath id="d8d1f9dad0"><path d="M 175.265625 14.757812 L 202.128906 14.757812 L 202.128906 41.621094 L 175.265625 41.621094 Z M 175.265625 14.757812 " clip-rule="nonzero"/></clipPath><clipPath id="25f047f716"><path d="M 175.265625 14.757812 L 189 14.757812 L 189 30 L 175.265625 30 Z M 175.265625 14.757812 " clip-rule="nonzero"/></clipPath><clipPath id="4149434599"><path d="M 188 14.757812 L 196 14.757812 L 196 17 L 188 17 Z M 188 14.757812 " clip-rule="nonzero"/></clipPath><clipPath id="983b513227"><path d="M 181 39 L 196 39 L 196 41.621094 L 181 41.621094 Z M 181 39 " clip-rule="nonzero"/></clipPath><clipPath id="ed3139774b"><path d="M 188 27 L 202.128906 27 L 202.128906 30 L 188 30 Z M 188 27 " clip-rule="nonzero"/></clipPath><clipPath id="574a6117a8"><path d="M 175.265625 31 L 202 31 L 202 34 L 175.265625 34 Z M 175.265625 31 " clip-rule="nonzero"/></clipPath></defs><g mask="url(#ce0effc5a3)"><g transform="matrix(1, 0, 0, 1, 2, 3)"><g clip-path="url(#57e43ffa9c)"><g clip-path="url(#632723b332)"><g clip-path="url(#e8ba7b031f)"><path fill="#020512" d="M 1.027344 0.351562 L 595.050781 0.351562 L 595.050781 90.652344 L 1.027344 90.652344 Z M 1.027344 0.351562 " fill-opacity="1" fill-rule="nonzero"/></g></g></g></g></g><g fill="#ffffff" fill-opacity="1"><g transform="translate(211.853258, 34.819542)"><g><path d="M 2.34375 0 L 2.34375 -15.53125 L 4.171875 -15.53125 L 4.171875 -8.734375 L 4.5 -8.734375 L 10.875 -15.53125 L 12.875 -15.53125 L 12.875 -15.265625 L 6.15625 -8 L 13.40625 -0.265625 L 13.40625 0 L 11.3125 0 L 4.5 -7.140625 L 4.171875 -7.140625 L 4.171875 0 Z M 2.34375 0 "/></g></g></g><g fill="#ffffff" fill-opacity="1"><g transform="translate(225.55144, 34.819542)"><g><path d="M 2.046875 0 L 2.046875 -11.71875 L 3.6875 -11.71875 L 3.6875 -9.875 L 3.90625 -9.828125 C 4.445312 -11.148438 5.472656 -11.8125 6.984375 -11.8125 C 7.785156 -11.8125 8.382812 -11.671875 8.78125 -11.390625 L 8.34375 -9.921875 L 8.125 -9.875 C 7.6875 -10.09375 7.207031 -10.203125 6.6875 -10.203125 C 5.75 -10.203125 5.023438 -9.851562 4.515625 -9.15625 C 4.015625 -8.457031 3.765625 -7.320312 3.765625 -5.75 L 3.765625 0 Z M 2.046875 0 "/></g></g></g><g fill="#ffffff" fill-opacity="1"><g transform="translate(234.598611, 34.819542)"><g><path d="M 6.71875 0.21875 C 5.613281 0.21875 4.648438 -0.0078125 3.828125 -0.46875 C 3.015625 -0.9375 2.382812 -1.625 1.9375 -2.53125 C 1.5 -3.445312 1.28125 -4.554688 1.28125 -5.859375 C 1.28125 -7.148438 1.5 -8.25 1.9375 -9.15625 C 2.382812 -10.070312 3.015625 -10.765625 3.828125 -11.234375 C 4.648438 -11.703125 5.613281 -11.9375 6.71875 -11.9375 C 7.820312 -11.9375 8.78125 -11.703125 9.59375 -11.234375 C 10.414062 -10.765625 11.046875 -10.070312 11.484375 -9.15625 C 11.929688 -8.25 12.15625 -7.148438 12.15625 -5.859375 C 12.15625 -4.554688 11.929688 -3.445312 11.484375 -2.53125 C 11.046875 -1.625 10.414062 -0.9375 9.59375 -0.46875 C 8.78125 -0.0078125 7.820312 0.21875 6.71875 0.21875 Z M 6.71875 -1.328125 C 7.882812 -1.328125 8.773438 -1.691406 9.390625 -2.421875 C 10.015625 -3.160156 10.328125 -4.304688 10.328125 -5.859375 C 10.328125 -7.398438 10.015625 -8.539062 9.390625 -9.28125 C 8.773438 -10.019531 7.882812 -10.390625 6.71875 -10.390625 C 5.550781 -10.390625 4.65625 -10.019531 4.03125 -9.28125 C 3.40625 -8.539062 3.09375 -7.398438 3.09375 -5.859375 C 3.09375 -4.304688 3.40625 -3.160156 4.03125 -2.421875 C 4.65625 -1.691406 5.550781 -1.328125 6.71875 -1.328125 Z M 6.71875 -1.328125 "/></g></g></g><g fill="#ffffff" fill-opacity="1"><g transform="translate(248.041943, 34.819542)"><g><path d="M 2.046875 0 L 2.046875 -11.71875 L 3.6875 -11.71875 L 3.6875 -9.875 L 3.90625 -9.828125 C 4.300781 -10.515625 4.800781 -11.035156 5.40625 -11.390625 C 6.007812 -11.753906 6.742188 -11.9375 7.609375 -11.9375 C 9.023438 -11.9375 10.046875 -11.578125 10.671875 -10.859375 C 11.304688 -10.140625 11.625 -9.035156 11.625 -7.546875 L 11.625 0 L 9.890625 0 L 9.890625 -7.5 C 9.890625 -8.207031 9.800781 -8.773438 9.625 -9.203125 C 9.445312 -9.628906 9.164062 -9.9375 8.78125 -10.125 C 8.40625 -10.320312 7.910156 -10.421875 7.296875 -10.421875 C 6.242188 -10.421875 5.390625 -10.070312 4.734375 -9.375 C 4.085938 -8.6875 3.765625 -7.566406 3.765625 -6.015625 L 3.765625 0 Z M 2.046875 0 "/></g></g></g><g fill="#ffffff" fill-opacity="1"><g transform="translate(261.52775, 34.819542)"><g><path d="M 6.71875 0.21875 C 5.613281 0.21875 4.648438 -0.0078125 3.828125 -0.46875 C 3.015625 -0.9375 2.382812 -1.625 1.9375 -2.53125 C 1.5 -3.445312 1.28125 -4.554688 1.28125 -5.859375 C 1.28125 -7.148438 1.5 -8.25 1.9375 -9.15625 C 2.382812 -10.070312 3.015625 -10.765625 3.828125 -11.234375 C 4.648438 -11.703125 5.613281 -11.9375 6.71875 -11.9375 C 7.820312 -11.9375 8.78125 -11.703125 9.59375 -11.234375 C 10.414062 -10.765625 11.046875 -10.070312 11.484375 -9.15625 C 11.929688 -8.25 12.15625 -7.148438 12.15625 -5.859375 C 12.15625 -4.554688 11.929688 -3.445312 11.484375 -2.53125 C 11.046875 -1.625 10.414062 -0.9375 9.59375 -0.46875 C 8.78125 -0.0078125 7.820312 0.21875 6.71875 0.21875 Z M 6.71875 -1.328125 C 7.882812 -1.328125 8.773438 -1.691406 9.390625 -2.421875 C 10.015625 -3.160156 10.328125 -4.304688 10.328125 -5.859375 C 10.328125 -7.398438 10.015625 -8.539062 9.390625 -9.28125 C 8.773438 -10.019531 7.882812 -10.390625 6.71875 -10.390625 C 5.550781 -10.390625 4.65625 -10.019531 4.03125 -9.28125 C 3.40625 -8.539062 3.09375 -7.398438 3.09375 -5.859375 C 3.09375 -4.304688 3.40625 -3.160156 4.03125 -2.421875 C 4.65625 -1.691406 5.550781 -1.328125 6.71875 -1.328125 Z M 6.71875 -1.328125 "/></g></g></g><g fill="#ffffff" fill-opacity="1"><g transform="translate(274.971082, 34.819542)"><g><path d="M 5.34375 0.21875 C 4.601562 0.21875 3.921875 0.125 3.296875 -0.0625 C 2.671875 -0.257812 2.140625 -0.523438 1.703125 -0.859375 C 1.273438 -1.203125 0.972656 -1.585938 0.796875 -2.015625 L 1.8125 -3.078125 L 2.046875 -3.078125 C 2.421875 -2.492188 2.878906 -2.054688 3.421875 -1.765625 C 3.960938 -1.472656 4.601562 -1.328125 5.34375 -1.328125 C 6.207031 -1.328125 6.863281 -1.492188 7.3125 -1.828125 C 7.757812 -2.171875 7.984375 -2.640625 7.984375 -3.234375 C 7.984375 -3.691406 7.847656 -4.070312 7.578125 -4.375 C 7.304688 -4.675781 6.863281 -4.90625 6.25 -5.0625 L 4.28125 -5.546875 C 3.226562 -5.796875 2.457031 -6.195312 1.96875 -6.75 C 1.488281 -7.300781 1.25 -7.984375 1.25 -8.796875 C 1.25 -9.441406 1.410156 -10 1.734375 -10.46875 C 2.054688 -10.9375 2.523438 -11.296875 3.140625 -11.546875 C 3.753906 -11.804688 4.484375 -11.9375 5.328125 -11.9375 C 6.398438 -11.9375 7.242188 -11.785156 7.859375 -11.484375 C 8.484375 -11.179688 8.96875 -10.765625 9.3125 -10.234375 L 8.34375 -9.265625 L 8.125 -9.265625 C 7.75 -9.703125 7.335938 -10.015625 6.890625 -10.203125 C 6.453125 -10.398438 5.929688 -10.5 5.328125 -10.5 C 4.546875 -10.5 3.953125 -10.359375 3.546875 -10.078125 C 3.140625 -9.804688 2.9375 -9.40625 2.9375 -8.875 C 2.9375 -8.40625 3.078125 -8.023438 3.359375 -7.734375 C 3.648438 -7.441406 4.160156 -7.207031 4.890625 -7.03125 L 6.828125 -6.5625 C 7.847656 -6.320312 8.582031 -5.921875 9.03125 -5.359375 C 9.488281 -4.804688 9.71875 -4.109375 9.71875 -3.265625 C 9.71875 -2.578125 9.550781 -1.96875 9.21875 -1.4375 C 8.894531 -0.914062 8.40625 -0.507812 7.75 -0.21875 C 7.09375 0.0703125 6.289062 0.21875 5.34375 0.21875 Z M 5.34375 0.21875 "/></g></g></g><g fill="#ffffff" fill-opacity="1"><g transform="translate(285.802203, 34.819542)"><g><path d="M 0.671875 3.234375 C 1.285156 2.835938 1.804688 2.375 2.234375 1.84375 C 2.660156 1.3125 2.878906 0.722656 2.890625 0.078125 C 2.472656 0.078125 2.144531 -0.03125 1.90625 -0.25 C 1.664062 -0.476562 1.546875 -0.78125 1.546875 -1.15625 C 1.546875 -1.519531 1.660156 -1.820312 1.890625 -2.0625 C 2.117188 -2.300781 2.425781 -2.421875 2.8125 -2.421875 C 3.226562 -2.421875 3.566406 -2.273438 3.828125 -1.984375 C 4.085938 -1.691406 4.21875 -1.234375 4.21875 -0.609375 C 4.21875 0.492188 3.976562 1.421875 3.5 2.171875 C 3.03125 2.921875 2.332031 3.609375 1.40625 4.234375 Z M 0.671875 3.234375 "/></g></g></g><g fill="#ffffff" fill-opacity="1"><g transform="translate(291.570599, 34.819542)"><g/></g></g><g fill="#ffffff" fill-opacity="1"><g transform="translate(296.90121, 34.819542)"><g><path d="M 7.40625 0.21875 C 6.3125 0.21875 5.328125 -0.0390625 4.453125 -0.5625 C 3.585938 -1.09375 2.894531 -1.953125 2.375 -3.140625 C 1.851562 -4.328125 1.59375 -5.867188 1.59375 -7.765625 C 1.59375 -9.597656 1.851562 -11.109375 2.375 -12.296875 C 2.894531 -13.492188 3.601562 -14.367188 4.5 -14.921875 C 5.40625 -15.472656 6.429688 -15.75 7.578125 -15.75 C 9.566406 -15.75 11.035156 -15.144531 11.984375 -13.9375 L 11.09375 -12.734375 L 10.828125 -12.734375 C 10.054688 -13.648438 8.972656 -14.109375 7.578125 -14.109375 C 6.234375 -14.109375 5.207031 -13.597656 4.5 -12.578125 C 3.789062 -11.566406 3.4375 -9.945312 3.4375 -7.71875 L 3.65625 -7.65625 C 4.082031 -8.53125 4.632812 -9.1875 5.3125 -9.625 C 6 -10.070312 6.835938 -10.296875 7.828125 -10.296875 C 8.804688 -10.296875 9.65625 -10.082031 10.375 -9.65625 C 11.09375 -9.238281 11.644531 -8.632812 12.03125 -7.84375 C 12.414062 -7.0625 12.609375 -6.132812 12.609375 -5.0625 C 12.609375 -3.976562 12.394531 -3.039062 11.96875 -2.25 C 11.539062 -1.457031 10.9375 -0.847656 10.15625 -0.421875 C 9.375 0.00390625 8.457031 0.21875 7.40625 0.21875 Z M 7.40625 -1.421875 C 8.4375 -1.421875 9.238281 -1.734375 9.8125 -2.359375 C 10.394531 -2.984375 10.6875 -3.882812 10.6875 -5.0625 C 10.6875 -6.238281 10.394531 -7.140625 9.8125 -7.765625 C 9.238281 -8.390625 8.4375 -8.703125 7.40625 -8.703125 C 6.707031 -8.703125 6.097656 -8.554688 5.578125 -8.265625 C 5.066406 -7.984375 4.671875 -7.566406 4.390625 -7.015625 C 4.109375 -6.472656 3.96875 -5.820312 3.96875 -5.0625 C 3.96875 -4.300781 4.109375 -3.644531 4.390625 -3.09375 C 4.671875 -2.550781 5.066406 -2.132812 5.578125 -1.84375 C 6.097656 -1.5625 6.707031 -1.421875 7.40625 -1.421875 Z M 7.40625 -1.421875 "/></g></g></g><g fill="#ffffff" fill-opacity="1"><g transform="translate(310.886105, 34.819542)"><g/></g></g><g fill="#ffffff" fill-opacity="1"><g transform="translate(316.216715, 34.819542)"><g><path d="M 7.375 -15.53125 C 8.945312 -15.53125 10.296875 -15.25 11.421875 -14.6875 C 12.546875 -14.125 13.414062 -13.265625 14.03125 -12.109375 C 14.644531 -10.953125 14.953125 -9.503906 14.953125 -7.765625 C 14.953125 -6.023438 14.644531 -4.578125 14.03125 -3.421875 C 13.414062 -2.265625 12.546875 -1.40625 11.421875 -0.84375 C 10.296875 -0.28125 8.945312 0 7.375 0 L 2.34375 0 L 2.34375 -15.53125 Z M 7.1875 -1.546875 C 8.488281 -1.546875 9.5625 -1.75 10.40625 -2.15625 C 11.257812 -2.5625 11.90625 -3.21875 12.34375 -4.125 C 12.78125 -5.039062 13 -6.253906 13 -7.765625 C 13 -9.273438 12.78125 -10.484375 12.34375 -11.390625 C 11.90625 -12.304688 11.257812 -12.960938 10.40625 -13.359375 C 9.5625 -13.765625 8.488281 -13.96875 7.1875 -13.96875 L 4.171875 -13.96875 L 4.171875 -1.546875 Z M 7.1875 -1.546875 "/></g></g></g><g fill="#ffffff" fill-opacity="1"><g transform="translate(332.718246, 34.819542)"><g><path d="M 4.828125 0.21875 C 3.671875 0.21875 2.769531 -0.078125 2.125 -0.671875 C 1.476562 -1.273438 1.15625 -2.140625 1.15625 -3.265625 C 1.15625 -3.953125 1.296875 -4.535156 1.578125 -5.015625 C 1.867188 -5.492188 2.316406 -5.882812 2.921875 -6.1875 C 3.523438 -6.488281 4.3125 -6.71875 5.28125 -6.875 C 6.125 -7.019531 6.765625 -7.179688 7.203125 -7.359375 C 7.648438 -7.535156 7.953125 -7.734375 8.109375 -7.953125 C 8.265625 -8.171875 8.34375 -8.445312 8.34375 -8.78125 C 8.34375 -9.3125 8.160156 -9.71875 7.796875 -10 C 7.429688 -10.28125 6.84375 -10.421875 6.03125 -10.421875 C 5.269531 -10.421875 4.617188 -10.273438 4.078125 -9.984375 C 3.535156 -9.691406 3.039062 -9.253906 2.59375 -8.671875 L 2.375 -8.671875 L 1.53125 -9.875 C 2.019531 -10.507812 2.644531 -11.007812 3.40625 -11.375 C 4.175781 -11.75 5.050781 -11.9375 6.03125 -11.9375 C 7.414062 -11.9375 8.429688 -11.632812 9.078125 -11.03125 C 9.734375 -10.425781 10.0625 -9.585938 10.0625 -8.515625 L 10.0625 -2.296875 C 10.0625 -1.648438 10.335938 -1.328125 10.890625 -1.328125 C 11.078125 -1.328125 11.253906 -1.359375 11.421875 -1.421875 L 11.578125 -1.375 L 11.78125 -0.1875 C 11.65625 -0.09375 11.484375 -0.0234375 11.265625 0.015625 C 11.054688 0.0546875 10.84375 0.078125 10.625 0.078125 C 9.988281 0.078125 9.503906 -0.0625 9.171875 -0.34375 C 8.835938 -0.625 8.625 -1.039062 8.53125 -1.59375 L 8.3125 -1.609375 C 7.976562 -0.992188 7.53125 -0.535156 6.96875 -0.234375 C 6.40625 0.0664062 5.691406 0.21875 4.828125 0.21875 Z M 5.21875 -1.15625 C 5.863281 -1.15625 6.425781 -1.304688 6.90625 -1.609375 C 7.382812 -1.910156 7.75 -2.332031 8 -2.875 C 8.257812 -3.425781 8.390625 -4.054688 8.390625 -4.765625 L 8.390625 -6.25 L 8.1875 -6.296875 C 7.925781 -6.109375 7.609375 -5.953125 7.234375 -5.828125 C 6.859375 -5.710938 6.332031 -5.601562 5.65625 -5.5 C 4.976562 -5.40625 4.4375 -5.265625 4.03125 -5.078125 C 3.632812 -4.890625 3.351562 -4.644531 3.1875 -4.34375 C 3.019531 -4.050781 2.9375 -3.691406 2.9375 -3.265625 C 2.9375 -2.578125 3.132812 -2.050781 3.53125 -1.6875 C 3.9375 -1.332031 4.5 -1.15625 5.21875 -1.15625 Z M 5.21875 -1.15625 "/></g></g></g><g fill="#ffffff" fill-opacity="1"><g transform="translate(344.834241, 34.819542)"><g><path d="M 2.34375 4.96875 C 1.945312 4.96875 1.578125 4.929688 1.234375 4.859375 C 0.890625 4.796875 0.59375 4.707031 0.34375 4.59375 L 0.671875 3.21875 L 0.859375 3.15625 C 1.023438 3.238281 1.234375 3.3125 1.484375 3.375 C 1.742188 3.4375 2.007812 3.46875 2.28125 3.46875 C 2.757812 3.46875 3.148438 3.398438 3.453125 3.265625 C 3.765625 3.140625 4.03125 2.929688 4.25 2.640625 C 4.476562 2.347656 4.691406 1.941406 4.890625 1.421875 L 5.296875 0.28125 L 0.59375 -11.71875 L 2.46875 -11.71875 L 6.15625 -2.15625 L 6.34375 -2.15625 L 9.921875 -11.71875 L 11.6875 -11.71875 L 6.453125 1.84375 C 6.160156 2.59375 5.828125 3.191406 5.453125 3.640625 C 5.085938 4.097656 4.65625 4.429688 4.15625 4.640625 C 3.65625 4.859375 3.050781 4.96875 2.34375 4.96875 Z M 2.34375 4.96875 "/></g></g></g><g fill="#ffffff" fill-opacity="1"><g transform="translate(357.183849, 34.819542)"><g><path d="M 5.34375 0.21875 C 4.601562 0.21875 3.921875 0.125 3.296875 -0.0625 C 2.671875 -0.257812 2.140625 -0.523438 1.703125 -0.859375 C 1.273438 -1.203125 0.972656 -1.585938 0.796875 -2.015625 L 1.8125 -3.078125 L 2.046875 -3.078125 C 2.421875 -2.492188 2.878906 -2.054688 3.421875 -1.765625 C 3.960938 -1.472656 4.601562 -1.328125 5.34375 -1.328125 C 6.207031 -1.328125 6.863281 -1.492188 7.3125 -1.828125 C 7.757812 -2.171875 7.984375 -2.640625 7.984375 -3.234375 C 7.984375 -3.691406 7.847656 -4.070312 7.578125 -4.375 C 7.304688 -4.675781 6.863281 -4.90625 6.25 -5.0625 L 4.28125 -5.546875 C 3.226562 -5.796875 2.457031 -6.195312 1.96875 -6.75 C 1.488281 -7.300781 1.25 -7.984375 1.25 -8.796875 C 1.25 -9.441406 1.410156 -10 1.734375 -10.46875 C 2.054688 -10.9375 2.523438 -11.296875 3.140625 -11.546875 C 3.753906 -11.804688 4.484375 -11.9375 5.328125 -11.9375 C 6.398438 -11.9375 7.242188 -11.785156 7.859375 -11.484375 C 8.484375 -11.179688 8.96875 -10.765625 9.3125 -10.234375 L 8.34375 -9.265625 L 8.125 -9.265625 C 7.75 -9.703125 7.335938 -10.015625 6.890625 -10.203125 C 6.453125 -10.398438 5.929688 -10.5 5.328125 -10.5 C 4.546875 -10.5 3.953125 -10.359375 3.546875 -10.078125 C 3.140625 -9.804688 2.9375 -9.40625 2.9375 -8.875 C 2.9375 -8.40625 3.078125 -8.023438 3.359375 -7.734375 C 3.648438 -7.441406 4.160156 -7.207031 4.890625 -7.03125 L 6.828125 -6.5625 C 7.847656 -6.320312 8.582031 -5.921875 9.03125 -5.359375 C 9.488281 -4.804688 9.71875 -4.109375 9.71875 -3.265625 C 9.71875 -2.578125 9.550781 -1.96875 9.21875 -1.4375 C 8.894531 -0.914062 8.40625 -0.507812 7.75 -0.21875 C 7.09375 0.0703125 6.289062 0.21875 5.34375 0.21875 Z M 5.34375 0.21875 "/></g></g></g><g fill="#ffffff" fill-opacity="1"><g transform="translate(368.01497, 34.819542)"><g/></g></g><g fill="#ffffff" fill-opacity="1"><g transform="translate(373.34558, 34.819542)"><g><path d="M 13.96875 0 L 12.015625 0 L 10.59375 -4.265625 L 3.96875 -4.265625 L 2.53125 0 L 0.609375 0 L 6.03125 -15.53125 L 8.5625 -15.53125 Z M 7.140625 -13.640625 L 4.484375 -5.78125 L 10.0625 -5.78125 L 7.40625 -13.640625 Z M 7.140625 -13.640625 "/></g></g></g><g fill="#ffffff" fill-opacity="1"><g transform="translate(387.935737, 34.819542)"><g><path d="M 6.03125 4.96875 C 4.1875 4.96875 2.835938 4.660156 1.984375 4.046875 C 1.140625 3.429688 0.71875 2.613281 0.71875 1.59375 C 0.71875 0.9375 0.914062 0.410156 1.3125 0.015625 C 1.707031 -0.367188 2.28125 -0.644531 3.03125 -0.8125 L 3.03125 -1.046875 C 2.675781 -1.242188 2.40625 -1.476562 2.21875 -1.75 C 2.039062 -2.03125 1.953125 -2.363281 1.953125 -2.75 C 1.953125 -3.207031 2.09375 -3.578125 2.375 -3.859375 C 2.664062 -4.140625 3.09375 -4.351562 3.65625 -4.5 L 3.65625 -4.71875 C 2.382812 -5.394531 1.75 -6.488281 1.75 -8 C 1.75 -8.769531 1.921875 -9.453125 2.265625 -10.046875 C 2.617188 -10.640625 3.113281 -11.101562 3.75 -11.4375 C 4.394531 -11.769531 5.148438 -11.9375 6.015625 -11.9375 C 6.992188 -11.9375 7.8125 -11.722656 8.46875 -11.296875 C 8.71875 -11.566406 8.90625 -11.859375 9.03125 -12.171875 C 9.15625 -12.492188 9.234375 -12.851562 9.265625 -13.25 L 9.5 -13.375 L 10.921875 -13.046875 C 10.847656 -12.453125 10.664062 -11.945312 10.375 -11.53125 C 10.09375 -11.125 9.691406 -10.785156 9.171875 -10.515625 L 9.171875 -10.296875 C 9.546875 -9.992188 9.820312 -9.640625 10 -9.234375 C 10.175781 -8.835938 10.265625 -8.375 10.265625 -7.84375 C 10.265625 -7.113281 10.085938 -6.453125 9.734375 -5.859375 C 9.378906 -5.273438 8.878906 -4.8125 8.234375 -4.46875 C 7.597656 -4.132812 6.859375 -3.96875 6.015625 -3.96875 C 5.910156 -3.96875 5.734375 -3.976562 5.484375 -4 C 5.203125 -4.007812 4.992188 -4.015625 4.859375 -4.015625 C 4.484375 -4.015625 4.1875 -3.914062 3.96875 -3.71875 C 3.75 -3.53125 3.640625 -3.289062 3.640625 -3 C 3.640625 -2.625 3.757812 -2.347656 4 -2.171875 C 4.238281 -2.003906 4.628906 -1.910156 5.171875 -1.890625 L 7.9375 -1.796875 C 9.132812 -1.753906 10.019531 -1.472656 10.59375 -0.953125 C 11.175781 -0.441406 11.46875 0.28125 11.46875 1.21875 C 11.46875 1.914062 11.28125 2.546875 10.90625 3.109375 C 10.53125 3.679688 9.9375 4.132812 9.125 4.46875 C 8.3125 4.800781 7.28125 4.96875 6.03125 4.96875 Z M 6.015625 -5.453125 C 6.835938 -5.453125 7.472656 -5.664062 7.921875 -6.09375 C 8.378906 -6.53125 8.609375 -7.140625 8.609375 -7.921875 C 8.609375 -8.734375 8.382812 -9.359375 7.9375 -9.796875 C 7.488281 -10.234375 6.847656 -10.453125 6.015625 -10.453125 C 5.179688 -10.453125 4.539062 -10.234375 4.09375 -9.796875 C 3.65625 -9.359375 3.4375 -8.734375 3.4375 -7.921875 C 3.4375 -7.140625 3.65625 -6.53125 4.09375 -6.09375 C 4.539062 -5.664062 5.179688 -5.453125 6.015625 -5.453125 Z M 6.03125 3.484375 C 6.894531 3.484375 7.597656 3.382812 8.140625 3.1875 C 8.691406 3 9.085938 2.75 9.328125 2.4375 C 9.578125 2.125 9.703125 1.769531 9.703125 1.375 C 9.703125 1.03125 9.632812 0.75 9.5 0.53125 C 9.363281 0.320312 9.148438 0.164062 8.859375 0.0625 C 8.578125 -0.0390625 8.179688 -0.109375 7.671875 -0.140625 L 5.0625 -0.265625 L 4.6875 -0.265625 C 3.21875 -0.242188 2.484375 0.320312 2.484375 1.4375 C 2.484375 2.800781 3.664062 3.484375 6.03125 3.484375 Z M 6.03125 3.484375 "/></g></g></g><g fill="#ffffff" fill-opacity="1"><g transform="translate(399.934919, 34.819542)"><g><path d="M 6.71875 0.21875 C 5.613281 0.21875 4.648438 -0.0078125 3.828125 -0.46875 C 3.015625 -0.9375 2.382812 -1.625 1.9375 -2.53125 C 1.5 -3.445312 1.28125 -4.554688 1.28125 -5.859375 C 1.28125 -7.148438 1.5 -8.25 1.9375 -9.15625 C 2.382812 -10.070312 3.015625 -10.765625 3.828125 -11.234375 C 4.648438 -11.703125 5.613281 -11.9375 6.71875 -11.9375 C 7.820312 -11.9375 8.78125 -11.703125 9.59375 -11.234375 C 10.414062 -10.765625 11.046875 -10.070312 11.484375 -9.15625 C 11.929688 -8.25 12.15625 -7.148438 12.15625 -5.859375 C 12.15625 -4.554688 11.929688 -3.445312 11.484375 -2.53125 C 11.046875 -1.625 10.414062 -0.9375 9.59375 -0.46875 C 8.78125 -0.0078125 7.820312 0.21875 6.71875 0.21875 Z M 6.71875 -1.328125 C 7.882812 -1.328125 8.773438 -1.691406 9.390625 -2.421875 C 10.015625 -3.160156 10.328125 -4.304688 10.328125 -5.859375 C 10.328125 -7.398438 10.015625 -8.539062 9.390625 -9.28125 C 8.773438 -10.019531 7.882812 -10.390625 6.71875 -10.390625 C 5.550781 -10.390625 4.65625 -10.019531 4.03125 -9.28125 C 3.40625 -8.539062 3.09375 -7.398438 3.09375 -5.859375 C 3.09375 -4.304688 3.40625 -3.160156 4.03125 -2.421875 C 4.65625 -1.691406 5.550781 -1.328125 6.71875 -1.328125 Z M 6.71875 -1.328125 "/></g></g></g><g clip-path="url(#64a06d263c)"><g clip-path="url(#863b7c4df2)"><path fill="#e7ad12" d="M 232.746094 54.28125 L 260.382812 54.28125 L 260.382812 80.578125 L 232.746094 80.578125 Z M 232.746094 54.28125 " fill-opacity="1" fill-rule="nonzero"/></g></g><g clip-path="url(#119b313326)"><g clip-path="url(#c8563c3ce3)"><path fill="#e7ad12" d="M 260.339844 54.28125 L 287.972656 54.28125 L 287.972656 80.578125 L 260.339844 80.578125 Z M 260.339844 54.28125 " fill-opacity="1" fill-rule="nonzero"/></g></g><g clip-path="url(#dcca798ff3)"><g clip-path="url(#2bfbc280de)"><path fill="#e7ad12" d="M 286.203125 54.28125 L 313.835938 54.28125 L 313.835938 80.578125 L 286.203125 80.578125 Z M 286.203125 54.28125 " fill-opacity="1" fill-rule="nonzero"/></g></g><g clip-path="url(#fd53664e6d)"><g clip-path="url(#4367168307)"><path fill="#e7ad12" d="M 312.632812 54.28125 L 340.265625 54.28125 L 340.265625 80.578125 L 312.632812 80.578125 Z M 312.632812 54.28125 " fill-opacity="1" fill-rule="nonzero"/></g></g><g clip-path="url(#9a60d09e1c)"><g clip-path="url(#4dc547afb3)"><path fill="#e7ad12" d="M 339.660156 54.28125 L 367.292969 54.28125 L 367.292969 80.578125 L 339.660156 80.578125 Z M 339.660156 54.28125 " fill-opacity="1" fill-rule="nonzero"/></g></g><g clip-path="url(#d8d1f9dad0)"><path fill="#e2e6ed" d="M 202.128906 28.191406 C 202.128906 29.070312 202.042969 29.945312 201.871094 30.808594 C 201.699219 31.675781 201.445312 32.515625 201.105469 33.328125 C 200.769531 34.144531 200.355469 34.917969 199.863281 35.652344 C 199.375 36.386719 198.820312 37.0625 198.195312 37.6875 C 197.570312 38.3125 196.894531 38.867188 196.160156 39.359375 C 195.425781 39.847656 194.652344 40.261719 193.835938 40.597656 C 193.023438 40.9375 192.183594 41.191406 191.316406 41.363281 C 190.453125 41.535156 189.578125 41.621094 188.699219 41.621094 C 187.816406 41.621094 186.941406 41.535156 186.078125 41.363281 C 185.210938 41.191406 184.371094 40.9375 183.558594 40.597656 C 182.742188 40.261719 181.96875 39.847656 181.234375 39.359375 C 180.503906 38.867188 179.824219 38.3125 179.199219 37.6875 C 178.578125 37.0625 178.019531 36.386719 177.53125 35.652344 C 177.039062 34.917969 176.625 34.144531 176.289062 33.328125 C 175.953125 32.515625 175.695312 31.675781 175.523438 30.808594 C 175.351562 29.945312 175.265625 29.070312 175.265625 28.191406 C 175.265625 27.308594 175.351562 26.433594 175.523438 25.570312 C 175.695312 24.703125 175.953125 23.863281 176.289062 23.050781 C 176.625 22.234375 177.039062 21.460938 177.53125 20.726562 C 178.019531 19.996094 178.578125 19.316406 179.199219 18.691406 C 179.824219 18.070312 180.503906 17.511719 181.234375 17.023438 C 181.96875 16.53125 182.742188 16.117188 183.558594 15.78125 C 184.371094 15.445312 185.210938 15.1875 186.078125 15.015625 C 186.941406 14.84375 187.816406 14.757812 188.699219 14.757812 C 189.578125 14.757812 190.453125 14.84375 191.316406 15.015625 C 192.183594 15.1875 193.023438 15.445312 193.835938 15.78125 C 194.652344 16.117188 195.425781 16.53125 196.160156 17.023438 C 196.894531 17.511719 197.570312 18.070312 198.195312 18.691406 C 198.820312 19.316406 199.375 19.996094 199.863281 20.726562 C 200.355469 21.460938 200.769531 22.234375 201.105469 23.050781 C 201.445312 23.863281 201.699219 24.703125 201.871094 25.570312 C 202.042969 26.433594 202.128906 27.308594 202.128906 28.191406 Z M 202.128906 28.191406 " fill-opacity="1" fill-rule="nonzero"/></g><g clip-path="url(#25f047f716)"><path fill="#0a2f98" d="M 188.699219 14.757812 C 186.941406 14.757812 185.265625 15.09375 183.726562 15.710938 L 183.792969 15.851562 C 183.796875 15.863281 183.808594 15.871094 183.824219 15.875 L 184.292969 15.914062 C 184.328125 15.914062 184.339844 15.953125 184.316406 15.972656 L 183.960938 16.257812 C 183.949219 16.265625 183.945312 16.277344 183.949219 16.289062 L 184.050781 16.710938 C 184.058594 16.738281 184.023438 16.761719 183.996094 16.746094 C 183.996094 16.746094 183.691406 16.582031 183.589844 16.527344 C 183.585938 16.523438 183.582031 16.523438 183.574219 16.523438 C 183.570312 16.523438 183.5625 16.523438 183.558594 16.527344 C 183.457031 16.582031 183.152344 16.746094 183.152344 16.746094 C 183.125 16.761719 183.089844 16.738281 183.097656 16.710938 L 183.199219 16.289062 C 183.203125 16.277344 183.199219 16.265625 183.1875 16.257812 L 182.9375 16.054688 C 180.902344 17.023438 179.144531 18.492188 177.828125 20.296875 L 178.085938 20.277344 C 178.097656 20.277344 178.109375 20.269531 178.117188 20.257812 L 178.304688 19.863281 C 178.308594 19.851562 178.320312 19.84375 178.335938 19.84375 C 178.347656 19.84375 178.359375 19.851562 178.367188 19.863281 L 178.554688 20.257812 C 178.558594 20.269531 178.570312 20.277344 178.582031 20.277344 L 179.054688 20.320312 C 179.085938 20.320312 179.097656 20.359375 179.074219 20.378906 L 178.71875 20.664062 C 178.710938 20.671875 178.707031 20.683594 178.707031 20.695312 L 178.8125 21.117188 C 178.820312 21.144531 178.785156 21.167969 178.757812 21.152344 C 178.757812 21.152344 178.453125 20.988281 178.351562 20.933594 C 178.347656 20.929688 178.339844 20.929688 178.335938 20.929688 C 178.328125 20.929688 178.324219 20.929688 178.316406 20.933594 C 178.214844 20.988281 177.914062 21.152344 177.914062 21.152344 C 177.882812 21.167969 177.851562 21.144531 177.855469 21.117188 L 177.960938 20.695312 C 177.964844 20.683594 177.960938 20.671875 177.949219 20.664062 L 177.707031 20.46875 C 177.417969 20.878906 177.148438 21.308594 176.90625 21.75 C 176.90625 21.753906 176.90625 21.753906 176.90625 21.753906 L 177.308594 21.789062 C 177.339844 21.789062 177.351562 21.828125 177.328125 21.847656 L 176.972656 22.132812 C 176.964844 22.140625 176.957031 22.152344 176.960938 22.164062 L 177.066406 22.585938 C 177.074219 22.613281 177.039062 22.636719 177.011719 22.621094 C 177.011719 22.621094 176.699219 22.457031 176.597656 22.402344 C 176.59375 22.398438 176.589844 22.398438 176.582031 22.398438 C 176.582031 22.398438 176.578125 22.398438 176.574219 22.398438 C 176.011719 23.574219 175.617188 24.847656 175.414062 26.179688 L 175.382812 26.410156 C 175.304688 26.992188 175.265625 27.585938 175.265625 28.191406 C 175.265625 28.53125 175.277344 28.867188 175.304688 29.203125 L 188.699219 29.203125 Z M 177.328125 27.722656 L 176.972656 28.003906 C 176.964844 28.015625 176.957031 28.027344 176.960938 28.039062 L 177.066406 28.460938 C 177.074219 28.488281 177.039062 28.511719 177.011719 28.496094 C 177.011719 28.496094 176.707031 28.332031 176.605469 28.277344 C 176.597656 28.273438 176.59375 28.273438 176.585938 28.273438 C 176.582031 28.273438 176.578125 28.273438 176.570312 28.277344 C 176.46875 28.332031 176.164062 28.496094 176.164062 28.496094 C 176.136719 28.511719 176.101562 28.488281 176.109375 28.460938 L 176.214844 28.039062 C 176.21875 28.027344 176.210938 28.015625 176.203125 28.003906 L 175.847656 27.722656 C 175.824219 27.703125 175.835938 27.664062 175.867188 27.660156 L 176.339844 27.621094 C 176.351562 27.621094 176.363281 27.613281 176.371094 27.601562 L 176.554688 27.207031 C 176.5625 27.191406 176.574219 27.1875 176.585938 27.1875 C 176.601562 27.1875 176.613281 27.191406 176.621094 27.207031 L 176.804688 27.601562 C 176.8125 27.613281 176.824219 27.621094 176.835938 27.621094 L 177.308594 27.660156 C 177.339844 27.664062 177.351562 27.703125 177.328125 27.722656 Z M 177.328125 24.785156 L 176.972656 25.070312 C 176.964844 25.078125 176.957031 25.089844 176.960938 25.101562 L 177.066406 25.523438 C 177.074219 25.550781 177.039062 25.574219 177.011719 25.558594 C 177.011719 25.558594 176.707031 25.394531 176.605469 25.339844 C 176.597656 25.335938 176.59375 25.335938 176.585938 25.335938 C 176.582031 25.335938 176.578125 25.335938 176.570312 25.339844 C 176.46875 25.394531 176.164062 25.558594 176.164062 25.558594 C 176.136719 25.574219 176.101562 25.550781 176.109375 25.523438 L 176.214844 25.101562 C 176.21875 25.089844 176.210938 25.078125 176.203125 25.070312 L 175.847656 24.785156 C 175.824219 24.765625 175.835938 24.726562 175.867188 24.722656 L 176.339844 24.683594 C 176.351562 24.683594 176.363281 24.675781 176.371094 24.664062 L 176.554688 24.269531 C 176.5625 24.253906 176.574219 24.25 176.585938 24.25 C 176.601562 24.25 176.613281 24.253906 176.621094 24.269531 L 176.804688 24.664062 C 176.8125 24.675781 176.824219 24.683594 176.835938 24.683594 L 177.308594 24.722656 C 177.339844 24.726562 177.351562 24.765625 177.328125 24.785156 Z M 179.074219 26.253906 L 178.71875 26.535156 C 178.710938 26.546875 178.707031 26.558594 178.707031 26.570312 L 178.8125 26.992188 C 178.820312 27.019531 178.785156 27.042969 178.757812 27.027344 C 178.757812 27.027344 178.453125 26.863281 178.351562 26.808594 C 178.347656 26.804688 178.339844 26.804688 178.335938 26.804688 C 178.328125 26.804688 178.324219 26.804688 178.316406 26.808594 C 178.214844 26.863281 177.914062 27.027344 177.914062 27.027344 C 177.882812 27.042969 177.851562 27.019531 177.855469 26.992188 L 177.960938 26.570312 C 177.964844 26.558594 177.960938 26.546875 177.949219 26.535156 L 177.59375 26.253906 C 177.570312 26.234375 177.582031 26.195312 177.617188 26.191406 L 178.085938 26.152344 C 178.097656 26.152344 178.109375 26.144531 178.117188 26.132812 L 178.304688 25.738281 C 178.308594 25.722656 178.320312 25.71875 178.335938 25.71875 C 178.347656 25.71875 178.359375 25.722656 178.367188 25.738281 L 178.554688 26.132812 C 178.558594 26.144531 178.570312 26.152344 178.582031 26.152344 L 179.054688 26.191406 C 179.085938 26.195312 179.097656 26.234375 179.074219 26.253906 Z M 179.074219 23.316406 L 178.71875 23.601562 C 178.710938 23.609375 178.707031 23.621094 178.707031 23.632812 L 178.8125 24.054688 C 178.820312 24.082031 178.785156 24.105469 178.757812 24.089844 C 178.757812 24.089844 178.453125 23.925781 178.351562 23.871094 C 178.347656 23.867188 178.339844 23.867188 178.335938 23.867188 C 178.328125 23.867188 178.324219 23.867188 178.316406 23.871094 C 178.214844 23.925781 177.914062 24.089844 177.914062 24.089844 C 177.882812 24.105469 177.851562 24.082031 177.855469 24.054688 L 177.960938 23.632812 C 177.964844 23.621094 177.960938 23.609375 177.949219 23.601562 L 177.59375 23.316406 C 177.570312 23.296875 177.582031 23.257812 177.617188 23.253906 L 178.085938 23.214844 C 178.097656 23.214844 178.109375 23.207031 178.117188 23.195312 L 178.304688 22.800781 C 178.308594 22.785156 178.320312 22.78125 178.335938 22.78125 C 178.347656 22.78125 178.359375 22.785156 178.367188 22.800781 L 178.554688 23.195312 C 178.558594 23.207031 178.570312 23.214844 178.582031 23.214844 L 179.054688 23.253906 C 179.085938 23.257812 179.097656 23.296875 179.074219 23.316406 Z M 180.820312 27.722656 L 180.46875 28.003906 C 180.457031 28.015625 180.453125 28.027344 180.457031 28.039062 L 180.558594 28.460938 C 180.566406 28.488281 180.53125 28.511719 180.503906 28.496094 C 180.503906 28.496094 180.199219 28.332031 180.097656 28.277344 C 180.09375 28.273438 180.085938 28.273438 180.082031 28.273438 C 180.074219 28.273438 180.070312 28.273438 180.066406 28.277344 C 179.964844 28.332031 179.660156 28.496094 179.660156 28.496094 C 179.632812 28.511719 179.597656 28.488281 179.605469 28.460938 L 179.707031 28.039062 C 179.710938 28.027344 179.707031 28.015625 179.695312 28.003906 L 179.339844 27.722656 C 179.316406 27.703125 179.328125 27.664062 179.363281 27.660156 L 179.832031 27.621094 C 179.847656 27.621094 179.859375 27.613281 179.863281 27.601562 L 180.050781 27.207031 C 180.054688 27.191406 180.066406 27.1875 180.082031 27.1875 C 180.09375 27.1875 180.105469 27.191406 180.113281 27.207031 L 180.300781 27.601562 C 180.304688 27.613281 180.316406 27.621094 180.332031 27.621094 L 180.800781 27.660156 C 180.832031 27.664062 180.847656 27.703125 180.820312 27.722656 Z M 180.820312 24.785156 L 180.46875 25.070312 C 180.457031 25.078125 180.453125 25.089844 180.457031 25.101562 L 180.558594 25.523438 C 180.566406 25.550781 180.53125 25.574219 180.503906 25.558594 C 180.503906 25.558594 180.199219 25.394531 180.097656 25.339844 C 180.09375 25.335938 180.085938 25.335938 180.082031 25.335938 C 180.074219 25.335938 180.070312 25.335938 180.066406 25.339844 C 179.964844 25.394531 179.660156 25.558594 179.660156 25.558594 C 179.632812 25.574219 179.597656 25.550781 179.605469 25.523438 L 179.707031 25.101562 C 179.710938 25.089844 179.707031 25.078125 179.695312 25.070312 L 179.339844 24.785156 C 179.316406 24.765625 179.328125 24.726562 179.363281 24.722656 L 179.832031 24.683594 C 179.847656 24.683594 179.859375 24.675781 179.863281 24.664062 L 180.050781 24.269531 C 180.054688 24.253906 180.066406 24.25 180.082031 24.25 C 180.09375 24.25 180.105469 24.253906 180.113281 24.269531 L 180.300781 24.664062 C 180.304688 24.675781 180.316406 24.683594 180.332031 24.683594 L 180.800781 24.722656 C 180.832031 24.726562 180.847656 24.765625 180.820312 24.785156 Z M 180.820312 21.847656 L 180.46875 22.132812 C 180.457031 22.140625 180.453125 22.152344 180.457031 22.164062 L 180.558594 22.585938 C 180.566406 22.613281 180.53125 22.636719 180.503906 22.621094 C 180.503906 22.621094 180.199219 22.457031 180.097656 22.402344 C 180.09375 22.398438 180.085938 22.398438 180.082031 22.398438 C 180.074219 22.398438 180.070312 22.398438 180.066406 22.402344 C 179.964844 22.457031 179.660156 22.621094 179.660156 22.621094 C 179.632812 22.636719 179.597656 22.613281 179.605469 22.585938 L 179.707031 22.164062 C 179.710938 22.152344 179.707031 22.140625 179.695312 22.132812 L 179.339844 21.847656 C 179.316406 21.828125 179.328125 21.789062 179.363281 21.789062 L 179.832031 21.746094 C 179.847656 21.746094 179.859375 21.738281 179.863281 21.726562 L 180.050781 21.332031 C 180.054688 21.316406 180.066406 21.3125 180.082031 21.3125 C 180.09375 21.3125 180.105469 21.316406 180.113281 21.332031 L 180.300781 21.726562 C 180.304688 21.738281 180.316406 21.746094 180.332031 21.746094 L 180.800781 21.789062 C 180.832031 21.789062 180.847656 21.828125 180.820312 21.847656 Z M 180.820312 18.910156 L 180.46875 19.195312 C 180.457031 19.203125 180.453125 19.214844 180.457031 19.226562 L 180.558594 19.648438 C 180.566406 19.675781 180.53125 19.699219 180.503906 19.683594 C 180.503906 19.683594 180.199219 19.519531 180.097656 19.464844 C 180.09375 19.460938 180.085938 19.460938 180.082031 19.460938 C 180.074219 19.460938 180.070312 19.460938 180.066406 19.464844 C 179.964844 19.519531 179.660156 19.683594 179.660156 19.683594 C 179.632812 19.699219 179.597656 19.675781 179.605469 19.648438 L 179.707031 19.226562 C 179.710938 19.214844 179.707031 19.203125 179.695312 19.195312 L 179.339844 18.910156 C 179.316406 18.890625 179.328125 18.851562 179.363281 18.851562 L 179.832031 18.808594 C 179.847656 18.808594 179.859375 18.800781 179.863281 18.789062 L 180.050781 18.394531 C 180.054688 18.382812 180.066406 18.375 180.082031 18.375 C 180.09375 18.375 180.105469 18.382812 180.113281 18.394531 L 180.300781 18.789062 C 180.304688 18.800781 180.316406 18.808594 180.332031 18.808594 L 180.800781 18.851562 C 180.832031 18.851562 180.847656 18.890625 180.820312 18.910156 Z M 182.566406 26.253906 L 182.214844 26.535156 C 182.203125 26.546875 182.199219 26.558594 182.203125 26.570312 L 182.304688 26.992188 C 182.3125 27.019531 182.277344 27.042969 182.25 27.027344 C 182.25 27.027344 181.945312 26.863281 181.84375 26.808594 C 181.839844 26.804688 181.832031 26.804688 181.828125 26.804688 C 181.824219 26.804688 181.816406 26.804688 181.8125 26.808594 C 181.710938 26.863281 181.40625 27.027344 181.40625 27.027344 C 181.378906 27.042969 181.34375 27.019531 181.351562 26.992188 L 181.453125 26.570312 C 181.457031 26.558594 181.453125 26.546875 181.441406 26.535156 L 181.089844 26.253906 C 181.0625 26.234375 181.078125 26.195312 181.109375 26.191406 L 181.578125 26.152344 C 181.59375 26.152344 181.605469 26.144531 181.609375 26.132812 L 181.796875 25.738281 C 181.800781 25.722656 181.816406 25.71875 181.828125 25.71875 C 181.839844 25.71875 181.855469 25.722656 181.859375 25.738281 L 182.046875 26.132812 C 182.050781 26.144531 182.0625 26.152344 182.078125 26.152344 L 182.546875 26.191406 C 182.578125 26.195312 182.59375 26.234375 182.566406 26.253906 Z M 182.566406 23.316406 L 182.214844 23.601562 C 182.203125 23.609375 182.199219 23.621094 182.203125 23.632812 L 182.304688 24.054688 C 182.3125 24.082031 182.277344 24.105469 182.25 24.089844 C 182.25 24.089844 181.945312 23.925781 181.84375 23.871094 C 181.839844 23.867188 181.832031 23.867188 181.828125 23.867188 C 181.824219 23.867188 181.816406 23.867188 181.8125 23.871094 C 181.710938 23.925781 181.40625 24.089844 181.40625 24.089844 C 181.378906 24.105469 181.34375 24.082031 181.351562 24.054688 L 181.453125 23.632812 C 181.457031 23.621094 181.453125 23.609375 181.441406 23.601562 L 181.089844 23.316406 C 181.0625 23.296875 181.078125 23.257812 181.109375 23.253906 L 181.578125 23.214844 C 181.59375 23.214844 181.605469 23.207031 181.609375 23.195312 L 181.796875 22.800781 C 181.800781 22.785156 181.816406 22.78125 181.828125 22.78125 C 181.839844 22.78125 181.855469 22.785156 181.859375 22.800781 L 182.046875 23.195312 C 182.050781 23.207031 182.0625 23.214844 182.078125 23.214844 L 182.546875 23.253906 C 182.578125 23.257812 182.59375 23.296875 182.566406 23.316406 Z M 182.566406 20.378906 L 182.214844 20.664062 C 182.203125 20.671875 182.199219 20.683594 182.203125 20.695312 L 182.304688 21.117188 C 182.3125 21.144531 182.277344 21.167969 182.25 21.152344 C 182.25 21.152344 181.945312 20.988281 181.84375 20.933594 C 181.839844 20.929688 181.832031 20.929688 181.828125 20.929688 C 181.824219 20.929688 181.816406 20.929688 181.8125 20.933594 C 181.710938 20.988281 181.40625 21.152344 181.40625 21.152344 C 181.378906 21.167969 181.34375 21.144531 181.351562 21.117188 L 181.453125 20.695312 C 181.457031 20.683594 181.453125 20.671875 181.441406 20.664062 L 181.089844 20.378906 C 181.0625 20.359375 181.078125 20.320312 181.109375 20.320312 L 181.578125 20.277344 C 181.59375 20.277344 181.605469 20.269531 181.609375 20.257812 L 181.796875 19.863281 C 181.800781 19.851562 181.816406 19.84375 181.828125 19.84375 C 181.839844 19.84375 181.855469 19.851562 181.859375 19.863281 L 182.046875 20.257812 C 182.050781 20.269531 182.0625 20.277344 182.078125 20.277344 L 182.546875 20.320312 C 182.578125 20.320312 182.59375 20.359375 182.566406 20.378906 Z M 182.566406 17.441406 L 182.214844 17.726562 C 182.203125 17.734375 182.199219 17.746094 182.203125 17.757812 L 182.304688 18.179688 C 182.3125 18.207031 182.277344 18.230469 182.25 18.214844 C 182.25 18.214844 181.945312 18.050781 181.84375 17.996094 C 181.839844 17.992188 181.832031 17.992188 181.828125 17.992188 C 181.824219 17.992188 181.816406 17.992188 181.8125 17.996094 C 181.710938 18.050781 181.40625 18.214844 181.40625 18.214844 C 181.378906 18.230469 181.34375 18.207031 181.351562 18.179688 L 181.453125 17.757812 C 181.457031 17.746094 181.453125 17.734375 181.441406 17.726562 L 181.089844 17.441406 C 181.0625 17.421875 181.078125 17.382812 181.109375 17.382812 L 181.578125 17.34375 C 181.59375 17.339844 181.605469 17.332031 181.609375 17.320312 L 181.796875 16.925781 C 181.800781 16.914062 181.816406 16.90625 181.828125 16.90625 C 181.839844 16.90625 181.855469 16.914062 181.859375 16.925781 L 182.046875 17.320312 C 182.050781 17.332031 182.0625 17.339844 182.078125 17.34375 L 182.546875 17.382812 C 182.578125 17.382812 182.59375 17.421875 182.566406 17.441406 Z M 184.316406 27.722656 L 183.960938 28.003906 C 183.949219 28.015625 183.945312 28.027344 183.949219 28.039062 L 184.050781 28.460938 C 184.058594 28.488281 184.023438 28.511719 183.996094 28.496094 C 183.996094 28.496094 183.691406 28.332031 183.589844 28.277344 C 183.585938 28.273438 183.582031 28.273438 183.574219 28.273438 C 183.570312 28.273438 183.5625 28.273438 183.558594 28.277344 C 183.457031 28.332031 183.152344 28.496094 183.152344 28.496094 C 183.125 28.511719 183.089844 28.488281 183.097656 28.460938 L 183.199219 28.039062 C 183.203125 28.027344 183.199219 28.015625 183.1875 28.003906 L 182.835938 27.722656 C 182.808594 27.703125 182.824219 27.664062 182.855469 27.660156 L 183.324219 27.621094 C 183.339844 27.621094 183.351562 27.613281 183.355469 27.601562 L 183.542969 27.207031 C 183.550781 27.191406 183.5625 27.1875 183.574219 27.1875 C 183.585938 27.1875 183.601562 27.191406 183.605469 27.207031 L 183.792969 27.601562 C 183.796875 27.613281 183.808594 27.621094 183.824219 27.621094 L 184.292969 27.660156 C 184.328125 27.664062 184.339844 27.703125 184.316406 27.722656 Z M 184.316406 24.785156 L 183.960938 25.070312 C 183.949219 25.078125 183.945312 25.089844 183.949219 25.101562 L 184.050781 25.523438 C 184.058594 25.550781 184.023438 25.574219 183.996094 25.558594 C 183.996094 25.558594 183.691406 25.394531 183.589844 25.339844 C 183.585938 25.335938 183.582031 25.335938 183.574219 25.335938 C 183.570312 25.335938 183.5625 25.335938 183.558594 25.339844 C 183.457031 25.394531 183.152344 25.558594 183.152344 25.558594 C 183.125 25.574219 183.089844 25.550781 183.097656 25.523438 L 183.199219 25.101562 C 183.203125 25.089844 183.199219 25.078125 183.1875 25.070312 L 182.835938 24.785156 C 182.808594 24.765625 182.824219 24.726562 182.855469 24.722656 L 183.324219 24.683594 C 183.339844 24.683594 183.351562 24.675781 183.355469 24.664062 L 183.542969 24.269531 C 183.550781 24.253906 183.5625 24.25 183.574219 24.25 C 183.585938 24.25 183.601562 24.253906 183.605469 24.269531 L 183.792969 24.664062 C 183.796875 24.675781 183.808594 24.683594 183.824219 24.683594 L 184.292969 24.722656 C 184.328125 24.726562 184.339844 24.765625 184.316406 24.785156 Z M 184.316406 21.847656 L 183.960938 22.132812 C 183.949219 22.140625 183.945312 22.152344 183.949219 22.164062 L 184.050781 22.585938 C 184.058594 22.613281 184.023438 22.636719 183.996094 22.621094 C 183.996094 22.621094 183.691406 22.457031 183.589844 22.402344 C 183.585938 22.398438 183.582031 22.398438 183.574219 22.398438 C 183.570312 22.398438 183.5625 22.398438 183.558594 22.402344 C 183.457031 22.457031 183.152344 22.621094 183.152344 22.621094 C 183.125 22.636719 183.089844 22.613281 183.097656 22.585938 L 183.199219 22.164062 C 183.203125 22.152344 183.199219 22.140625 183.1875 22.132812 L 182.835938 21.847656 C 182.808594 21.828125 182.824219 21.789062 182.855469 21.789062 L 183.324219 21.746094 C 183.339844 21.746094 183.351562 21.738281 183.355469 21.726562 L 183.542969 21.332031 C 183.550781 21.316406 183.5625 21.3125 183.574219 21.3125 C 183.585938 21.3125 183.601562 21.316406 183.605469 21.332031 L 183.792969 21.726562 C 183.796875 21.738281 183.808594 21.746094 183.824219 21.746094 L 184.292969 21.789062 C 184.328125 21.789062 184.339844 21.828125 184.316406 21.847656 Z M 184.316406 18.910156 L 183.960938 19.195312 C 183.949219 19.203125 183.945312 19.214844 183.949219 19.226562 L 184.050781 19.648438 C 184.058594 19.675781 184.023438 19.699219 183.996094 19.683594 C 183.996094 19.683594 183.691406 19.519531 183.589844 19.464844 C 183.585938 19.460938 183.582031 19.460938 183.574219 19.460938 C 183.570312 19.460938 183.5625 19.460938 183.558594 19.464844 C 183.457031 19.519531 183.152344 19.683594 183.152344 19.683594 C 183.125 19.699219 183.089844 19.675781 183.097656 19.648438 L 183.199219 19.226562 C 183.203125 19.214844 183.199219 19.203125 183.1875 19.195312 L 182.835938 18.910156 C 182.808594 18.890625 182.824219 18.851562 182.855469 18.851562 L 183.324219 18.808594 C 183.339844 18.808594 183.351562 18.800781 183.355469 18.789062 L 183.542969 18.394531 C 183.550781 18.382812 183.5625 18.375 183.574219 18.375 C 183.585938 18.375 183.601562 18.382812 183.605469 18.394531 L 183.792969 18.789062 C 183.796875 18.800781 183.808594 18.808594 183.824219 18.808594 L 184.292969 18.851562 C 184.328125 18.851562 184.339844 18.890625 184.316406 18.910156 Z M 186.0625 26.253906 L 185.707031 26.535156 C 185.695312 26.546875 185.691406 26.558594 185.695312 26.570312 L 185.800781 26.992188 C 185.804688 27.019531 185.773438 27.042969 185.742188 27.027344 C 185.742188 27.027344 185.441406 26.863281 185.339844 26.808594 C 185.332031 26.804688 185.328125 26.804688 185.320312 26.804688 C 185.316406 26.804688 185.308594 26.804688 185.304688 26.808594 C 185.203125 26.863281 184.898438 27.027344 184.898438 27.027344 C 184.871094 27.042969 184.835938 27.019531 184.84375 26.992188 L 184.949219 26.570312 C 184.949219 26.558594 184.945312 26.546875 184.9375 26.535156 L 184.582031 26.253906 C 184.558594 26.234375 184.570312 26.195312 184.601562 26.191406 L 185.074219 26.152344 C 185.085938 26.152344 185.097656 26.144531 185.101562 26.132812 L 185.289062 25.738281 C 185.296875 25.722656 185.308594 25.71875 185.320312 25.71875 C 185.335938 25.71875 185.347656 25.722656 185.351562 25.738281 L 185.539062 26.132812 C 185.546875 26.144531 185.558594 26.152344 185.570312 26.152344 L 186.039062 26.191406 C 186.074219 26.195312 186.085938 26.234375 186.0625 26.253906 Z M 186.0625 23.316406 L 185.707031 23.601562 C 185.695312 23.609375 185.691406 23.621094 185.695312 23.632812 L 185.800781 24.054688 C 185.804688 24.082031 185.773438 24.105469 185.742188 24.089844 C 185.742188 24.089844 185.441406 23.925781 185.339844 23.871094 C 185.332031 23.867188 185.328125 23.867188 185.320312 23.867188 C 185.316406 23.867188 185.308594 23.867188 185.304688 23.871094 C 185.203125 23.925781 184.898438 24.089844 184.898438 24.089844 C 184.871094 24.105469 184.835938 24.082031 184.84375 24.054688 L 184.949219 23.632812 C 184.949219 23.621094 184.945312 23.609375 184.9375 23.601562 L 184.582031 23.316406 C 184.558594 23.296875 184.570312 23.257812 184.601562 23.253906 L 185.074219 23.214844 C 185.085938 23.214844 185.097656 23.207031 185.101562 23.195312 L 185.289062 22.800781 C 185.296875 22.785156 185.308594 22.78125 185.320312 22.78125 C 185.335938 22.78125 185.347656 22.785156 185.351562 22.800781 L 185.539062 23.195312 C 185.546875 23.207031 185.558594 23.214844 185.570312 23.214844 L 186.039062 23.253906 C 186.074219 23.257812 186.085938 23.296875 186.0625 23.316406 Z M 186.0625 20.378906 L 185.707031 20.664062 C 185.695312 20.671875 185.691406 20.683594 185.695312 20.695312 L 185.800781 21.117188 C 185.804688 21.144531 185.773438 21.167969 185.742188 21.152344 C 185.742188 21.152344 185.441406 20.988281 185.339844 20.933594 C 185.332031 20.929688 185.328125 20.929688 185.320312 20.929688 C 185.316406 20.929688 185.308594 20.929688 185.304688 20.933594 C 185.203125 20.988281 184.898438 21.152344 184.898438 21.152344 C 184.871094 21.167969 184.835938 21.144531 184.84375 21.117188 L 184.949219 20.695312 C 184.949219 20.683594 184.945312 20.671875 184.9375 20.664062 L 184.582031 20.378906 C 184.558594 20.359375 184.570312 20.320312 184.601562 20.320312 L 185.074219 20.277344 C 185.085938 20.277344 185.097656 20.269531 185.101562 20.257812 L 185.289062 19.863281 C 185.296875 19.851562 185.308594 19.84375 185.320312 19.84375 C 185.335938 19.84375 185.347656 19.851562 185.351562 19.863281 L 185.539062 20.257812 C 185.546875 20.269531 185.558594 20.277344 185.570312 20.277344 L 186.039062 20.320312 C 186.074219 20.320312 186.085938 20.359375 186.0625 20.378906 Z M 186.0625 17.441406 L 185.707031 17.726562 C 185.695312 17.734375 185.691406 17.746094 185.695312 17.757812 L 185.800781 18.179688 C 185.804688 18.207031 185.773438 18.230469 185.742188 18.214844 C 185.742188 18.214844 185.441406 18.050781 185.339844 17.996094 C 185.332031 17.992188 185.328125 17.992188 185.320312 17.992188 C 185.316406 17.992188 185.308594 17.992188 185.304688 17.996094 C 185.203125 18.050781 184.898438 18.214844 184.898438 18.214844 C 184.871094 18.230469 184.835938 18.207031 184.84375 18.179688 L 184.949219 17.757812 C 184.949219 17.746094 184.945312 17.734375 184.9375 17.726562 L 184.582031 17.441406 C 184.558594 17.421875 184.570312 17.382812 184.601562 17.382812 L 185.074219 17.34375 C 185.085938 17.339844 185.097656 17.332031 185.101562 17.320312 L 185.289062 16.925781 C 185.296875 16.914062 185.308594 16.90625 185.320312 16.90625 C 185.335938 16.90625 185.347656 16.914062 185.351562 16.925781 L 185.539062 17.320312 C 185.546875 17.332031 185.558594 17.339844 185.570312 17.34375 L 186.039062 17.382812 C 186.074219 17.382812 186.085938 17.421875 186.0625 17.441406 Z M 187.808594 27.722656 L 187.453125 28.003906 C 187.445312 28.015625 187.4375 28.027344 187.441406 28.039062 L 187.546875 28.460938 C 187.554688 28.488281 187.519531 28.511719 187.492188 28.496094 C 187.492188 28.496094 187.1875 28.332031 187.085938 28.277344 C 187.078125 28.273438 187.074219 28.273438 187.066406 28.273438 C 187.0625 28.273438 187.058594 28.273438 187.050781 28.277344 C 186.949219 28.332031 186.644531 28.496094 186.644531 28.496094 C 186.617188 28.511719 186.582031 28.488281 186.589844 28.460938 L 186.695312 28.039062 C 186.699219 28.027344 186.691406 28.015625 186.683594 28.003906 L 186.328125 27.722656 C 186.304688 27.703125 186.316406 27.664062 186.347656 27.660156 L 186.820312 27.621094 C 186.832031 27.621094 186.84375 27.613281 186.851562 27.601562 L 187.035156 27.207031 C 187.042969 27.191406 187.054688 27.1875 187.066406 27.1875 C 187.082031 27.1875 187.09375 27.191406 187.101562 27.207031 L 187.285156 27.601562 C 187.292969 27.613281 187.304688 27.621094 187.316406 27.621094 L 187.789062 27.660156 C 187.820312 27.664062 187.832031 27.703125 187.808594 27.722656 Z M 187.808594 24.785156 L 187.453125 25.070312 C 187.445312 25.078125 187.4375 25.089844 187.441406 25.101562 L 187.546875 25.523438 C 187.554688 25.550781 187.519531 25.574219 187.492188 25.558594 C 187.492188 25.558594 187.1875 25.394531 187.085938 25.339844 C 187.078125 25.335938 187.074219 25.335938 187.066406 25.335938 C 187.0625 25.335938 187.058594 25.335938 187.050781 25.339844 C 186.949219 25.394531 186.644531 25.558594 186.644531 25.558594 C 186.617188 25.574219 186.582031 25.550781 186.589844 25.523438 L 186.695312 25.101562 C 186.699219 25.089844 186.691406 25.078125 186.683594 25.070312 L 186.328125 24.785156 C 186.304688 24.765625 186.316406 24.726562 186.347656 24.722656 L 186.820312 24.683594 C 186.832031 24.683594 186.84375 24.675781 186.851562 24.664062 L 187.035156 24.269531 C 187.042969 24.253906 187.054688 24.25 187.066406 24.25 C 187.082031 24.25 187.09375 24.253906 187.101562 24.269531 L 187.285156 24.664062 C 187.292969 24.675781 187.304688 24.683594 187.316406 24.683594 L 187.789062 24.722656 C 187.820312 24.726562 187.832031 24.765625 187.808594 24.785156 Z M 187.808594 21.847656 L 187.453125 22.132812 C 187.445312 22.140625 187.4375 22.152344 187.441406 22.164062 L 187.546875 22.585938 C 187.554688 22.613281 187.519531 22.636719 187.492188 22.621094 C 187.492188 22.621094 187.1875 22.457031 187.085938 22.402344 C 187.078125 22.398438 187.074219 22.398438 187.066406 22.398438 C 187.0625 22.398438 187.058594 22.398438 187.050781 22.402344 C 186.949219 22.457031 186.644531 22.621094 186.644531 22.621094 C 186.617188 22.636719 186.582031 22.613281 186.589844 22.585938 L 186.695312 22.164062 C 186.699219 22.152344 186.691406 22.140625 186.683594 22.132812 L 186.328125 21.847656 C 186.304688 21.828125 186.316406 21.789062 186.347656 21.789062 L 186.820312 21.746094 C 186.832031 21.746094 186.84375 21.738281 186.851562 21.726562 L 187.035156 21.332031 C 187.042969 21.316406 187.054688 21.3125 187.066406 21.3125 C 187.082031 21.3125 187.09375 21.316406 187.101562 21.332031 L 187.285156 21.726562 C 187.292969 21.738281 187.304688 21.746094 187.316406 21.746094 L 187.789062 21.789062 C 187.820312 21.789062 187.832031 21.828125 187.808594 21.847656 Z M 187.808594 18.910156 L 187.453125 19.195312 C 187.445312 19.203125 187.4375 19.214844 187.441406 19.226562 L 187.546875 19.648438 C 187.554688 19.675781 187.519531 19.699219 187.492188 19.683594 C 187.492188 19.683594 187.1875 19.519531 187.085938 19.464844 C 187.078125 19.460938 187.074219 19.460938 187.066406 19.460938 C 187.0625 19.460938 187.058594 19.460938 187.050781 19.464844 C 186.949219 19.519531 186.644531 19.683594 186.644531 19.683594 C 186.617188 19.699219 186.582031 19.675781 186.589844 19.648438 L 186.695312 19.226562 C 186.699219 19.214844 186.691406 19.203125 186.683594 19.195312 L 186.328125 18.910156 C 186.304688 18.890625 186.316406 18.851562 186.347656 18.851562 L 186.820312 18.808594 C 186.832031 18.808594 186.84375 18.800781 186.851562 18.789062 L 187.035156 18.394531 C 187.042969 18.382812 187.054688 18.375 187.066406 18.375 C 187.082031 18.375 187.09375 18.382812 187.101562 18.394531 L 187.285156 18.789062 C 187.292969 18.800781 187.304688 18.808594 187.316406 18.808594 L 187.789062 18.851562 C 187.820312 18.851562 187.832031 18.890625 187.808594 18.910156 Z M 187.808594 15.972656 L 187.453125 16.257812 C 187.445312 16.265625 187.4375 16.277344 187.441406 16.289062 L 187.546875 16.710938 C 187.554688 16.738281 187.519531 16.761719 187.492188 16.746094 C 187.492188 16.746094 187.1875 16.582031 187.085938 16.527344 C 187.078125 16.523438 187.074219 16.523438 187.066406 16.523438 C 187.0625 16.523438 187.058594 16.523438 187.050781 16.527344 C 186.949219 16.582031 186.644531 16.746094 186.644531 16.746094 C 186.617188 16.761719 186.582031 16.738281 186.589844 16.710938 L 186.695312 16.289062 C 186.699219 16.277344 186.691406 16.265625 186.683594 16.257812 L 186.328125 15.972656 C 186.304688 15.953125 186.316406 15.914062 186.347656 15.914062 L 186.820312 15.875 C 186.832031 15.871094 186.84375 15.863281 186.851562 15.851562 L 187.035156 15.457031 C 187.042969 15.445312 187.054688 15.4375 187.066406 15.4375 C 187.082031 15.4375 187.09375 15.445312 187.101562 15.457031 L 187.285156 15.851562 C 187.292969 15.863281 187.304688 15.871094 187.316406 15.875 L 187.789062 15.914062 C 187.820312 15.914062 187.832031 15.953125 187.808594 15.972656 Z M 187.808594 15.972656 " fill-opacity="1" fill-rule="nonzero"/></g><path fill="#d80510" d="M 199.984375 20.90625 C 199.515625 20.183594 198.980469 19.503906 198.378906 18.882812 L 188.699219 18.882812 L 188.699219 20.910156 L 199.984375 20.910156 C 199.984375 20.910156 199.984375 20.910156 199.984375 20.90625 Z M 199.984375 20.90625 " fill-opacity="1" fill-rule="nonzero"/><path fill="#d80510" d="M 201.761719 25.054688 C 201.59375 24.359375 201.375 23.679688 201.101562 23.03125 C 201.101562 23.03125 201.101562 23.027344 201.101562 23.027344 L 188.699219 23.027344 L 188.699219 25.054688 Z M 201.761719 25.054688 " fill-opacity="1" fill-rule="nonzero"/><g clip-path="url(#4149434599)"><path fill="#d80510" d="M 195.757812 16.761719 C 193.707031 15.492188 191.28125 14.757812 188.699219 14.757812 L 188.699219 16.761719 L 195.753906 16.761719 C 195.757812 16.761719 195.757812 16.761719 195.757812 16.761719 Z M 195.757812 16.761719 " fill-opacity="1" fill-rule="nonzero"/></g><g clip-path="url(#983b513227)"><path fill="#d80510" d="M 181.640625 39.617188 C 181.640625 39.617188 181.640625 39.617188 181.640625 39.621094 C 183.6875 40.886719 186.113281 41.621094 188.699219 41.621094 C 191.28125 41.621094 193.707031 40.886719 195.757812 39.621094 C 195.757812 39.617188 195.757812 39.617188 195.753906 39.617188 Z M 181.640625 39.617188 " fill-opacity="1" fill-rule="nonzero"/></g><path fill="#d80510" d="M 177.410156 35.472656 C 177.878906 36.199219 178.417969 36.875 179.015625 37.496094 L 198.378906 37.496094 C 198.980469 36.875 199.515625 36.199219 199.984375 35.472656 Z M 177.410156 35.472656 " fill-opacity="1" fill-rule="nonzero"/><g clip-path="url(#ed3139774b)"><path fill="#d80510" d="M 202.089844 27.175781 L 188.699219 27.175781 L 188.699219 29.203125 L 202.089844 29.203125 C 202.117188 28.867188 202.128906 28.53125 202.128906 28.191406 C 202.128906 27.847656 202.117188 27.511719 202.089844 27.175781 Z M 202.089844 27.175781 " fill-opacity="1" fill-rule="nonzero"/></g><g clip-path="url(#574a6117a8)"><path fill="#d80510" d="M 175.632812 31.324219 C 175.800781 32.023438 176.023438 32.699219 176.292969 33.351562 L 201.101562 33.351562 C 201.375 32.699219 201.59375 32.023438 201.761719 31.324219 Z M 175.632812 31.324219 " fill-opacity="1" fill-rule="nonzero"/></g></svg>