<svg xmlns="http://www.w3.org/2000/svg" xmlns:xlink="http://www.w3.org/1999/xlink" width="800" zoomAndPan="magnify" viewBox="0 0 600 97.5" height="130" preserveAspectRatio="xMidYMid meet" version="1.0"><defs><filter x="0%" y="0%" width="100%" height="100%" id="e82c59d744"><feColorMatrix values="0 0 0 0 1 0 0 0 0 1 0 0 0 0 1 0 0 0 1 0" color-interpolation-filters="sRGB"/></filter><g/><mask id="9bb1a7d19f"><g filter="url(#e82c59d744)"><rect x="-60" width="720" fill="#000000" y="-9.75" height="117" fill-opacity="0.7"/></g></mask><clipPath id="a8f45f0f51"><path d="M 1.027344 0.351562 L 595 0.351562 L 595 90.652344 L 1.027344 90.652344 Z M 1.027344 0.351562 " clip-rule="nonzero"/></clipPath><clipPath id="d348d6786e"><path d="M 7.742188 0.351562 L 588.257812 0.351562 C 590.039062 0.351562 591.746094 1.058594 593.003906 2.316406 C 594.265625 3.574219 594.972656 5.285156 594.972656 7.066406 L 594.972656 83.9375 C 594.972656 85.71875 594.265625 87.425781 593.003906 88.6875 C 591.746094 89.945312 590.039062 90.652344 588.257812 90.652344 L 7.742188 90.652344 C 5.960938 90.652344 4.253906 89.945312 2.996094 88.6875 C 1.734375 87.425781 1.027344 85.71875 1.027344 83.9375 L 1.027344 7.066406 C 1.027344 5.285156 1.734375 3.574219 2.996094 2.316406 C 4.253906 1.058594 5.960938 0.351562 7.742188 0.351562 Z M 7.742188 0.351562 " clip-rule="nonzero"/></clipPath><clipPath id="193553031d"><rect x="0" width="596" y="0" height="91"/></clipPath><clipPath id="adbebe4cb5"><path d="M 232.746094 54.28125 L 260.382812 54.28125 L 260.382812 80.578125 L 232.746094 80.578125 Z M 232.746094 54.28125 " clip-rule="nonzero"/></clipPath><clipPath id="7ff04f4a1d"><path d="M 246.542969 54.28125 L 249.800781 64.324219 L 260.339844 64.324219 L 251.8125 70.53125 L 255.070312 80.578125 L 246.542969 74.371094 L 238.015625 80.578125 L 241.273438 70.53125 L 232.746094 64.324219 L 243.285156 64.324219 Z M 246.542969 54.28125 " clip-rule="nonzero"/></clipPath><clipPath id="4da2bbf1f9"><path d="M 260.339844 54.28125 L 287.972656 54.28125 L 287.972656 80.578125 L 260.339844 80.578125 Z M 260.339844 54.28125 " clip-rule="nonzero"/></clipPath><clipPath id="36819c52b7"><path d="M 274.132812 54.28125 L 277.390625 64.324219 L 287.929688 64.324219 L 279.402344 70.53125 L 282.660156 80.578125 L 274.132812 74.371094 L 265.609375 80.578125 L 268.867188 70.53125 L 260.339844 64.324219 L 270.878906 64.324219 Z M 274.132812 54.28125 " clip-rule="nonzero"/></clipPath><clipPath id="d29d119111"><path d="M 286.203125 54.28125 L 313.835938 54.28125 L 313.835938 80.578125 L 286.203125 80.578125 Z M 286.203125 54.28125 " clip-rule="nonzero"/></clipPath><clipPath id="eb9539b669"><path d="M 300 54.28125 L 303.257812 64.324219 L 313.796875 64.324219 L 305.269531 70.53125 L 308.527344 80.578125 L 300 74.371094 L 291.472656 80.578125 L 294.730469 70.53125 L 286.203125 64.324219 L 296.742188 64.324219 Z M 300 54.28125 " clip-rule="nonzero"/></clipPath><clipPath id="d6f871fc5d"><path d="M 312.632812 54.28125 L 340.265625 54.28125 L 340.265625 80.578125 L 312.632812 80.578125 Z M 312.632812 54.28125 " clip-rule="nonzero"/></clipPath><clipPath id="4b6089a8f6"><path d="M 326.429688 54.28125 L 329.683594 64.324219 L 340.222656 64.324219 L 331.699219 70.53125 L 334.953125 80.578125 L 326.429688 74.371094 L 317.902344 80.578125 L 321.160156 70.53125 L 312.632812 64.324219 L 323.171875 64.324219 Z M 326.429688 54.28125 " clip-rule="nonzero"/></clipPath><clipPath id="70c6a9cfb6"><path d="M 339.660156 54.28125 L 367.292969 54.28125 L 367.292969 80.578125 L 339.660156 80.578125 Z M 339.660156 54.28125 " clip-rule="nonzero"/></clipPath><clipPath id="b630ad65b6"><path d="M 353.457031 54.28125 L 356.714844 64.324219 L 367.253906 64.324219 L 358.726562 70.53125 L 361.984375 80.578125 L 353.457031 74.371094 L 344.929688 80.578125 L 348.1875 70.53125 L 339.660156 64.324219 L 350.199219 64.324219 Z M 353.457031 54.28125 " clip-rule="nonzero"/></clipPath><clipPath id="1e4b2dbec0"><path d="M 137.292969 15.191406 L 162.664062 15.191406 L 162.664062 40.558594 L 137.292969 40.558594 Z M 137.292969 15.191406 " clip-rule="nonzero"/></clipPath><clipPath id="19f3b49dd0"><path d="M 137.292969 27.875 C 137.292969 26.191406 137.617188 24.574219 138.257812 23.019531 C 138.902344 21.464844 139.820312 20.09375 141.007812 18.90625 C 142.199219 17.714844 143.570312 16.800781 145.125 16.15625 C 146.675781 15.511719 148.296875 15.191406 149.976562 15.191406 C 151.660156 15.191406 153.277344 15.511719 154.832031 16.15625 C 156.382812 16.800781 157.757812 17.714844 158.945312 18.90625 C 160.136719 20.09375 161.050781 21.464844 161.695312 23.019531 C 162.339844 24.574219 162.660156 26.191406 162.660156 27.875 C 162.660156 29.554688 162.339844 31.171875 161.695312 32.726562 C 161.050781 34.28125 160.136719 35.652344 158.945312 36.839844 C 157.757812 38.03125 156.382812 38.945312 154.832031 39.589844 C 153.277344 40.234375 151.660156 40.554688 149.976562 40.554688 C 148.296875 40.554688 146.675781 40.234375 145.125 39.589844 C 143.570312 38.945312 142.199219 38.03125 141.007812 36.839844 C 139.820312 35.652344 138.902344 34.28125 138.257812 32.726562 C 137.617188 31.171875 137.292969 29.554688 137.292969 27.875 Z M 137.292969 27.875 " clip-rule="nonzero"/></clipPath><clipPath id="d03cf49ee1"><path d="M 141 15.191406 L 159 15.191406 L 159 40.558594 L 141 40.558594 Z M 141 15.191406 " clip-rule="nonzero"/></clipPath><clipPath id="9be4533a8b"><path d="M 137.292969 27.875 C 137.292969 26.191406 137.617188 24.574219 138.257812 23.019531 C 138.902344 21.464844 139.820312 20.09375 141.007812 18.90625 C 142.199219 17.714844 143.570312 16.800781 145.125 16.15625 C 146.675781 15.511719 148.296875 15.191406 149.976562 15.191406 C 151.660156 15.191406 153.277344 15.511719 154.832031 16.15625 C 156.382812 16.800781 157.757812 17.714844 158.945312 18.90625 C 160.136719 20.09375 161.050781 21.464844 161.695312 23.019531 C 162.339844 24.574219 162.660156 26.191406 162.660156 27.875 C 162.660156 29.554688 162.339844 31.171875 161.695312 32.726562 C 161.050781 34.28125 160.136719 35.652344 158.945312 36.839844 C 157.757812 38.03125 156.382812 38.945312 154.832031 39.589844 C 153.277344 40.234375 151.660156 40.554688 149.976562 40.554688 C 148.296875 40.554688 146.675781 40.234375 145.125 39.589844 C 143.570312 38.945312 142.199219 38.03125 141.007812 36.839844 C 139.820312 35.652344 138.902344 34.28125 138.257812 32.726562 C 137.617188 31.171875 137.292969 29.554688 137.292969 27.875 Z M 137.292969 27.875 " clip-rule="nonzero"/></clipPath></defs><g mask="url(#9bb1a7d19f)"><g transform="matrix(1, 0, 0, 1, 2, 3)"><g clip-path="url(#193553031d)"><g clip-path="url(#a8f45f0f51)"><g clip-path="url(#d348d6786e)"><path fill="#020512" d="M 1.027344 0.351562 L 595.050781 0.351562 L 595.050781 90.652344 L 1.027344 90.652344 Z M 1.027344 0.351562 " fill-opacity="1" fill-rule="nonzero"/></g></g></g></g></g><g fill="#ffffff" fill-opacity="1"><g transform="translate(173.207279, 34.819542)"><g><path d="M 7.375 -15.53125 C 8.945312 -15.53125 10.296875 -15.25 11.421875 -14.6875 C 12.546875 -14.125 13.414062 -13.265625 14.03125 -12.109375 C 14.644531 -10.953125 14.953125 -9.503906 14.953125 -7.765625 C 14.953125 -6.023438 14.644531 -4.578125 14.03125 -3.421875 C 13.414062 -2.265625 12.546875 -1.40625 11.421875 -0.84375 C 10.296875 -0.28125 8.945312 0 7.375 0 L 2.34375 0 L 2.34375 -15.53125 Z M 7.1875 -1.546875 C 8.488281 -1.546875 9.5625 -1.75 10.40625 -2.15625 C 11.257812 -2.5625 11.90625 -3.21875 12.34375 -4.125 C 12.78125 -5.039062 13 -6.253906 13 -7.765625 C 13 -9.273438 12.78125 -10.484375 12.34375 -11.390625 C 11.90625 -12.304688 11.257812 -12.960938 10.40625 -13.359375 C 9.5625 -13.765625 8.488281 -13.96875 7.1875 -13.96875 L 4.171875 -13.96875 L 4.171875 -1.546875 Z M 7.1875 -1.546875 "/></g></g></g><g fill="#ffffff" fill-opacity="1"><g transform="translate(189.70881, 34.819542)"><g><path d="M 5.8125 0 L 3.625 0 L 0.75 -11.71875 L 2.46875 -11.71875 L 4.6875 -2.015625 L 4.90625 -2.015625 L 7.640625 -11.71875 L 9.453125 -11.71875 L 12.265625 -2.015625 L 12.484375 -2.015625 L 14.671875 -11.71875 L 16.328125 -11.71875 L 13.484375 0 L 11.296875 0 L 8.609375 -9.09375 L 8.390625 -9.09375 Z M 5.8125 0 "/></g></g></g><g fill="#ffffff" fill-opacity="1"><g transform="translate(206.783753, 34.819542)"><g><path d="M 4.828125 0.21875 C 3.671875 0.21875 2.769531 -0.078125 2.125 -0.671875 C 1.476562 -1.273438 1.15625 -2.140625 1.15625 -3.265625 C 1.15625 -3.953125 1.296875 -4.535156 1.578125 -5.015625 C 1.867188 -5.492188 2.316406 -5.882812 2.921875 -6.1875 C 3.523438 -6.488281 4.3125 -6.71875 5.28125 -6.875 C 6.125 -7.019531 6.765625 -7.179688 7.203125 -7.359375 C 7.648438 -7.535156 7.953125 -7.734375 8.109375 -7.953125 C 8.265625 -8.171875 8.34375 -8.445312 8.34375 -8.78125 C 8.34375 -9.3125 8.160156 -9.71875 7.796875 -10 C 7.429688 -10.28125 6.84375 -10.421875 6.03125 -10.421875 C 5.269531 -10.421875 4.617188 -10.273438 4.078125 -9.984375 C 3.535156 -9.691406 3.039062 -9.253906 2.59375 -8.671875 L 2.375 -8.671875 L 1.53125 -9.875 C 2.019531 -10.507812 2.644531 -11.007812 3.40625 -11.375 C 4.175781 -11.75 5.050781 -11.9375 6.03125 -11.9375 C 7.414062 -11.9375 8.429688 -11.632812 9.078125 -11.03125 C 9.734375 -10.425781 10.0625 -9.585938 10.0625 -8.515625 L 10.0625 -2.296875 C 10.0625 -1.648438 10.335938 -1.328125 10.890625 -1.328125 C 11.078125 -1.328125 11.253906 -1.359375 11.421875 -1.421875 L 11.578125 -1.375 L 11.78125 -0.1875 C 11.65625 -0.09375 11.484375 -0.0234375 11.265625 0.015625 C 11.054688 0.0546875 10.84375 0.078125 10.625 0.078125 C 9.988281 0.078125 9.503906 -0.0625 9.171875 -0.34375 C 8.835938 -0.625 8.625 -1.039062 8.53125 -1.59375 L 8.3125 -1.609375 C 7.976562 -0.992188 7.53125 -0.535156 6.96875 -0.234375 C 6.40625 0.0664062 5.691406 0.21875 4.828125 0.21875 Z M 5.21875 -1.15625 C 5.863281 -1.15625 6.425781 -1.304688 6.90625 -1.609375 C 7.382812 -1.910156 7.75 -2.332031 8 -2.875 C 8.257812 -3.425781 8.390625 -4.054688 8.390625 -4.765625 L 8.390625 -6.25 L 8.1875 -6.296875 C 7.925781 -6.109375 7.609375 -5.953125 7.234375 -5.828125 C 6.859375 -5.710938 6.332031 -5.601562 5.65625 -5.5 C 4.976562 -5.40625 4.4375 -5.265625 4.03125 -5.078125 C 3.632812 -4.890625 3.351562 -4.644531 3.1875 -4.34375 C 3.019531 -4.050781 2.9375 -3.691406 2.9375 -3.265625 C 2.9375 -2.578125 3.132812 -2.050781 3.53125 -1.6875 C 3.9375 -1.332031 4.5 -1.15625 5.21875 -1.15625 Z M 5.21875 -1.15625 "/></g></g></g><g fill="#ffffff" fill-opacity="1"><g transform="translate(218.899749, 34.819542)"><g><path d="M 2.34375 4.96875 C 1.945312 4.96875 1.578125 4.929688 1.234375 4.859375 C 0.890625 4.796875 0.59375 4.707031 0.34375 4.59375 L 0.671875 3.21875 L 0.859375 3.15625 C 1.023438 3.238281 1.234375 3.3125 1.484375 3.375 C 1.742188 3.4375 2.007812 3.46875 2.28125 3.46875 C 2.757812 3.46875 3.148438 3.398438 3.453125 3.265625 C 3.765625 3.140625 4.03125 2.929688 4.25 2.640625 C 4.476562 2.347656 4.691406 1.941406 4.890625 1.421875 L 5.296875 0.28125 L 0.59375 -11.71875 L 2.46875 -11.71875 L 6.15625 -2.15625 L 6.34375 -2.15625 L 9.921875 -11.71875 L 11.6875 -11.71875 L 6.453125 1.84375 C 6.160156 2.59375 5.828125 3.191406 5.453125 3.640625 C 5.085938 4.097656 4.65625 4.429688 4.15625 4.640625 C 3.65625 4.859375 3.050781 4.96875 2.34375 4.96875 Z M 2.34375 4.96875 "/></g></g></g><g fill="#ffffff" fill-opacity="1"><g transform="translate(231.249357, 34.819542)"><g><path d="M 2.046875 0 L 2.046875 -11.71875 L 3.6875 -11.71875 L 3.6875 -9.875 L 3.90625 -9.828125 C 4.300781 -10.515625 4.800781 -11.035156 5.40625 -11.390625 C 6.007812 -11.753906 6.742188 -11.9375 7.609375 -11.9375 C 9.023438 -11.9375 10.046875 -11.578125 10.671875 -10.859375 C 11.304688 -10.140625 11.625 -9.035156 11.625 -7.546875 L 11.625 0 L 9.890625 0 L 9.890625 -7.5 C 9.890625 -8.207031 9.800781 -8.773438 9.625 -9.203125 C 9.445312 -9.628906 9.164062 -9.9375 8.78125 -10.125 C 8.40625 -10.320312 7.910156 -10.421875 7.296875 -10.421875 C 6.242188 -10.421875 5.390625 -10.070312 4.734375 -9.375 C 4.085938 -8.6875 3.765625 -7.566406 3.765625 -6.015625 L 3.765625 0 Z M 2.046875 0 "/></g></g></g><g fill="#ffffff" fill-opacity="1"><g transform="translate(244.735164, 34.819542)"><g><path d="M 11.15625 -5.453125 L 3.109375 -5.453125 C 3.160156 -4.035156 3.503906 -2.992188 4.140625 -2.328125 C 4.773438 -1.660156 5.644531 -1.328125 6.75 -1.328125 C 7.582031 -1.328125 8.253906 -1.472656 8.765625 -1.765625 C 9.273438 -2.066406 9.675781 -2.535156 9.96875 -3.171875 L 10.1875 -3.171875 L 11.3125 -2.5 C 10.96875 -1.65625 10.421875 -0.988281 9.671875 -0.5 C 8.929688 -0.0195312 7.957031 0.21875 6.75 0.21875 C 5.613281 0.21875 4.640625 0 3.828125 -0.4375 C 3.015625 -0.882812 2.382812 -1.5625 1.9375 -2.46875 C 1.5 -3.375 1.28125 -4.503906 1.28125 -5.859375 C 1.28125 -7.179688 1.507812 -8.300781 1.96875 -9.21875 C 2.4375 -10.132812 3.070312 -10.816406 3.875 -11.265625 C 4.6875 -11.710938 5.609375 -11.9375 6.640625 -11.9375 C 8.140625 -11.9375 9.3125 -11.515625 10.15625 -10.671875 C 11 -9.828125 11.421875 -8.570312 11.421875 -6.90625 C 11.421875 -6.25 11.410156 -5.8125 11.390625 -5.59375 Z M 9.71875 -6.90625 C 9.6875 -8.144531 9.410156 -9.046875 8.890625 -9.609375 C 8.367188 -10.179688 7.617188 -10.46875 6.640625 -10.46875 C 5.609375 -10.46875 4.800781 -10.179688 4.21875 -9.609375 C 3.632812 -9.046875 3.28125 -8.144531 3.15625 -6.90625 Z M 9.71875 -6.90625 "/></g></g></g><g fill="#ffffff" fill-opacity="1"><g transform="translate(257.222809, 34.819542)"><g><path d="M 8.453125 0 L 6.046875 0 L 0.671875 -15.53125 L 2.609375 -15.53125 L 7.171875 -2.28125 L 7.4375 -2.28125 L 11.9375 -15.53125 L 13.84375 -15.53125 Z M 8.453125 0 "/></g></g></g><g fill="#ffffff" fill-opacity="1"><g transform="translate(271.728015, 34.819542)"><g><path d="M 1.109375 0 L 1.109375 -1.515625 L 5.34375 -1.515625 L 5.34375 -13.375 L 5.09375 -13.4375 C 4.40625 -13.101562 3.800781 -12.84375 3.28125 -12.65625 C 2.769531 -12.476562 2.113281 -12.304688 1.3125 -12.140625 L 1.3125 -13.8125 C 2.101562 -13.988281 2.890625 -14.21875 3.671875 -14.5 C 4.460938 -14.789062 5.175781 -15.132812 5.8125 -15.53125 L 7.125 -15.53125 L 7.125 -1.515625 L 10.921875 -1.515625 L 10.921875 0 Z M 1.109375 0 "/></g></g></g><g fill="#ffffff" fill-opacity="1"><g transform="translate(283.302448, 34.819542)"><g><path d="M 0.9375 -0.71875 C 0.9375 -1.570312 1.03125 -2.257812 1.21875 -2.78125 C 1.40625 -3.300781 1.722656 -3.785156 2.171875 -4.234375 C 2.628906 -4.691406 3.351562 -5.285156 4.34375 -6.015625 L 6.046875 -7.25 C 6.679688 -7.707031 7.195312 -8.128906 7.59375 -8.515625 C 7.988281 -8.910156 8.300781 -9.335938 8.53125 -9.796875 C 8.757812 -10.253906 8.875 -10.765625 8.875 -11.328125 C 8.875 -12.253906 8.628906 -12.945312 8.140625 -13.40625 C 7.648438 -13.875 6.890625 -14.109375 5.859375 -14.109375 C 5.035156 -14.109375 4.300781 -13.914062 3.65625 -13.53125 C 3.019531 -13.15625 2.515625 -12.617188 2.140625 -11.921875 L 1.890625 -11.875 L 0.796875 -13.015625 C 1.316406 -13.867188 2.003906 -14.535156 2.859375 -15.015625 C 3.710938 -15.503906 4.710938 -15.75 5.859375 -15.75 C 6.960938 -15.75 7.878906 -15.5625 8.609375 -15.1875 C 9.335938 -14.8125 9.875 -14.289062 10.21875 -13.625 C 10.5625 -12.96875 10.734375 -12.203125 10.734375 -11.328125 C 10.734375 -10.640625 10.585938 -9.992188 10.296875 -9.390625 C 10.003906 -8.785156 9.59375 -8.21875 9.0625 -7.6875 C 8.53125 -7.15625 7.867188 -6.597656 7.078125 -6.015625 L 5.34375 -4.75 C 4.695312 -4.269531 4.195312 -3.863281 3.84375 -3.53125 C 3.5 -3.195312 3.25 -2.875 3.09375 -2.5625 C 2.9375 -2.25 2.859375 -1.898438 2.859375 -1.515625 L 10.734375 -1.515625 L 10.734375 0 L 0.9375 0 Z M 0.9375 -0.71875 "/></g></g></g><g fill="#ffffff" fill-opacity="1"><g transform="translate(295.237918, 34.819542)"><g><path d="M 0.671875 3.234375 C 1.285156 2.835938 1.804688 2.375 2.234375 1.84375 C 2.660156 1.3125 2.878906 0.722656 2.890625 0.078125 C 2.472656 0.078125 2.144531 -0.03125 1.90625 -0.25 C 1.664062 -0.476562 1.546875 -0.78125 1.546875 -1.15625 C 1.546875 -1.519531 1.660156 -1.820312 1.890625 -2.0625 C 2.117188 -2.300781 2.425781 -2.421875 2.8125 -2.421875 C 3.226562 -2.421875 3.566406 -2.273438 3.828125 -1.984375 C 4.085938 -1.691406 4.21875 -1.234375 4.21875 -0.609375 C 4.21875 0.492188 3.976562 1.421875 3.5 2.171875 C 3.03125 2.921875 2.332031 3.609375 1.40625 4.234375 Z M 0.671875 3.234375 "/></g></g></g><g fill="#ffffff" fill-opacity="1"><g transform="translate(301.007249, 34.819542)"><g/></g></g><g fill="#ffffff" fill-opacity="1"><g transform="translate(306.33786, 34.819542)"><g/></g></g><g fill="#ffffff" fill-opacity="1"><g transform="translate(311.672894, 34.819542)"><g><path d="M 6.15625 0.21875 C 4.644531 0.21875 3.445312 -0.117188 2.5625 -0.796875 C 1.675781 -1.472656 1.101562 -2.414062 0.84375 -3.625 L 2.203125 -4.234375 L 2.4375 -4.1875 C 2.707031 -3.257812 3.125 -2.566406 3.6875 -2.109375 C 4.25 -1.648438 5.070312 -1.421875 6.15625 -1.421875 C 7.25 -1.421875 8.082031 -1.671875 8.65625 -2.171875 C 9.226562 -2.679688 9.515625 -3.421875 9.515625 -4.390625 C 9.515625 -5.347656 9.222656 -6.078125 8.640625 -6.578125 C 8.054688 -7.085938 7.140625 -7.34375 5.890625 -7.34375 L 4.1875 -7.34375 L 4.1875 -8.84375 L 5.703125 -8.84375 C 6.679688 -8.84375 7.457031 -9.082031 8.03125 -9.5625 C 8.613281 -10.050781 8.90625 -10.738281 8.90625 -11.625 C 8.90625 -12.46875 8.65625 -13.097656 8.15625 -13.515625 C 7.65625 -13.941406 6.953125 -14.15625 6.046875 -14.15625 C 4.484375 -14.15625 3.367188 -13.53125 2.703125 -12.28125 L 2.46875 -12.25 L 1.4375 -13.359375 C 1.863281 -14.078125 2.46875 -14.65625 3.25 -15.09375 C 4.03125 -15.53125 4.960938 -15.75 6.046875 -15.75 C 7.046875 -15.75 7.890625 -15.59375 8.578125 -15.28125 C 9.273438 -14.976562 9.804688 -14.535156 10.171875 -13.953125 C 10.535156 -13.367188 10.71875 -12.675781 10.71875 -11.875 C 10.71875 -11.101562 10.492188 -10.429688 10.046875 -9.859375 C 9.609375 -9.285156 9.023438 -8.832031 8.296875 -8.5 L 8.296875 -8.265625 C 9.316406 -8.023438 10.085938 -7.566406 10.609375 -6.890625 C 11.128906 -6.210938 11.390625 -5.378906 11.390625 -4.390625 C 11.390625 -2.921875 10.945312 -1.785156 10.0625 -0.984375 C 9.1875 -0.179688 7.882812 0.21875 6.15625 0.21875 Z M 6.15625 0.21875 "/></g></g></g><g fill="#ffffff" fill-opacity="1"><g transform="translate(324.287964, 34.819542)"><g/></g></g><g fill="#ffffff" fill-opacity="1"><g transform="translate(329.618574, 34.819542)"><g><path d="M 7.375 -15.53125 C 8.945312 -15.53125 10.296875 -15.25 11.421875 -14.6875 C 12.546875 -14.125 13.414062 -13.265625 14.03125 -12.109375 C 14.644531 -10.953125 14.953125 -9.503906 14.953125 -7.765625 C 14.953125 -6.023438 14.644531 -4.578125 14.03125 -3.421875 C 13.414062 -2.265625 12.546875 -1.40625 11.421875 -0.84375 C 10.296875 -0.28125 8.945312 0 7.375 0 L 2.34375 0 L 2.34375 -15.53125 Z M 7.1875 -1.546875 C 8.488281 -1.546875 9.5625 -1.75 10.40625 -2.15625 C 11.257812 -2.5625 11.90625 -3.21875 12.34375 -4.125 C 12.78125 -5.039062 13 -6.253906 13 -7.765625 C 13 -9.273438 12.78125 -10.484375 12.34375 -11.390625 C 11.90625 -12.304688 11.257812 -12.960938 10.40625 -13.359375 C 9.5625 -13.765625 8.488281 -13.96875 7.1875 -13.96875 L 4.171875 -13.96875 L 4.171875 -1.546875 Z M 7.1875 -1.546875 "/></g></g></g><g fill="#ffffff" fill-opacity="1"><g transform="translate(346.120105, 34.819542)"><g><path d="M 4.828125 0.21875 C 3.671875 0.21875 2.769531 -0.078125 2.125 -0.671875 C 1.476562 -1.273438 1.15625 -2.140625 1.15625 -3.265625 C 1.15625 -3.953125 1.296875 -4.535156 1.578125 -5.015625 C 1.867188 -5.492188 2.316406 -5.882812 2.921875 -6.1875 C 3.523438 -6.488281 4.3125 -6.71875 5.28125 -6.875 C 6.125 -7.019531 6.765625 -7.179688 7.203125 -7.359375 C 7.648438 -7.535156 7.953125 -7.734375 8.109375 -7.953125 C 8.265625 -8.171875 8.34375 -8.445312 8.34375 -8.78125 C 8.34375 -9.3125 8.160156 -9.71875 7.796875 -10 C 7.429688 -10.28125 6.84375 -10.421875 6.03125 -10.421875 C 5.269531 -10.421875 4.617188 -10.273438 4.078125 -9.984375 C 3.535156 -9.691406 3.039062 -9.253906 2.59375 -8.671875 L 2.375 -8.671875 L 1.53125 -9.875 C 2.019531 -10.507812 2.644531 -11.007812 3.40625 -11.375 C 4.175781 -11.75 5.050781 -11.9375 6.03125 -11.9375 C 7.414062 -11.9375 8.429688 -11.632812 9.078125 -11.03125 C 9.734375 -10.425781 10.0625 -9.585938 10.0625 -8.515625 L 10.0625 -2.296875 C 10.0625 -1.648438 10.335938 -1.328125 10.890625 -1.328125 C 11.078125 -1.328125 11.253906 -1.359375 11.421875 -1.421875 L 11.578125 -1.375 L 11.78125 -0.1875 C 11.65625 -0.09375 11.484375 -0.0234375 11.265625 0.015625 C 11.054688 0.0546875 10.84375 0.078125 10.625 0.078125 C 9.988281 0.078125 9.503906 -0.0625 9.171875 -0.34375 C 8.835938 -0.625 8.625 -1.039062 8.53125 -1.59375 L 8.3125 -1.609375 C 7.976562 -0.992188 7.53125 -0.535156 6.96875 -0.234375 C 6.40625 0.0664062 5.691406 0.21875 4.828125 0.21875 Z M 5.21875 -1.15625 C 5.863281 -1.15625 6.425781 -1.304688 6.90625 -1.609375 C 7.382812 -1.910156 7.75 -2.332031 8 -2.875 C 8.257812 -3.425781 8.390625 -4.054688 8.390625 -4.765625 L 8.390625 -6.25 L 8.1875 -6.296875 C 7.925781 -6.109375 7.609375 -5.953125 7.234375 -5.828125 C 6.859375 -5.710938 6.332031 -5.601562 5.65625 -5.5 C 4.976562 -5.40625 4.4375 -5.265625 4.03125 -5.078125 C 3.632812 -4.890625 3.351562 -4.644531 3.1875 -4.34375 C 3.019531 -4.050781 2.9375 -3.691406 2.9375 -3.265625 C 2.9375 -2.578125 3.132812 -2.050781 3.53125 -1.6875 C 3.9375 -1.332031 4.5 -1.15625 5.21875 -1.15625 Z M 5.21875 -1.15625 "/></g></g></g><g fill="#ffffff" fill-opacity="1"><g transform="translate(358.236101, 34.819542)"><g><path d="M 2.34375 4.96875 C 1.945312 4.96875 1.578125 4.929688 1.234375 4.859375 C 0.890625 4.796875 0.59375 4.707031 0.34375 4.59375 L 0.671875 3.21875 L 0.859375 3.15625 C 1.023438 3.238281 1.234375 3.3125 1.484375 3.375 C 1.742188 3.4375 2.007812 3.46875 2.28125 3.46875 C 2.757812 3.46875 3.148438 3.398438 3.453125 3.265625 C 3.765625 3.140625 4.03125 2.929688 4.25 2.640625 C 4.476562 2.347656 4.691406 1.941406 4.890625 1.421875 L 5.296875 0.28125 L 0.59375 -11.71875 L 2.46875 -11.71875 L 6.15625 -2.15625 L 6.34375 -2.15625 L 9.921875 -11.71875 L 11.6875 -11.71875 L 6.453125 1.84375 C 6.160156 2.59375 5.828125 3.191406 5.453125 3.640625 C 5.085938 4.097656 4.65625 4.429688 4.15625 4.640625 C 3.65625 4.859375 3.050781 4.96875 2.34375 4.96875 Z M 2.34375 4.96875 "/></g></g></g><g fill="#ffffff" fill-opacity="1"><g transform="translate(370.585709, 34.819542)"><g><path d="M 5.34375 0.21875 C 4.601562 0.21875 3.921875 0.125 3.296875 -0.0625 C 2.671875 -0.257812 2.140625 -0.523438 1.703125 -0.859375 C 1.273438 -1.203125 0.972656 -1.585938 0.796875 -2.015625 L 1.8125 -3.078125 L 2.046875 -3.078125 C 2.421875 -2.492188 2.878906 -2.054688 3.421875 -1.765625 C 3.960938 -1.472656 4.601562 -1.328125 5.34375 -1.328125 C 6.207031 -1.328125 6.863281 -1.492188 7.3125 -1.828125 C 7.757812 -2.171875 7.984375 -2.640625 7.984375 -3.234375 C 7.984375 -3.691406 7.847656 -4.070312 7.578125 -4.375 C 7.304688 -4.675781 6.863281 -4.90625 6.25 -5.0625 L 4.28125 -5.546875 C 3.226562 -5.796875 2.457031 -6.195312 1.96875 -6.75 C 1.488281 -7.300781 1.25 -7.984375 1.25 -8.796875 C 1.25 -9.441406 1.410156 -10 1.734375 -10.46875 C 2.054688 -10.9375 2.523438 -11.296875 3.140625 -11.546875 C 3.753906 -11.804688 4.484375 -11.9375 5.328125 -11.9375 C 6.398438 -11.9375 7.242188 -11.785156 7.859375 -11.484375 C 8.484375 -11.179688 8.96875 -10.765625 9.3125 -10.234375 L 8.34375 -9.265625 L 8.125 -9.265625 C 7.75 -9.703125 7.335938 -10.015625 6.890625 -10.203125 C 6.453125 -10.398438 5.929688 -10.5 5.328125 -10.5 C 4.546875 -10.5 3.953125 -10.359375 3.546875 -10.078125 C 3.140625 -9.804688 2.9375 -9.40625 2.9375 -8.875 C 2.9375 -8.40625 3.078125 -8.023438 3.359375 -7.734375 C 3.648438 -7.441406 4.160156 -7.207031 4.890625 -7.03125 L 6.828125 -6.5625 C 7.847656 -6.320312 8.582031 -5.921875 9.03125 -5.359375 C 9.488281 -4.804688 9.71875 -4.109375 9.71875 -3.265625 C 9.71875 -2.578125 9.550781 -1.96875 9.21875 -1.4375 C 8.894531 -0.914062 8.40625 -0.507812 7.75 -0.21875 C 7.09375 0.0703125 6.289062 0.21875 5.34375 0.21875 Z M 5.34375 0.21875 "/></g></g></g><g fill="#ffffff" fill-opacity="1"><g transform="translate(381.416829, 34.819542)"><g/></g></g><g fill="#ffffff" fill-opacity="1"><g transform="translate(386.74744, 34.819542)"><g><path d="M 13.96875 0 L 12.015625 0 L 10.59375 -4.265625 L 3.96875 -4.265625 L 2.53125 0 L 0.609375 0 L 6.03125 -15.53125 L 8.5625 -15.53125 Z M 7.140625 -13.640625 L 4.484375 -5.78125 L 10.0625 -5.78125 L 7.40625 -13.640625 Z M 7.140625 -13.640625 "/></g></g></g><g fill="#ffffff" fill-opacity="1"><g transform="translate(401.337596, 34.819542)"><g><path d="M 6.03125 4.96875 C 4.1875 4.96875 2.835938 4.660156 1.984375 4.046875 C 1.140625 3.429688 0.71875 2.613281 0.71875 1.59375 C 0.71875 0.9375 0.914062 0.410156 1.3125 0.015625 C 1.707031 -0.367188 2.28125 -0.644531 3.03125 -0.8125 L 3.03125 -1.046875 C 2.675781 -1.242188 2.40625 -1.476562 2.21875 -1.75 C 2.039062 -2.03125 1.953125 -2.363281 1.953125 -2.75 C 1.953125 -3.207031 2.09375 -3.578125 2.375 -3.859375 C 2.664062 -4.140625 3.09375 -4.351562 3.65625 -4.5 L 3.65625 -4.71875 C 2.382812 -5.394531 1.75 -6.488281 1.75 -8 C 1.75 -8.769531 1.921875 -9.453125 2.265625 -10.046875 C 2.617188 -10.640625 3.113281 -11.101562 3.75 -11.4375 C 4.394531 -11.769531 5.148438 -11.9375 6.015625 -11.9375 C 6.992188 -11.9375 7.8125 -11.722656 8.46875 -11.296875 C 8.71875 -11.566406 8.90625 -11.859375 9.03125 -12.171875 C 9.15625 -12.492188 9.234375 -12.851562 9.265625 -13.25 L 9.5 -13.375 L 10.921875 -13.046875 C 10.847656 -12.453125 10.664062 -11.945312 10.375 -11.53125 C 10.09375 -11.125 9.691406 -10.785156 9.171875 -10.515625 L 9.171875 -10.296875 C 9.546875 -9.992188 9.820312 -9.640625 10 -9.234375 C 10.175781 -8.835938 10.265625 -8.375 10.265625 -7.84375 C 10.265625 -7.113281 10.085938 -6.453125 9.734375 -5.859375 C 9.378906 -5.273438 8.878906 -4.8125 8.234375 -4.46875 C 7.597656 -4.132812 6.859375 -3.96875 6.015625 -3.96875 C 5.910156 -3.96875 5.734375 -3.976562 5.484375 -4 C 5.203125 -4.007812 4.992188 -4.015625 4.859375 -4.015625 C 4.484375 -4.015625 4.1875 -3.914062 3.96875 -3.71875 C 3.75 -3.53125 3.640625 -3.289062 3.640625 -3 C 3.640625 -2.625 3.757812 -2.347656 4 -2.171875 C 4.238281 -2.003906 4.628906 -1.910156 5.171875 -1.890625 L 7.9375 -1.796875 C 9.132812 -1.753906 10.019531 -1.472656 10.59375 -0.953125 C 11.175781 -0.441406 11.46875 0.28125 11.46875 1.21875 C 11.46875 1.914062 11.28125 2.546875 10.90625 3.109375 C 10.53125 3.679688 9.9375 4.132812 9.125 4.46875 C 8.3125 4.800781 7.28125 4.96875 6.03125 4.96875 Z M 6.015625 -5.453125 C 6.835938 -5.453125 7.472656 -5.664062 7.921875 -6.09375 C 8.378906 -6.53125 8.609375 -7.140625 8.609375 -7.921875 C 8.609375 -8.734375 8.382812 -9.359375 7.9375 -9.796875 C 7.488281 -10.234375 6.847656 -10.453125 6.015625 -10.453125 C 5.179688 -10.453125 4.539062 -10.234375 4.09375 -9.796875 C 3.65625 -9.359375 3.4375 -8.734375 3.4375 -7.921875 C 3.4375 -7.140625 3.65625 -6.53125 4.09375 -6.09375 C 4.539062 -5.664062 5.179688 -5.453125 6.015625 -5.453125 Z M 6.03125 3.484375 C 6.894531 3.484375 7.597656 3.382812 8.140625 3.1875 C 8.691406 3 9.085938 2.75 9.328125 2.4375 C 9.578125 2.125 9.703125 1.769531 9.703125 1.375 C 9.703125 1.03125 9.632812 0.75 9.5 0.53125 C 9.363281 0.320312 9.148438 0.164062 8.859375 0.0625 C 8.578125 -0.0390625 8.179688 -0.109375 7.671875 -0.140625 L 5.0625 -0.265625 L 4.6875 -0.265625 C 3.21875 -0.242188 2.484375 0.320312 2.484375 1.4375 C 2.484375 2.800781 3.664062 3.484375 6.03125 3.484375 Z M 6.03125 3.484375 "/></g></g></g><g fill="#ffffff" fill-opacity="1"><g transform="translate(413.336779, 34.819542)"><g><path d="M 6.71875 0.21875 C 5.613281 0.21875 4.648438 -0.0078125 3.828125 -0.46875 C 3.015625 -0.9375 2.382812 -1.625 1.9375 -2.53125 C 1.5 -3.445312 1.28125 -4.554688 1.28125 -5.859375 C 1.28125 -7.148438 1.5 -8.25 1.9375 -9.15625 C 2.382812 -10.070312 3.015625 -10.765625 3.828125 -11.234375 C 4.648438 -11.703125 5.613281 -11.9375 6.71875 -11.9375 C 7.820312 -11.9375 8.78125 -11.703125 9.59375 -11.234375 C 10.414062 -10.765625 11.046875 -10.070312 11.484375 -9.15625 C 11.929688 -8.25 12.15625 -7.148438 12.15625 -5.859375 C 12.15625 -4.554688 11.929688 -3.445312 11.484375 -2.53125 C 11.046875 -1.625 10.414062 -0.9375 9.59375 -0.46875 C 8.78125 -0.0078125 7.820312 0.21875 6.71875 0.21875 Z M 6.71875 -1.328125 C 7.882812 -1.328125 8.773438 -1.691406 9.390625 -2.421875 C 10.015625 -3.160156 10.328125 -4.304688 10.328125 -5.859375 C 10.328125 -7.398438 10.015625 -8.539062 9.390625 -9.28125 C 8.773438 -10.019531 7.882812 -10.390625 6.71875 -10.390625 C 5.550781 -10.390625 4.65625 -10.019531 4.03125 -9.28125 C 3.40625 -8.539062 3.09375 -7.398438 3.09375 -5.859375 C 3.09375 -4.304688 3.40625 -3.160156 4.03125 -2.421875 C 4.65625 -1.691406 5.550781 -1.328125 6.71875 -1.328125 Z M 6.71875 -1.328125 "/></g></g></g><g clip-path="url(#adbebe4cb5)"><g clip-path="url(#7ff04f4a1d)"><path fill="#e7ad12" d="M 232.746094 54.28125 L 260.382812 54.28125 L 260.382812 80.578125 L 232.746094 80.578125 Z M 232.746094 54.28125 " fill-opacity="1" fill-rule="nonzero"/></g></g><g clip-path="url(#4da2bbf1f9)"><g clip-path="url(#36819c52b7)"><path fill="#e7ad12" d="M 260.339844 54.28125 L 287.972656 54.28125 L 287.972656 80.578125 L 260.339844 80.578125 Z M 260.339844 54.28125 " fill-opacity="1" fill-rule="nonzero"/></g></g><g clip-path="url(#d29d119111)"><g clip-path="url(#eb9539b669)"><path fill="#e7ad12" d="M 286.203125 54.28125 L 313.835938 54.28125 L 313.835938 80.578125 L 286.203125 80.578125 Z M 286.203125 54.28125 " fill-opacity="1" fill-rule="nonzero"/></g></g><g clip-path="url(#d6f871fc5d)"><g clip-path="url(#4b6089a8f6)"><path fill="#e7ad12" d="M 312.632812 54.28125 L 340.265625 54.28125 L 340.265625 80.578125 L 312.632812 80.578125 Z M 312.632812 54.28125 " fill-opacity="1" fill-rule="nonzero"/></g></g><g clip-path="url(#70c6a9cfb6)"><g clip-path="url(#b630ad65b6)"><path fill="#e7ad12" d="M 339.660156 54.28125 L 367.292969 54.28125 L 367.292969 80.578125 L 339.660156 80.578125 Z M 339.660156 54.28125 " fill-opacity="1" fill-rule="nonzero"/></g></g><g clip-path="url(#1e4b2dbec0)"><g clip-path="url(#19f3b49dd0)"><path fill="#ff0000" d="M 132.621094 14.625 L 167.332031 14.625 L 167.332031 41.121094 L 132.621094 41.121094 Z M 132.621094 14.625 " fill-opacity="1" fill-rule="nonzero"/></g></g><g clip-path="url(#d03cf49ee1)"><g clip-path="url(#9be4533a8b)"><path fill="#ffffff" d="M 141.300781 14.625 L 158.65625 14.625 L 158.65625 41.121094 L 141.300781 41.121094 Z M 150.300781 35.210938 L 150.140625 32.09375 C 150.132812 31.902344 150.277344 31.742188 150.46875 31.734375 C 150.492188 31.730469 150.515625 31.734375 150.542969 31.738281 L 153.648438 32.285156 L 153.226562 31.128906 C 153.191406 31.03125 153.222656 30.925781 153.300781 30.863281 L 156.703125 28.109375 L 155.9375 27.75 C 155.828125 27.699219 155.777344 27.578125 155.8125 27.464844 L 156.484375 25.394531 L 154.527344 25.8125 C 154.417969 25.835938 154.304688 25.777344 154.261719 25.675781 L 153.882812 24.78125 L 152.351562 26.421875 C 152.261719 26.515625 152.113281 26.519531 152.019531 26.433594 C 151.960938 26.375 151.9375 26.296875 151.953125 26.21875 L 152.6875 22.414062 L 151.507812 23.097656 C 151.394531 23.164062 151.25 23.125 151.183594 23.011719 C 151.183594 23.007812 151.179688 23.003906 151.175781 23 L 149.976562 20.640625 L 148.777344 23 C 148.71875 23.117188 148.578125 23.164062 148.460938 23.105469 C 148.457031 23.101562 148.453125 23.097656 148.449219 23.097656 L 147.265625 22.414062 L 148.003906 26.21875 C 148.027344 26.34375 147.945312 26.46875 147.816406 26.492188 C 147.738281 26.507812 147.65625 26.480469 147.601562 26.421875 L 146.074219 24.78125 L 145.691406 25.675781 C 145.648438 25.777344 145.539062 25.835938 145.429688 25.8125 L 143.46875 25.394531 L 144.140625 27.464844 C 144.179688 27.578125 144.125 27.699219 144.019531 27.75 L 143.253906 28.109375 L 146.65625 30.863281 C 146.734375 30.925781 146.761719 31.03125 146.726562 31.128906 L 146.308594 32.285156 L 149.414062 31.738281 C 149.601562 31.707031 149.777344 31.832031 149.808594 32.019531 C 149.8125 32.042969 149.816406 32.066406 149.816406 32.09375 L 149.652344 35.210938 Z M 150.300781 35.210938 " fill-opacity="1" fill-rule="nonzero"/></g></g></svg>