<svg xmlns="http://www.w3.org/2000/svg" xmlns:xlink="http://www.w3.org/1999/xlink" width="800" zoomAndPan="magnify" viewBox="0 0 600 97.5" height="130" preserveAspectRatio="xMidYMid meet" version="1.0"><defs><filter x="0%" y="0%" width="100%" height="100%" id="0baaa6dce7"><feColorMatrix values="0 0 0 0 1 0 0 0 0 1 0 0 0 0 1 0 0 0 1 0" color-interpolation-filters="sRGB"/></filter><g/><mask id="ac1cb7ed8d"><g filter="url(#0baaa6dce7)"><rect x="-60" width="720" fill="#000000" y="-9.75" height="117" fill-opacity="0.7"/></g></mask><clipPath id="6e5f4ce1e4"><path d="M 1.027344 0.351562 L 595 0.351562 L 595 90.652344 L 1.027344 90.652344 Z M 1.027344 0.351562 " clip-rule="nonzero"/></clipPath><clipPath id="a8881c984d"><path d="M 7.742188 0.351562 L 588.257812 0.351562 C 590.039062 0.351562 591.746094 1.058594 593.003906 2.316406 C 594.265625 3.574219 594.972656 5.285156 594.972656 7.066406 L 594.972656 83.9375 C 594.972656 85.71875 594.265625 87.425781 593.003906 88.6875 C 591.746094 89.945312 590.039062 90.652344 588.257812 90.652344 L 7.742188 90.652344 C 5.960938 90.652344 4.253906 89.945312 2.996094 88.6875 C 1.734375 87.425781 1.027344 85.71875 1.027344 83.9375 L 1.027344 7.066406 C 1.027344 5.285156 1.734375 3.574219 2.996094 2.316406 C 4.253906 1.058594 5.960938 0.351562 7.742188 0.351562 Z M 7.742188 0.351562 " clip-rule="nonzero"/></clipPath><clipPath id="1e5305ca1e"><rect x="0" width="596" y="0" height="91"/></clipPath><clipPath id="48049991e3"><path d="M 232.746094 54.28125 L 260.382812 54.28125 L 260.382812 80.578125 L 232.746094 80.578125 Z M 232.746094 54.28125 " clip-rule="nonzero"/></clipPath><clipPath id="2e42897b80"><path d="M 246.542969 54.28125 L 249.800781 64.324219 L 260.339844 64.324219 L 251.8125 70.53125 L 255.070312 80.578125 L 246.542969 74.371094 L 238.015625 80.578125 L 241.273438 70.53125 L 232.746094 64.324219 L 243.285156 64.324219 Z M 246.542969 54.28125 " clip-rule="nonzero"/></clipPath><clipPath id="8905da8e3d"><path d="M 260.339844 54.28125 L 287.972656 54.28125 L 287.972656 80.578125 L 260.339844 80.578125 Z M 260.339844 54.28125 " clip-rule="nonzero"/></clipPath><clipPath id="90dadd0c7b"><path d="M 274.132812 54.28125 L 277.390625 64.324219 L 287.929688 64.324219 L 279.402344 70.53125 L 282.660156 80.578125 L 274.132812 74.371094 L 265.609375 80.578125 L 268.867188 70.53125 L 260.339844 64.324219 L 270.878906 64.324219 Z M 274.132812 54.28125 " clip-rule="nonzero"/></clipPath><clipPath id="b9b41b6308"><path d="M 286.203125 54.28125 L 313.835938 54.28125 L 313.835938 80.578125 L 286.203125 80.578125 Z M 286.203125 54.28125 " clip-rule="nonzero"/></clipPath><clipPath id="bcc1dab0fd"><path d="M 300 54.28125 L 303.257812 64.324219 L 313.796875 64.324219 L 305.269531 70.53125 L 308.527344 80.578125 L 300 74.371094 L 291.472656 80.578125 L 294.730469 70.53125 L 286.203125 64.324219 L 296.742188 64.324219 Z M 300 54.28125 " clip-rule="nonzero"/></clipPath><clipPath id="65e6c21d96"><path d="M 312.632812 54.28125 L 340.265625 54.28125 L 340.265625 80.578125 L 312.632812 80.578125 Z M 312.632812 54.28125 " clip-rule="nonzero"/></clipPath><clipPath id="0f786abfad"><path d="M 326.429688 54.28125 L 329.683594 64.324219 L 340.222656 64.324219 L 331.699219 70.53125 L 334.953125 80.578125 L 326.429688 74.371094 L 317.902344 80.578125 L 321.160156 70.53125 L 312.632812 64.324219 L 323.171875 64.324219 Z M 326.429688 54.28125 " clip-rule="nonzero"/></clipPath><clipPath id="7145a59b99"><path d="M 339.660156 54.28125 L 367.292969 54.28125 L 367.292969 80.578125 L 339.660156 80.578125 Z M 339.660156 54.28125 " clip-rule="nonzero"/></clipPath><clipPath id="1607f01d9a"><path d="M 353.457031 54.28125 L 356.714844 64.324219 L 367.253906 64.324219 L 358.726562 70.53125 L 361.984375 80.578125 L 353.457031 74.371094 L 344.929688 80.578125 L 348.1875 70.53125 L 339.660156 64.324219 L 350.199219 64.324219 Z M 353.457031 54.28125 " clip-rule="nonzero"/></clipPath><clipPath id="ae05fef96d"><path d="M 142 23 L 161.886719 23 L 161.886719 33 L 142 33 Z M 142 23 " clip-rule="nonzero"/></clipPath><clipPath id="257863a8e2"><path d="M 142 32 L 161.886719 32 L 161.886719 41.53125 L 142 41.53125 Z M 142 32 " clip-rule="nonzero"/></clipPath><clipPath id="a28b8cc065"><path d="M 142 14.671875 L 161.886719 14.671875 L 161.886719 24 L 142 24 Z M 142 14.671875 " clip-rule="nonzero"/></clipPath><clipPath id="1a732381f3"><path d="M 135.027344 15 L 143 15 L 143 41 L 135.027344 41 Z M 135.027344 15 " clip-rule="nonzero"/></clipPath></defs><g mask="url(#ac1cb7ed8d)"><g transform="matrix(1, 0, 0, 1, 2, 3)"><g clip-path="url(#1e5305ca1e)"><g clip-path="url(#6e5f4ce1e4)"><g clip-path="url(#a8881c984d)"><path fill="#020512" d="M 1.027344 0.351562 L 595.050781 0.351562 L 595.050781 90.652344 L 1.027344 90.652344 Z M 1.027344 0.351562 " fill-opacity="1" fill-rule="nonzero"/></g></g></g></g></g><g fill="#ffffff" fill-opacity="1"><g transform="translate(171.511614, 34.819542)"><g><path d="M 2.34375 0 L 2.34375 -15.53125 L 7.984375 -15.53125 C 9.023438 -15.53125 9.898438 -15.359375 10.609375 -15.015625 C 11.316406 -14.671875 11.847656 -14.179688 12.203125 -13.546875 C 12.554688 -12.921875 12.734375 -12.179688 12.734375 -11.328125 C 12.734375 -10.367188 12.492188 -9.570312 12.015625 -8.9375 C 11.535156 -8.3125 10.785156 -7.847656 9.765625 -7.546875 L 9.765625 -7.3125 C 10.265625 -7.113281 10.671875 -6.800781 10.984375 -6.375 C 11.304688 -5.957031 11.601562 -5.328125 11.875 -4.484375 L 13.3125 0 L 11.421875 0 L 9.875 -4.75 C 9.6875 -5.3125 9.472656 -5.75 9.234375 -6.0625 C 8.992188 -6.382812 8.691406 -6.613281 8.328125 -6.75 C 7.960938 -6.894531 7.492188 -6.96875 6.921875 -6.96875 L 4.171875 -6.96875 L 4.171875 0 Z M 7.9375 -8.515625 C 8.914062 -8.515625 9.640625 -8.738281 10.109375 -9.1875 C 10.585938 -9.632812 10.828125 -10.320312 10.828125 -11.25 C 10.828125 -12.164062 10.585938 -12.847656 10.109375 -13.296875 C 9.640625 -13.742188 8.914062 -13.96875 7.9375 -13.96875 L 4.171875 -13.96875 L 4.171875 -8.515625 Z M 7.9375 -8.515625 "/></g></g></g><g fill="#ffffff" fill-opacity="1"><g transform="translate(185.889396, 34.819542)"><g><path d="M 4.828125 0.21875 C 3.671875 0.21875 2.769531 -0.078125 2.125 -0.671875 C 1.476562 -1.273438 1.15625 -2.140625 1.15625 -3.265625 C 1.15625 -3.953125 1.296875 -4.535156 1.578125 -5.015625 C 1.867188 -5.492188 2.316406 -5.882812 2.921875 -6.1875 C 3.523438 -6.488281 4.3125 -6.71875 5.28125 -6.875 C 6.125 -7.019531 6.765625 -7.179688 7.203125 -7.359375 C 7.648438 -7.535156 7.953125 -7.734375 8.109375 -7.953125 C 8.265625 -8.171875 8.34375 -8.445312 8.34375 -8.78125 C 8.34375 -9.3125 8.160156 -9.71875 7.796875 -10 C 7.429688 -10.28125 6.84375 -10.421875 6.03125 -10.421875 C 5.269531 -10.421875 4.617188 -10.273438 4.078125 -9.984375 C 3.535156 -9.691406 3.039062 -9.253906 2.59375 -8.671875 L 2.375 -8.671875 L 1.53125 -9.875 C 2.019531 -10.507812 2.644531 -11.007812 3.40625 -11.375 C 4.175781 -11.75 5.050781 -11.9375 6.03125 -11.9375 C 7.414062 -11.9375 8.429688 -11.632812 9.078125 -11.03125 C 9.734375 -10.425781 10.0625 -9.585938 10.0625 -8.515625 L 10.0625 -2.296875 C 10.0625 -1.648438 10.335938 -1.328125 10.890625 -1.328125 C 11.078125 -1.328125 11.253906 -1.359375 11.421875 -1.421875 L 11.578125 -1.375 L 11.78125 -0.1875 C 11.65625 -0.09375 11.484375 -0.0234375 11.265625 0.015625 C 11.054688 0.0546875 10.84375 0.078125 10.625 0.078125 C 9.988281 0.078125 9.503906 -0.0625 9.171875 -0.34375 C 8.835938 -0.625 8.625 -1.039062 8.53125 -1.59375 L 8.3125 -1.609375 C 7.976562 -0.992188 7.53125 -0.535156 6.96875 -0.234375 C 6.40625 0.0664062 5.691406 0.21875 4.828125 0.21875 Z M 5.21875 -1.15625 C 5.863281 -1.15625 6.425781 -1.304688 6.90625 -1.609375 C 7.382812 -1.910156 7.75 -2.332031 8 -2.875 C 8.257812 -3.425781 8.390625 -4.054688 8.390625 -4.765625 L 8.390625 -6.25 L 8.1875 -6.296875 C 7.925781 -6.109375 7.609375 -5.953125 7.234375 -5.828125 C 6.859375 -5.710938 6.332031 -5.601562 5.65625 -5.5 C 4.976562 -5.40625 4.4375 -5.265625 4.03125 -5.078125 C 3.632812 -4.890625 3.351562 -4.644531 3.1875 -4.34375 C 3.019531 -4.050781 2.9375 -3.691406 2.9375 -3.265625 C 2.9375 -2.578125 3.132812 -2.050781 3.53125 -1.6875 C 3.9375 -1.332031 4.5 -1.15625 5.21875 -1.15625 Z M 5.21875 -1.15625 "/></g></g></g><g fill="#ffffff" fill-opacity="1"><g transform="translate(198.005391, 34.819542)"><g><path d="M 7.921875 -1.859375 L 8.46875 -0.609375 C 8.195312 -0.335938 7.835938 -0.132812 7.390625 0 C 6.941406 0.144531 6.453125 0.21875 5.921875 0.21875 C 3.679688 0.21875 2.5625 -0.910156 2.5625 -3.171875 L 2.5625 -10.296875 L 0.53125 -10.296875 L 0.53125 -11.71875 L 2.5625 -11.71875 L 2.5625 -14.203125 L 4.296875 -14.484375 L 4.296875 -11.71875 L 8.078125 -11.71875 L 8.078125 -10.296875 L 4.296875 -10.296875 L 4.296875 -3.34375 C 4.296875 -2 4.878906 -1.328125 6.046875 -1.328125 C 6.691406 -1.328125 7.242188 -1.503906 7.703125 -1.859375 Z M 7.921875 -1.859375 "/></g></g></g><g fill="#ffffff" fill-opacity="1"><g transform="translate(206.925138, 34.819542)"><g><path d="M 4.828125 0.21875 C 3.671875 0.21875 2.769531 -0.078125 2.125 -0.671875 C 1.476562 -1.273438 1.15625 -2.140625 1.15625 -3.265625 C 1.15625 -3.953125 1.296875 -4.535156 1.578125 -5.015625 C 1.867188 -5.492188 2.316406 -5.882812 2.921875 -6.1875 C 3.523438 -6.488281 4.3125 -6.71875 5.28125 -6.875 C 6.125 -7.019531 6.765625 -7.179688 7.203125 -7.359375 C 7.648438 -7.535156 7.953125 -7.734375 8.109375 -7.953125 C 8.265625 -8.171875 8.34375 -8.445312 8.34375 -8.78125 C 8.34375 -9.3125 8.160156 -9.71875 7.796875 -10 C 7.429688 -10.28125 6.84375 -10.421875 6.03125 -10.421875 C 5.269531 -10.421875 4.617188 -10.273438 4.078125 -9.984375 C 3.535156 -9.691406 3.039062 -9.253906 2.59375 -8.671875 L 2.375 -8.671875 L 1.53125 -9.875 C 2.019531 -10.507812 2.644531 -11.007812 3.40625 -11.375 C 4.175781 -11.75 5.050781 -11.9375 6.03125 -11.9375 C 7.414062 -11.9375 8.429688 -11.632812 9.078125 -11.03125 C 9.734375 -10.425781 10.0625 -9.585938 10.0625 -8.515625 L 10.0625 -2.296875 C 10.0625 -1.648438 10.335938 -1.328125 10.890625 -1.328125 C 11.078125 -1.328125 11.253906 -1.359375 11.421875 -1.421875 L 11.578125 -1.375 L 11.78125 -0.1875 C 11.65625 -0.09375 11.484375 -0.0234375 11.265625 0.015625 C 11.054688 0.0546875 10.84375 0.078125 10.625 0.078125 C 9.988281 0.078125 9.503906 -0.0625 9.171875 -0.34375 C 8.835938 -0.625 8.625 -1.039062 8.53125 -1.59375 L 8.3125 -1.609375 C 7.976562 -0.992188 7.53125 -0.535156 6.96875 -0.234375 C 6.40625 0.0664062 5.691406 0.21875 4.828125 0.21875 Z M 5.21875 -1.15625 C 5.863281 -1.15625 6.425781 -1.304688 6.90625 -1.609375 C 7.382812 -1.910156 7.75 -2.332031 8 -2.875 C 8.257812 -3.425781 8.390625 -4.054688 8.390625 -4.765625 L 8.390625 -6.25 L 8.1875 -6.296875 C 7.925781 -6.109375 7.609375 -5.953125 7.234375 -5.828125 C 6.859375 -5.710938 6.332031 -5.601562 5.65625 -5.5 C 4.976562 -5.40625 4.4375 -5.265625 4.03125 -5.078125 C 3.632812 -4.890625 3.351562 -4.644531 3.1875 -4.34375 C 3.019531 -4.050781 2.9375 -3.691406 2.9375 -3.265625 C 2.9375 -2.578125 3.132812 -2.050781 3.53125 -1.6875 C 3.9375 -1.332031 4.5 -1.15625 5.21875 -1.15625 Z M 5.21875 -1.15625 "/></g></g></g><g fill="#ffffff" fill-opacity="1"><g transform="translate(219.041133, 34.819542)"><g><path d="M 7.921875 -1.859375 L 8.46875 -0.609375 C 8.195312 -0.335938 7.835938 -0.132812 7.390625 0 C 6.941406 0.144531 6.453125 0.21875 5.921875 0.21875 C 3.679688 0.21875 2.5625 -0.910156 2.5625 -3.171875 L 2.5625 -10.296875 L 0.53125 -10.296875 L 0.53125 -11.71875 L 2.5625 -11.71875 L 2.5625 -14.203125 L 4.296875 -14.484375 L 4.296875 -11.71875 L 8.078125 -11.71875 L 8.078125 -10.296875 L 4.296875 -10.296875 L 4.296875 -3.34375 C 4.296875 -2 4.878906 -1.328125 6.046875 -1.328125 C 6.691406 -1.328125 7.242188 -1.503906 7.703125 -1.859375 Z M 7.921875 -1.859375 "/></g></g></g><g fill="#ffffff" fill-opacity="1"><g transform="translate(227.96088, 34.819542)"><g><path d="M 4.828125 0.21875 C 3.671875 0.21875 2.769531 -0.078125 2.125 -0.671875 C 1.476562 -1.273438 1.15625 -2.140625 1.15625 -3.265625 C 1.15625 -3.953125 1.296875 -4.535156 1.578125 -5.015625 C 1.867188 -5.492188 2.316406 -5.882812 2.921875 -6.1875 C 3.523438 -6.488281 4.3125 -6.71875 5.28125 -6.875 C 6.125 -7.019531 6.765625 -7.179688 7.203125 -7.359375 C 7.648438 -7.535156 7.953125 -7.734375 8.109375 -7.953125 C 8.265625 -8.171875 8.34375 -8.445312 8.34375 -8.78125 C 8.34375 -9.3125 8.160156 -9.71875 7.796875 -10 C 7.429688 -10.28125 6.84375 -10.421875 6.03125 -10.421875 C 5.269531 -10.421875 4.617188 -10.273438 4.078125 -9.984375 C 3.535156 -9.691406 3.039062 -9.253906 2.59375 -8.671875 L 2.375 -8.671875 L 1.53125 -9.875 C 2.019531 -10.507812 2.644531 -11.007812 3.40625 -11.375 C 4.175781 -11.75 5.050781 -11.9375 6.03125 -11.9375 C 7.414062 -11.9375 8.429688 -11.632812 9.078125 -11.03125 C 9.734375 -10.425781 10.0625 -9.585938 10.0625 -8.515625 L 10.0625 -2.296875 C 10.0625 -1.648438 10.335938 -1.328125 10.890625 -1.328125 C 11.078125 -1.328125 11.253906 -1.359375 11.421875 -1.421875 L 11.578125 -1.375 L 11.78125 -0.1875 C 11.65625 -0.09375 11.484375 -0.0234375 11.265625 0.015625 C 11.054688 0.0546875 10.84375 0.078125 10.625 0.078125 C 9.988281 0.078125 9.503906 -0.0625 9.171875 -0.34375 C 8.835938 -0.625 8.625 -1.039062 8.53125 -1.59375 L 8.3125 -1.609375 C 7.976562 -0.992188 7.53125 -0.535156 6.96875 -0.234375 C 6.40625 0.0664062 5.691406 0.21875 4.828125 0.21875 Z M 5.21875 -1.15625 C 5.863281 -1.15625 6.425781 -1.304688 6.90625 -1.609375 C 7.382812 -1.910156 7.75 -2.332031 8 -2.875 C 8.257812 -3.425781 8.390625 -4.054688 8.390625 -4.765625 L 8.390625 -6.25 L 8.1875 -6.296875 C 7.925781 -6.109375 7.609375 -5.953125 7.234375 -5.828125 C 6.859375 -5.710938 6.332031 -5.601562 5.65625 -5.5 C 4.976562 -5.40625 4.4375 -5.265625 4.03125 -5.078125 C 3.632812 -4.890625 3.351562 -4.644531 3.1875 -4.34375 C 3.019531 -4.050781 2.9375 -3.691406 2.9375 -3.265625 C 2.9375 -2.578125 3.132812 -2.050781 3.53125 -1.6875 C 3.9375 -1.332031 4.5 -1.15625 5.21875 -1.15625 Z M 5.21875 -1.15625 "/></g></g></g><g fill="#ffffff" fill-opacity="1"><g transform="translate(240.076875, 34.819542)"><g><path d="M 7.921875 -1.859375 L 8.46875 -0.609375 C 8.195312 -0.335938 7.835938 -0.132812 7.390625 0 C 6.941406 0.144531 6.453125 0.21875 5.921875 0.21875 C 3.679688 0.21875 2.5625 -0.910156 2.5625 -3.171875 L 2.5625 -10.296875 L 0.53125 -10.296875 L 0.53125 -11.71875 L 2.5625 -11.71875 L 2.5625 -14.203125 L 4.296875 -14.484375 L 4.296875 -11.71875 L 8.078125 -11.71875 L 8.078125 -10.296875 L 4.296875 -10.296875 L 4.296875 -3.34375 C 4.296875 -2 4.878906 -1.328125 6.046875 -1.328125 C 6.691406 -1.328125 7.242188 -1.503906 7.703125 -1.859375 Z M 7.921875 -1.859375 "/></g></g></g><g fill="#ffffff" fill-opacity="1"><g transform="translate(248.996622, 34.819542)"><g><path d="M 4.828125 0.21875 C 3.671875 0.21875 2.769531 -0.078125 2.125 -0.671875 C 1.476562 -1.273438 1.15625 -2.140625 1.15625 -3.265625 C 1.15625 -3.953125 1.296875 -4.535156 1.578125 -5.015625 C 1.867188 -5.492188 2.316406 -5.882812 2.921875 -6.1875 C 3.523438 -6.488281 4.3125 -6.71875 5.28125 -6.875 C 6.125 -7.019531 6.765625 -7.179688 7.203125 -7.359375 C 7.648438 -7.535156 7.953125 -7.734375 8.109375 -7.953125 C 8.265625 -8.171875 8.34375 -8.445312 8.34375 -8.78125 C 8.34375 -9.3125 8.160156 -9.71875 7.796875 -10 C 7.429688 -10.28125 6.84375 -10.421875 6.03125 -10.421875 C 5.269531 -10.421875 4.617188 -10.273438 4.078125 -9.984375 C 3.535156 -9.691406 3.039062 -9.253906 2.59375 -8.671875 L 2.375 -8.671875 L 1.53125 -9.875 C 2.019531 -10.507812 2.644531 -11.007812 3.40625 -11.375 C 4.175781 -11.75 5.050781 -11.9375 6.03125 -11.9375 C 7.414062 -11.9375 8.429688 -11.632812 9.078125 -11.03125 C 9.734375 -10.425781 10.0625 -9.585938 10.0625 -8.515625 L 10.0625 -2.296875 C 10.0625 -1.648438 10.335938 -1.328125 10.890625 -1.328125 C 11.078125 -1.328125 11.253906 -1.359375 11.421875 -1.421875 L 11.578125 -1.375 L 11.78125 -0.1875 C 11.65625 -0.09375 11.484375 -0.0234375 11.265625 0.015625 C 11.054688 0.0546875 10.84375 0.078125 10.625 0.078125 C 9.988281 0.078125 9.503906 -0.0625 9.171875 -0.34375 C 8.835938 -0.625 8.625 -1.039062 8.53125 -1.59375 L 8.3125 -1.609375 C 7.976562 -0.992188 7.53125 -0.535156 6.96875 -0.234375 C 6.40625 0.0664062 5.691406 0.21875 4.828125 0.21875 Z M 5.21875 -1.15625 C 5.863281 -1.15625 6.425781 -1.304688 6.90625 -1.609375 C 7.382812 -1.910156 7.75 -2.332031 8 -2.875 C 8.257812 -3.425781 8.390625 -4.054688 8.390625 -4.765625 L 8.390625 -6.25 L 8.1875 -6.296875 C 7.925781 -6.109375 7.609375 -5.953125 7.234375 -5.828125 C 6.859375 -5.710938 6.332031 -5.601562 5.65625 -5.5 C 4.976562 -5.40625 4.4375 -5.265625 4.03125 -5.078125 C 3.632812 -4.890625 3.351562 -4.644531 3.1875 -4.34375 C 3.019531 -4.050781 2.9375 -3.691406 2.9375 -3.265625 C 2.9375 -2.578125 3.132812 -2.050781 3.53125 -1.6875 C 3.9375 -1.332031 4.5 -1.15625 5.21875 -1.15625 Z M 5.21875 -1.15625 "/></g></g></g><g fill="#ffffff" fill-opacity="1"><g transform="translate(261.112617, 34.819542)"><g><path d="M 7.921875 -1.859375 L 8.46875 -0.609375 C 8.195312 -0.335938 7.835938 -0.132812 7.390625 0 C 6.941406 0.144531 6.453125 0.21875 5.921875 0.21875 C 3.679688 0.21875 2.5625 -0.910156 2.5625 -3.171875 L 2.5625 -10.296875 L 0.53125 -10.296875 L 0.53125 -11.71875 L 2.5625 -11.71875 L 2.5625 -14.203125 L 4.296875 -14.484375 L 4.296875 -11.71875 L 8.078125 -11.71875 L 8.078125 -10.296875 L 4.296875 -10.296875 L 4.296875 -3.34375 C 4.296875 -2 4.878906 -1.328125 6.046875 -1.328125 C 6.691406 -1.328125 7.242188 -1.503906 7.703125 -1.859375 Z M 7.921875 -1.859375 "/></g></g></g><g fill="#ffffff" fill-opacity="1"><g transform="translate(270.032364, 34.819542)"><g><path d="M 4.828125 0.21875 C 3.671875 0.21875 2.769531 -0.078125 2.125 -0.671875 C 1.476562 -1.273438 1.15625 -2.140625 1.15625 -3.265625 C 1.15625 -3.953125 1.296875 -4.535156 1.578125 -5.015625 C 1.867188 -5.492188 2.316406 -5.882812 2.921875 -6.1875 C 3.523438 -6.488281 4.3125 -6.71875 5.28125 -6.875 C 6.125 -7.019531 6.765625 -7.179688 7.203125 -7.359375 C 7.648438 -7.535156 7.953125 -7.734375 8.109375 -7.953125 C 8.265625 -8.171875 8.34375 -8.445312 8.34375 -8.78125 C 8.34375 -9.3125 8.160156 -9.71875 7.796875 -10 C 7.429688 -10.28125 6.84375 -10.421875 6.03125 -10.421875 C 5.269531 -10.421875 4.617188 -10.273438 4.078125 -9.984375 C 3.535156 -9.691406 3.039062 -9.253906 2.59375 -8.671875 L 2.375 -8.671875 L 1.53125 -9.875 C 2.019531 -10.507812 2.644531 -11.007812 3.40625 -11.375 C 4.175781 -11.75 5.050781 -11.9375 6.03125 -11.9375 C 7.414062 -11.9375 8.429688 -11.632812 9.078125 -11.03125 C 9.734375 -10.425781 10.0625 -9.585938 10.0625 -8.515625 L 10.0625 -2.296875 C 10.0625 -1.648438 10.335938 -1.328125 10.890625 -1.328125 C 11.078125 -1.328125 11.253906 -1.359375 11.421875 -1.421875 L 11.578125 -1.375 L 11.78125 -0.1875 C 11.65625 -0.09375 11.484375 -0.0234375 11.265625 0.015625 C 11.054688 0.0546875 10.84375 0.078125 10.625 0.078125 C 9.988281 0.078125 9.503906 -0.0625 9.171875 -0.34375 C 8.835938 -0.625 8.625 -1.039062 8.53125 -1.59375 L 8.3125 -1.609375 C 7.976562 -0.992188 7.53125 -0.535156 6.96875 -0.234375 C 6.40625 0.0664062 5.691406 0.21875 4.828125 0.21875 Z M 5.21875 -1.15625 C 5.863281 -1.15625 6.425781 -1.304688 6.90625 -1.609375 C 7.382812 -1.910156 7.75 -2.332031 8 -2.875 C 8.257812 -3.425781 8.390625 -4.054688 8.390625 -4.765625 L 8.390625 -6.25 L 8.1875 -6.296875 C 7.925781 -6.109375 7.609375 -5.953125 7.234375 -5.828125 C 6.859375 -5.710938 6.332031 -5.601562 5.65625 -5.5 C 4.976562 -5.40625 4.4375 -5.265625 4.03125 -5.078125 C 3.632812 -4.890625 3.351562 -4.644531 3.1875 -4.34375 C 3.019531 -4.050781 2.9375 -3.691406 2.9375 -3.265625 C 2.9375 -2.578125 3.132812 -2.050781 3.53125 -1.6875 C 3.9375 -1.332031 4.5 -1.15625 5.21875 -1.15625 Z M 5.21875 -1.15625 "/></g></g></g><g fill="#ffffff" fill-opacity="1"><g transform="translate(282.148359, 34.819542)"><g><path d="M 7.921875 -1.859375 L 8.46875 -0.609375 C 8.195312 -0.335938 7.835938 -0.132812 7.390625 0 C 6.941406 0.144531 6.453125 0.21875 5.921875 0.21875 C 3.679688 0.21875 2.5625 -0.910156 2.5625 -3.171875 L 2.5625 -10.296875 L 0.53125 -10.296875 L 0.53125 -11.71875 L 2.5625 -11.71875 L 2.5625 -14.203125 L 4.296875 -14.484375 L 4.296875 -11.71875 L 8.078125 -11.71875 L 8.078125 -10.296875 L 4.296875 -10.296875 L 4.296875 -3.34375 C 4.296875 -2 4.878906 -1.328125 6.046875 -1.328125 C 6.691406 -1.328125 7.242188 -1.503906 7.703125 -1.859375 Z M 7.921875 -1.859375 "/></g></g></g><g fill="#ffffff" fill-opacity="1"><g transform="translate(291.068106, 34.819542)"><g><path d="M 4.828125 0.21875 C 3.671875 0.21875 2.769531 -0.078125 2.125 -0.671875 C 1.476562 -1.273438 1.15625 -2.140625 1.15625 -3.265625 C 1.15625 -3.953125 1.296875 -4.535156 1.578125 -5.015625 C 1.867188 -5.492188 2.316406 -5.882812 2.921875 -6.1875 C 3.523438 -6.488281 4.3125 -6.71875 5.28125 -6.875 C 6.125 -7.019531 6.765625 -7.179688 7.203125 -7.359375 C 7.648438 -7.535156 7.953125 -7.734375 8.109375 -7.953125 C 8.265625 -8.171875 8.34375 -8.445312 8.34375 -8.78125 C 8.34375 -9.3125 8.160156 -9.71875 7.796875 -10 C 7.429688 -10.28125 6.84375 -10.421875 6.03125 -10.421875 C 5.269531 -10.421875 4.617188 -10.273438 4.078125 -9.984375 C 3.535156 -9.691406 3.039062 -9.253906 2.59375 -8.671875 L 2.375 -8.671875 L 1.53125 -9.875 C 2.019531 -10.507812 2.644531 -11.007812 3.40625 -11.375 C 4.175781 -11.75 5.050781 -11.9375 6.03125 -11.9375 C 7.414062 -11.9375 8.429688 -11.632812 9.078125 -11.03125 C 9.734375 -10.425781 10.0625 -9.585938 10.0625 -8.515625 L 10.0625 -2.296875 C 10.0625 -1.648438 10.335938 -1.328125 10.890625 -1.328125 C 11.078125 -1.328125 11.253906 -1.359375 11.421875 -1.421875 L 11.578125 -1.375 L 11.78125 -0.1875 C 11.65625 -0.09375 11.484375 -0.0234375 11.265625 0.015625 C 11.054688 0.0546875 10.84375 0.078125 10.625 0.078125 C 9.988281 0.078125 9.503906 -0.0625 9.171875 -0.34375 C 8.835938 -0.625 8.625 -1.039062 8.53125 -1.59375 L 8.3125 -1.609375 C 7.976562 -0.992188 7.53125 -0.535156 6.96875 -0.234375 C 6.40625 0.0664062 5.691406 0.21875 4.828125 0.21875 Z M 5.21875 -1.15625 C 5.863281 -1.15625 6.425781 -1.304688 6.90625 -1.609375 C 7.382812 -1.910156 7.75 -2.332031 8 -2.875 C 8.257812 -3.425781 8.390625 -4.054688 8.390625 -4.765625 L 8.390625 -6.25 L 8.1875 -6.296875 C 7.925781 -6.109375 7.609375 -5.953125 7.234375 -5.828125 C 6.859375 -5.710938 6.332031 -5.601562 5.65625 -5.5 C 4.976562 -5.40625 4.4375 -5.265625 4.03125 -5.078125 C 3.632812 -4.890625 3.351562 -4.644531 3.1875 -4.34375 C 3.019531 -4.050781 2.9375 -3.691406 2.9375 -3.265625 C 2.9375 -2.578125 3.132812 -2.050781 3.53125 -1.6875 C 3.9375 -1.332031 4.5 -1.15625 5.21875 -1.15625 Z M 5.21875 -1.15625 "/></g></g></g><g fill="#ffffff" fill-opacity="1"><g transform="translate(303.184101, 34.819542)"><g><path d="M 7.921875 -1.859375 L 8.46875 -0.609375 C 8.195312 -0.335938 7.835938 -0.132812 7.390625 0 C 6.941406 0.144531 6.453125 0.21875 5.921875 0.21875 C 3.679688 0.21875 2.5625 -0.910156 2.5625 -3.171875 L 2.5625 -10.296875 L 0.53125 -10.296875 L 0.53125 -11.71875 L 2.5625 -11.71875 L 2.5625 -14.203125 L 4.296875 -14.484375 L 4.296875 -11.71875 L 8.078125 -11.71875 L 8.078125 -10.296875 L 4.296875 -10.296875 L 4.296875 -3.34375 C 4.296875 -2 4.878906 -1.328125 6.046875 -1.328125 C 6.691406 -1.328125 7.242188 -1.503906 7.703125 -1.859375 Z M 7.921875 -1.859375 "/></g></g></g><g fill="#ffffff" fill-opacity="1"><g transform="translate(312.103848, 34.819542)"><g><path d="M 4.828125 0.21875 C 3.671875 0.21875 2.769531 -0.078125 2.125 -0.671875 C 1.476562 -1.273438 1.15625 -2.140625 1.15625 -3.265625 C 1.15625 -3.953125 1.296875 -4.535156 1.578125 -5.015625 C 1.867188 -5.492188 2.316406 -5.882812 2.921875 -6.1875 C 3.523438 -6.488281 4.3125 -6.71875 5.28125 -6.875 C 6.125 -7.019531 6.765625 -7.179688 7.203125 -7.359375 C 7.648438 -7.535156 7.953125 -7.734375 8.109375 -7.953125 C 8.265625 -8.171875 8.34375 -8.445312 8.34375 -8.78125 C 8.34375 -9.3125 8.160156 -9.71875 7.796875 -10 C 7.429688 -10.28125 6.84375 -10.421875 6.03125 -10.421875 C 5.269531 -10.421875 4.617188 -10.273438 4.078125 -9.984375 C 3.535156 -9.691406 3.039062 -9.253906 2.59375 -8.671875 L 2.375 -8.671875 L 1.53125 -9.875 C 2.019531 -10.507812 2.644531 -11.007812 3.40625 -11.375 C 4.175781 -11.75 5.050781 -11.9375 6.03125 -11.9375 C 7.414062 -11.9375 8.429688 -11.632812 9.078125 -11.03125 C 9.734375 -10.425781 10.0625 -9.585938 10.0625 -8.515625 L 10.0625 -2.296875 C 10.0625 -1.648438 10.335938 -1.328125 10.890625 -1.328125 C 11.078125 -1.328125 11.253906 -1.359375 11.421875 -1.421875 L 11.578125 -1.375 L 11.78125 -0.1875 C 11.65625 -0.09375 11.484375 -0.0234375 11.265625 0.015625 C 11.054688 0.0546875 10.84375 0.078125 10.625 0.078125 C 9.988281 0.078125 9.503906 -0.0625 9.171875 -0.34375 C 8.835938 -0.625 8.625 -1.039062 8.53125 -1.59375 L 8.3125 -1.609375 C 7.976562 -0.992188 7.53125 -0.535156 6.96875 -0.234375 C 6.40625 0.0664062 5.691406 0.21875 4.828125 0.21875 Z M 5.21875 -1.15625 C 5.863281 -1.15625 6.425781 -1.304688 6.90625 -1.609375 C 7.382812 -1.910156 7.75 -2.332031 8 -2.875 C 8.257812 -3.425781 8.390625 -4.054688 8.390625 -4.765625 L 8.390625 -6.25 L 8.1875 -6.296875 C 7.925781 -6.109375 7.609375 -5.953125 7.234375 -5.828125 C 6.859375 -5.710938 6.332031 -5.601562 5.65625 -5.5 C 4.976562 -5.40625 4.4375 -5.265625 4.03125 -5.078125 C 3.632812 -4.890625 3.351562 -4.644531 3.1875 -4.34375 C 3.019531 -4.050781 2.9375 -3.691406 2.9375 -3.265625 C 2.9375 -2.578125 3.132812 -2.050781 3.53125 -1.6875 C 3.9375 -1.332031 4.5 -1.15625 5.21875 -1.15625 Z M 5.21875 -1.15625 "/></g></g></g><g fill="#ffffff" fill-opacity="1"><g transform="translate(324.219843, 34.819542)"><g><path d="M 0.671875 3.234375 C 1.285156 2.835938 1.804688 2.375 2.234375 1.84375 C 2.660156 1.3125 2.878906 0.722656 2.890625 0.078125 C 2.472656 0.078125 2.144531 -0.03125 1.90625 -0.25 C 1.664062 -0.476562 1.546875 -0.78125 1.546875 -1.15625 C 1.546875 -1.519531 1.660156 -1.820312 1.890625 -2.0625 C 2.117188 -2.300781 2.425781 -2.421875 2.8125 -2.421875 C 3.226562 -2.421875 3.566406 -2.273438 3.828125 -1.984375 C 4.085938 -1.691406 4.21875 -1.234375 4.21875 -0.609375 C 4.21875 0.492188 3.976562 1.421875 3.5 2.171875 C 3.03125 2.921875 2.332031 3.609375 1.40625 4.234375 Z M 0.671875 3.234375 "/></g></g></g><g fill="#ffffff" fill-opacity="1"><g transform="translate(329.993768, 34.819542)"><g/></g></g><g fill="#ffffff" fill-opacity="1"><g transform="translate(335.324378, 34.819542)"><g><path d="M 1.109375 0 L 1.109375 -1.515625 L 5.34375 -1.515625 L 5.34375 -13.375 L 5.09375 -13.4375 C 4.40625 -13.101562 3.800781 -12.84375 3.28125 -12.65625 C 2.769531 -12.476562 2.113281 -12.304688 1.3125 -12.140625 L 1.3125 -13.8125 C 2.101562 -13.988281 2.890625 -14.21875 3.671875 -14.5 C 4.460938 -14.789062 5.175781 -15.132812 5.8125 -15.53125 L 7.125 -15.53125 L 7.125 -1.515625 L 10.921875 -1.515625 L 10.921875 0 Z M 1.109375 0 "/></g></g></g><g fill="#ffffff" fill-opacity="1"><g transform="translate(346.898811, 34.819542)"><g/></g></g><g fill="#ffffff" fill-opacity="1"><g transform="translate(352.229422, 34.819542)"><g><path d="M 6.78125 0 L 4.390625 0 L 0.84375 -15.53125 L 2.640625 -15.53125 L 5.5625 -2.6875 L 5.828125 -2.6875 L 9.3125 -15.53125 L 11 -15.53125 L 14.484375 -2.6875 L 14.75 -2.6875 L 17.6875 -15.53125 L 19.4375 -15.53125 L 15.890625 0 L 13.484375 0 L 10.25 -11.75 L 10.03125 -11.75 Z M 6.78125 0 "/></g></g></g><g fill="#ffffff" fill-opacity="1"><g transform="translate(372.500614, 34.819542)"><g><path d="M 11.15625 -5.453125 L 3.109375 -5.453125 C 3.160156 -4.035156 3.503906 -2.992188 4.140625 -2.328125 C 4.773438 -1.660156 5.644531 -1.328125 6.75 -1.328125 C 7.582031 -1.328125 8.253906 -1.472656 8.765625 -1.765625 C 9.273438 -2.066406 9.675781 -2.535156 9.96875 -3.171875 L 10.1875 -3.171875 L 11.3125 -2.5 C 10.96875 -1.65625 10.421875 -0.988281 9.671875 -0.5 C 8.929688 -0.0195312 7.957031 0.21875 6.75 0.21875 C 5.613281 0.21875 4.640625 0 3.828125 -0.4375 C 3.015625 -0.882812 2.382812 -1.5625 1.9375 -2.46875 C 1.5 -3.375 1.28125 -4.503906 1.28125 -5.859375 C 1.28125 -7.179688 1.507812 -8.300781 1.96875 -9.21875 C 2.4375 -10.132812 3.070312 -10.816406 3.875 -11.265625 C 4.6875 -11.710938 5.609375 -11.9375 6.640625 -11.9375 C 8.140625 -11.9375 9.3125 -11.515625 10.15625 -10.671875 C 11 -9.828125 11.421875 -8.570312 11.421875 -6.90625 C 11.421875 -6.25 11.410156 -5.8125 11.390625 -5.59375 Z M 9.71875 -6.90625 C 9.6875 -8.144531 9.410156 -9.046875 8.890625 -9.609375 C 8.367188 -10.179688 7.617188 -10.46875 6.640625 -10.46875 C 5.609375 -10.46875 4.800781 -10.179688 4.21875 -9.609375 C 3.632812 -9.046875 3.28125 -8.144531 3.15625 -6.90625 Z M 9.71875 -6.90625 "/></g></g></g><g fill="#ffffff" fill-opacity="1"><g transform="translate(384.988259, 34.819542)"><g><path d="M 11.15625 -5.453125 L 3.109375 -5.453125 C 3.160156 -4.035156 3.503906 -2.992188 4.140625 -2.328125 C 4.773438 -1.660156 5.644531 -1.328125 6.75 -1.328125 C 7.582031 -1.328125 8.253906 -1.472656 8.765625 -1.765625 C 9.273438 -2.066406 9.675781 -2.535156 9.96875 -3.171875 L 10.1875 -3.171875 L 11.3125 -2.5 C 10.96875 -1.65625 10.421875 -0.988281 9.671875 -0.5 C 8.929688 -0.0195312 7.957031 0.21875 6.75 0.21875 C 5.613281 0.21875 4.640625 0 3.828125 -0.4375 C 3.015625 -0.882812 2.382812 -1.5625 1.9375 -2.46875 C 1.5 -3.375 1.28125 -4.503906 1.28125 -5.859375 C 1.28125 -7.179688 1.507812 -8.300781 1.96875 -9.21875 C 2.4375 -10.132812 3.070312 -10.816406 3.875 -11.265625 C 4.6875 -11.710938 5.609375 -11.9375 6.640625 -11.9375 C 8.140625 -11.9375 9.3125 -11.515625 10.15625 -10.671875 C 11 -9.828125 11.421875 -8.570312 11.421875 -6.90625 C 11.421875 -6.25 11.410156 -5.8125 11.390625 -5.59375 Z M 9.71875 -6.90625 C 9.6875 -8.144531 9.410156 -9.046875 8.890625 -9.609375 C 8.367188 -10.179688 7.617188 -10.46875 6.640625 -10.46875 C 5.609375 -10.46875 4.800781 -10.179688 4.21875 -9.609375 C 3.632812 -9.046875 3.28125 -8.144531 3.15625 -6.90625 Z M 9.71875 -6.90625 "/></g></g></g><g fill="#ffffff" fill-opacity="1"><g transform="translate(397.475904, 34.819542)"><g><path d="M 2.046875 0 L 2.046875 -16.421875 L 3.765625 -16.421875 L 3.765625 -6.828125 L 4.0625 -6.828125 L 8.40625 -11.71875 L 10.234375 -11.71875 L 10.234375 -11.46875 L 5.59375 -6.21875 L 10.671875 -0.265625 L 10.671875 0 L 8.734375 0 L 4.0625 -5.421875 L 3.765625 -5.421875 L 3.765625 0 Z M 2.046875 0 "/></g></g></g><g fill="#ffffff" fill-opacity="1"><g transform="translate(408.370737, 34.819542)"><g/></g></g><g fill="#ffffff" fill-opacity="1"><g transform="translate(413.701347, 34.819542)"><g><path d="M 13.96875 0 L 12.015625 0 L 10.59375 -4.265625 L 3.96875 -4.265625 L 2.53125 0 L 0.609375 0 L 6.03125 -15.53125 L 8.5625 -15.53125 Z M 7.140625 -13.640625 L 4.484375 -5.78125 L 10.0625 -5.78125 L 7.40625 -13.640625 Z M 7.140625 -13.640625 "/></g></g></g><g fill="#ffffff" fill-opacity="1"><g transform="translate(428.291504, 34.819542)"><g><path d="M 6.03125 4.96875 C 4.1875 4.96875 2.835938 4.660156 1.984375 4.046875 C 1.140625 3.429688 0.71875 2.613281 0.71875 1.59375 C 0.71875 0.9375 0.914062 0.410156 1.3125 0.015625 C 1.707031 -0.367188 2.28125 -0.644531 3.03125 -0.8125 L 3.03125 -1.046875 C 2.675781 -1.242188 2.40625 -1.476562 2.21875 -1.75 C 2.039062 -2.03125 1.953125 -2.363281 1.953125 -2.75 C 1.953125 -3.207031 2.09375 -3.578125 2.375 -3.859375 C 2.664062 -4.140625 3.09375 -4.351562 3.65625 -4.5 L 3.65625 -4.71875 C 2.382812 -5.394531 1.75 -6.488281 1.75 -8 C 1.75 -8.769531 1.921875 -9.453125 2.265625 -10.046875 C 2.617188 -10.640625 3.113281 -11.101562 3.75 -11.4375 C 4.394531 -11.769531 5.148438 -11.9375 6.015625 -11.9375 C 6.992188 -11.9375 7.8125 -11.722656 8.46875 -11.296875 C 8.71875 -11.566406 8.90625 -11.859375 9.03125 -12.171875 C 9.15625 -12.492188 9.234375 -12.851562 9.265625 -13.25 L 9.5 -13.375 L 10.921875 -13.046875 C 10.847656 -12.453125 10.664062 -11.945312 10.375 -11.53125 C 10.09375 -11.125 9.691406 -10.785156 9.171875 -10.515625 L 9.171875 -10.296875 C 9.546875 -9.992188 9.820312 -9.640625 10 -9.234375 C 10.175781 -8.835938 10.265625 -8.375 10.265625 -7.84375 C 10.265625 -7.113281 10.085938 -6.453125 9.734375 -5.859375 C 9.378906 -5.273438 8.878906 -4.8125 8.234375 -4.46875 C 7.597656 -4.132812 6.859375 -3.96875 6.015625 -3.96875 C 5.910156 -3.96875 5.734375 -3.976562 5.484375 -4 C 5.203125 -4.007812 4.992188 -4.015625 4.859375 -4.015625 C 4.484375 -4.015625 4.1875 -3.914062 3.96875 -3.71875 C 3.75 -3.53125 3.640625 -3.289062 3.640625 -3 C 3.640625 -2.625 3.757812 -2.347656 4 -2.171875 C 4.238281 -2.003906 4.628906 -1.910156 5.171875 -1.890625 L 7.9375 -1.796875 C 9.132812 -1.753906 10.019531 -1.472656 10.59375 -0.953125 C 11.175781 -0.441406 11.46875 0.28125 11.46875 1.21875 C 11.46875 1.914062 11.28125 2.546875 10.90625 3.109375 C 10.53125 3.679688 9.9375 4.132812 9.125 4.46875 C 8.3125 4.800781 7.28125 4.96875 6.03125 4.96875 Z M 6.015625 -5.453125 C 6.835938 -5.453125 7.472656 -5.664062 7.921875 -6.09375 C 8.378906 -6.53125 8.609375 -7.140625 8.609375 -7.921875 C 8.609375 -8.734375 8.382812 -9.359375 7.9375 -9.796875 C 7.488281 -10.234375 6.847656 -10.453125 6.015625 -10.453125 C 5.179688 -10.453125 4.539062 -10.234375 4.09375 -9.796875 C 3.65625 -9.359375 3.4375 -8.734375 3.4375 -7.921875 C 3.4375 -7.140625 3.65625 -6.53125 4.09375 -6.09375 C 4.539062 -5.664062 5.179688 -5.453125 6.015625 -5.453125 Z M 6.03125 3.484375 C 6.894531 3.484375 7.597656 3.382812 8.140625 3.1875 C 8.691406 3 9.085938 2.75 9.328125 2.4375 C 9.578125 2.125 9.703125 1.769531 9.703125 1.375 C 9.703125 1.03125 9.632812 0.75 9.5 0.53125 C 9.363281 0.320312 9.148438 0.164062 8.859375 0.0625 C 8.578125 -0.0390625 8.179688 -0.109375 7.671875 -0.140625 L 5.0625 -0.265625 L 4.6875 -0.265625 C 3.21875 -0.242188 2.484375 0.320312 2.484375 1.4375 C 2.484375 2.800781 3.664062 3.484375 6.03125 3.484375 Z M 6.03125 3.484375 "/></g></g></g><g fill="#ffffff" fill-opacity="1"><g transform="translate(440.290686, 34.819542)"><g><path d="M 6.71875 0.21875 C 5.613281 0.21875 4.648438 -0.0078125 3.828125 -0.46875 C 3.015625 -0.9375 2.382812 -1.625 1.9375 -2.53125 C 1.5 -3.445312 1.28125 -4.554688 1.28125 -5.859375 C 1.28125 -7.148438 1.5 -8.25 1.9375 -9.15625 C 2.382812 -10.070312 3.015625 -10.765625 3.828125 -11.234375 C 4.648438 -11.703125 5.613281 -11.9375 6.71875 -11.9375 C 7.820312 -11.9375 8.78125 -11.703125 9.59375 -11.234375 C 10.414062 -10.765625 11.046875 -10.070312 11.484375 -9.15625 C 11.929688 -8.25 12.15625 -7.148438 12.15625 -5.859375 C 12.15625 -4.554688 11.929688 -3.445312 11.484375 -2.53125 C 11.046875 -1.625 10.414062 -0.9375 9.59375 -0.46875 C 8.78125 -0.0078125 7.820312 0.21875 6.71875 0.21875 Z M 6.71875 -1.328125 C 7.882812 -1.328125 8.773438 -1.691406 9.390625 -2.421875 C 10.015625 -3.160156 10.328125 -4.304688 10.328125 -5.859375 C 10.328125 -7.398438 10.015625 -8.539062 9.390625 -9.28125 C 8.773438 -10.019531 7.882812 -10.390625 6.71875 -10.390625 C 5.550781 -10.390625 4.65625 -10.019531 4.03125 -9.28125 C 3.40625 -8.539062 3.09375 -7.398438 3.09375 -5.859375 C 3.09375 -4.304688 3.40625 -3.160156 4.03125 -2.421875 C 4.65625 -1.691406 5.550781 -1.328125 6.71875 -1.328125 Z M 6.71875 -1.328125 "/></g></g></g><g clip-path="url(#48049991e3)"><g clip-path="url(#2e42897b80)"><path fill="#e7ad12" d="M 232.746094 54.28125 L 260.382812 54.28125 L 260.382812 80.578125 L 232.746094 80.578125 Z M 232.746094 54.28125 " fill-opacity="1" fill-rule="nonzero"/></g></g><g clip-path="url(#8905da8e3d)"><g clip-path="url(#90dadd0c7b)"><path fill="#e7ad12" d="M 260.339844 54.28125 L 287.972656 54.28125 L 287.972656 80.578125 L 260.339844 80.578125 Z M 260.339844 54.28125 " fill-opacity="1" fill-rule="nonzero"/></g></g><g clip-path="url(#b9b41b6308)"><g clip-path="url(#bcc1dab0fd)"><path fill="#e7ad12" d="M 286.203125 54.28125 L 313.835938 54.28125 L 313.835938 80.578125 L 286.203125 80.578125 Z M 286.203125 54.28125 " fill-opacity="1" fill-rule="nonzero"/></g></g><g clip-path="url(#65e6c21d96)"><g clip-path="url(#0f786abfad)"><path fill="#e7ad12" d="M 312.632812 54.28125 L 340.265625 54.28125 L 340.265625 80.578125 L 312.632812 80.578125 Z M 312.632812 54.28125 " fill-opacity="1" fill-rule="nonzero"/></g></g><g clip-path="url(#7145a59b99)"><g clip-path="url(#1607f01d9a)"><path fill="#e7ad12" d="M 339.660156 54.28125 L 367.292969 54.28125 L 367.292969 80.578125 L 339.660156 80.578125 Z M 339.660156 54.28125 " fill-opacity="1" fill-rule="nonzero"/></g></g><g clip-path="url(#ae05fef96d)"><path fill="#f7f7f7" d="M 161.886719 28.101562 C 161.886719 29.671875 161.617188 31.175781 161.125 32.578125 L 142.695312 32.578125 L 142.695312 23.625 L 161.125 23.625 C 161.617188 25.027344 161.886719 26.53125 161.886719 28.101562 Z M 161.886719 28.101562 " fill-opacity="1" fill-rule="nonzero"/></g><g clip-path="url(#257863a8e2)"><path fill="#000000" d="M 161.125 32.578125 C 160.765625 33.597656 160.285156 34.558594 159.703125 35.449219 C 157.304688 39.113281 153.164062 41.53125 148.457031 41.53125 C 146.394531 41.53125 144.441406 41.066406 142.695312 40.238281 L 142.695312 32.578125 Z M 161.125 32.578125 " fill-opacity="1" fill-rule="nonzero"/></g><g clip-path="url(#a28b8cc065)"><path fill="#006f2e" d="M 161.125 23.625 L 142.695312 23.625 L 142.695312 15.964844 C 144.441406 15.136719 146.394531 14.671875 148.457031 14.671875 C 153.160156 14.671875 157.304688 17.089844 159.703125 20.753906 C 160.28125 21.644531 160.761719 22.605469 161.125 23.625 Z M 161.125 23.625 " fill-opacity="1" fill-rule="nonzero"/></g><g clip-path="url(#1a732381f3)"><path fill="#f70000" d="M 142.695312 15.964844 L 142.695312 40.238281 C 141.316406 39.582031 140.0625 38.695312 138.988281 37.628906 C 138.324219 36.96875 137.730469 36.238281 137.210938 35.449219 C 135.832031 33.339844 135.027344 30.816406 135.027344 28.101562 C 135.027344 25.386719 135.832031 22.867188 137.210938 20.753906 C 137.726562 19.964844 138.324219 19.234375 138.988281 18.570312 C 140.0625 17.507812 141.316406 16.621094 142.695312 15.964844 Z M 142.695312 15.964844 " fill-opacity="1" fill-rule="nonzero"/></g></svg>